<svg width="51" height="51" viewBox="0 0 51 51" fill="none" xmlns="http://www.w3.org/2000/svg">
<rect x="0.5" y="0.5" width="50" height="50" rx="3.5" stroke="#282764"/>
<g clip-path="url(#clip0)">
<path d="M34.317 18.3697C32.761 17.6555 31.119 17.1462 29.4319 16.8545C29.4166 16.8517 29.4007 16.8537 29.3867 16.8604C29.3726 16.867 29.3609 16.878 29.3534 16.8916C29.1424 17.2669 28.9087 17.7564 28.7451 18.1411C26.9004 17.8649 25.0651 17.8649 23.2583 18.1411C23.0947 17.7478 22.8525 17.2669 22.6406 16.8916C22.6328 16.8783 22.6211 16.8676 22.6071 16.861C22.5931 16.8544 22.5774 16.8522 22.5621 16.8546C20.8749 17.1456 19.2327 17.6549 17.6769 18.3696C17.6636 18.3753 17.6524 18.385 17.6448 18.3973C14.5334 23.0457 13.681 27.5798 14.0992 32.0577C14.1004 32.0687 14.1038 32.0793 14.1091 32.0889C14.1145 32.0986 14.1217 32.107 14.1304 32.1138C16.1832 33.6214 18.1717 34.5366 20.1233 35.1432C20.1385 35.1478 20.1547 35.1475 20.1697 35.1426C20.1848 35.1377 20.198 35.1283 20.2075 35.1156C20.6691 34.4852 21.0806 33.8204 21.4335 33.1214C21.4384 33.1119 21.4411 33.1014 21.4416 33.0906C21.4421 33.0799 21.4404 33.0692 21.4364 33.0592C21.4325 33.0493 21.4265 33.0402 21.4188 33.0327C21.4112 33.0252 21.402 33.0194 21.3919 33.0157C20.7391 32.7681 20.1176 32.4662 19.5197 32.1234C19.5088 32.117 19.4996 32.108 19.493 32.0973C19.4864 32.0865 19.4826 32.0742 19.4818 32.0616C19.4811 32.049 19.4835 32.0364 19.4887 32.0249C19.494 32.0134 19.502 32.0034 19.5121 31.9957C19.6379 31.9014 19.7638 31.8034 19.8839 31.7043C19.8946 31.6955 19.9075 31.6899 19.9212 31.688C19.9349 31.6862 19.9489 31.6882 19.9615 31.6938C23.8893 33.4871 28.1415 33.4871 32.0229 31.6938C32.0355 31.6878 32.0496 31.6855 32.0635 31.6872C32.0774 31.6889 32.0906 31.6945 32.1014 31.7033C32.2216 31.8023 32.3474 31.9014 32.4742 31.9957C32.4843 32.0033 32.4924 32.0132 32.4977 32.0247C32.5031 32.0361 32.5055 32.0487 32.5049 32.0613C32.5042 32.0739 32.5005 32.0861 32.494 32.097C32.4875 32.1078 32.4784 32.1168 32.4676 32.1233C31.8695 32.4727 31.2429 32.7709 30.5946 33.0147C30.5845 33.0186 30.5754 33.0245 30.5678 33.0321C30.5602 33.0398 30.5542 33.0489 30.5504 33.059C30.5466 33.069 30.5449 33.0798 30.5455 33.0906C30.5461 33.1013 30.549 33.1119 30.5539 33.1214C30.9143 33.8194 31.3258 34.4842 31.7789 35.1146C31.7882 35.1276 31.8013 35.1374 31.8164 35.1425C31.8315 35.1477 31.8478 35.1479 31.8631 35.1432C33.8241 34.5365 35.8126 33.6213 37.8654 32.1138C37.8742 32.1074 37.8816 32.0991 37.887 32.0896C37.8924 32.0801 37.8957 32.0695 37.8967 32.0586C38.3971 26.8816 37.0585 22.3847 34.3482 18.3982C34.3416 18.3853 34.3305 18.3751 34.317 18.3696V18.3697ZM22.02 29.3311C20.8375 29.3311 19.8631 28.2454 19.8631 26.9121C19.8631 25.5789 20.8186 24.4932 22.0201 24.4932C23.2309 24.4932 24.1958 25.5884 24.1769 26.9122C24.1769 28.2454 23.2214 29.3311 22.02 29.3311ZM29.9948 29.3311C28.8123 29.3311 27.8379 28.2454 27.8379 26.9121C27.8379 25.5789 28.7933 24.4932 29.9948 24.4932C31.2056 24.4932 32.1705 25.5884 32.1516 26.9122C32.1516 28.2454 31.2056 29.3311 29.9948 29.3311Z" fill="#9F9DEF"/>
</g>
<defs>
<clipPath id="clip0">
<rect width="24" height="24" fill="white" transform="translate(14 14)"/>
</clipPath>
</defs>
</svg>
