<svg width="51" height="51" viewBox="0 0 51 51" fill="none" xmlns="http://www.w3.org/2000/svg">
<rect x="0.5" y="0.5" width="50" height="50" rx="3.5" stroke="#282764"/>
<g clip-path="url(#clip0)">
<path d="M25.944 14C22.7711 14.0148 19.7332 15.2857 17.4949 17.5345C15.2566 19.7833 14 22.8271 14 26C14 29.1826 15.2643 32.2349 17.5147 34.4853C19.7652 36.7358 22.8174 38 26 38C29.1826 38 32.2348 36.7358 34.4853 34.4853C36.7357 32.2349 38 29.1826 38 26C38 22.8174 36.7357 19.7652 34.4853 17.5148C32.2348 15.2643 29.1826 14 26 14C25.9813 14 25.9627 14 25.944 14ZM30.906 21.224C31.006 21.222 31.227 21.247 31.371 21.364C31.4667 21.4471 31.5277 21.5631 31.542 21.689C31.558 21.782 31.578 21.995 31.562 22.161C31.382 24.059 30.6 28.663 30.202 30.788C30.034 31.688 29.703 31.989 29.382 32.018C28.686 32.083 28.157 31.558 27.482 31.116C26.426 30.423 25.829 29.992 24.804 29.316C23.619 28.536 24.387 28.106 25.062 27.406C25.239 27.222 28.309 24.429 28.369 24.176C28.376 24.144 28.383 24.026 28.313 23.964C28.243 23.902 28.139 23.923 28.064 23.94C27.958 23.964 26.271 25.08 23.003 27.285C22.523 27.615 22.09 27.775 21.701 27.765C21.273 27.757 20.449 27.524 19.836 27.325C19.084 27.08 18.487 26.951 18.539 26.536C18.566 26.32 18.864 26.099 19.432 25.873C22.93 24.349 25.262 23.344 26.43 22.859C29.762 21.473 30.455 21.232 30.906 21.224Z" fill="#9F9DEF"/>
</g>
<defs>
<clipPath id="clip0">
<rect width="24" height="24" fill="white" transform="translate(14 14)"/>
</clipPath>
</defs>
</svg>
