<svg width="51" height="51" viewBox="0 0 51 51" fill="none" xmlns="http://www.w3.org/2000/svg">
<rect x="0.5" y="0.5" width="50" height="50" rx="3.5" stroke="#282764"/>
<g clip-path="url(#clip0)">
<path d="M31.4721 28.382C31.1751 28.233 29.7141 27.515 29.4421 27.415C29.1691 27.316 28.9711 27.267 28.7721 27.565C28.5751 27.862 28.0051 28.531 27.8321 28.729C27.6591 28.928 27.4851 28.952 27.1881 28.804C26.8911 28.654 25.9331 28.341 24.7981 27.329C23.9151 26.541 23.3181 25.568 23.1451 25.27C22.9721 24.973 23.1271 24.812 23.2751 24.664C23.4091 24.531 23.5731 24.317 23.7211 24.144C23.8701 23.97 23.9191 23.846 24.0191 23.647C24.1181 23.449 24.0691 23.276 23.9941 23.127C23.9191 22.978 23.3251 21.515 23.0781 20.92C22.8361 20.341 22.5911 20.42 22.4091 20.41C22.2361 20.402 22.0381 20.4 21.8391 20.4C21.6411 20.4 21.3191 20.474 21.0471 20.772C20.7751 21.069 20.0071 21.788 20.0071 23.251C20.0071 24.713 21.0721 26.126 21.2201 26.325C21.3691 26.523 23.3161 29.525 26.2971 30.812C27.0061 31.118 27.5591 31.301 27.9911 31.437C28.7031 31.664 29.3511 31.632 29.8621 31.555C30.4331 31.47 31.6201 30.836 31.8681 30.142C32.1161 29.448 32.1161 28.853 32.0411 28.729C31.9671 28.605 31.7691 28.531 31.4711 28.382H31.4721ZM26.0501 35.785H26.0461C24.2759 35.7852 22.5382 35.3092 21.0151 34.407L20.6541 34.193L16.9131 35.175L17.9111 31.527L17.6761 31.153C16.6866 29.5773 16.1631 27.7537 16.1661 25.893C16.1671 20.443 20.6021 16.009 26.0541 16.009C28.6941 16.009 31.1761 17.039 33.0421 18.907C33.9628 19.8237 34.6926 20.9138 35.1891 22.1143C35.6857 23.3148 35.9393 24.6019 35.9351 25.901C35.9321 31.351 31.4981 35.785 26.0501 35.785ZM34.4631 17.488C33.3613 16.379 32.0504 15.4996 30.6062 14.9008C29.1621 14.3021 27.6135 13.9959 26.0501 14C19.4951 14 14.1601 19.335 14.1571 25.892C14.1571 27.988 14.7041 30.034 15.7451 31.837L14.0571 38L20.3621 36.346C22.1057 37.296 24.0596 37.7938 26.0451 37.794H26.0501C32.6041 37.794 37.9401 32.459 37.9431 25.901C37.948 24.3383 37.6429 22.7901 37.0456 21.3461C36.4482 19.902 35.5705 18.5907 34.4631 17.488Z" fill="#9F9DEF"/>
</g>
<defs>
<clipPath id="clip0">
<rect width="24" height="24" fill="white" transform="translate(14 14)"/>
</clipPath>
</defs>
</svg>
