<svg width="73" height="61" viewBox="0 0 73 61" fill="none" xmlns="http://www.w3.org/2000/svg">
<path fill-rule="evenodd" clip-rule="evenodd" d="M34.8579 0.0197965C28.6101 0.382854 22.7994 2.4847 17.867 6.1657C15.9705 7.58099 14.2087 9.25114 12.6511 11.1101C10.2528 13.9725 8.3601 17.3736 7.15963 20.9782C6.37159 23.3443 5.90694 25.6713 5.68753 28.3504C5.62391 29.1273 5.62424 31.7916 5.68808 32.6464C5.75721 33.5722 5.68932 34.1932 5.43429 34.9689C5.0452 36.1522 4.23854 37.1908 3.1801 37.8713C2.98687 37.9955 2.19233 38.417 1.41439 38.808L0 39.5189V42.6367V45.7546L0.136877 45.686C0.71946 45.394 9.79106 40.8248 10.4209 40.5061C10.8625 40.2826 11.7249 39.8478 12.3371 39.5399C15.7692 37.8139 21.2124 35.0745 22.0645 34.6443C22.6065 34.3706 24.7993 33.2669 26.9373 32.1916C29.0753 31.1163 31.2352 30.0292 31.7371 29.7759C32.9572 29.1601 34.1785 28.5452 37.6137 26.8173C39.1996 26.0196 40.9407 25.143 41.4827 24.8693C42.4456 24.3832 54.3787 18.3771 61.2477 14.9212C63.1448 13.9667 66.5613 12.2471 68.8398 11.0998L72.9826 9.01375L72.992 5.90511C72.9971 4.19535 72.9903 2.79647 72.977 2.79647C72.9636 2.79647 72.4255 3.06243 71.7813 3.38751C67.6071 5.4939 57.3359 10.6656 43.837 17.4579C40.5748 19.0993 36.1564 21.3227 34.0184 22.3987C31.8804 23.4747 28.2586 25.2975 25.9701 26.4493C23.6815 27.6011 19.4848 29.7128 16.6442 31.1421L11.4794 33.7408L11.4542 33.6425C11.4142 33.4859 11.3189 32.4481 11.2796 31.7408C11.1705 29.7765 11.3303 27.6455 11.7379 25.6273C13.0127 19.3154 16.7098 13.7287 22.0463 10.0506C28.4594 5.63042 36.5242 4.38114 43.9881 6.65171C45.3254 7.05852 46.5076 7.53162 47.8816 8.2098L48.8784 8.7018L51.732 7.26522C53.3014 6.47512 54.5902 5.81479 54.596 5.79784C54.6195 5.72812 52.9137 4.62081 51.8306 4.00282C51.2411 3.66642 49.6726 2.87773 49.1113 2.63546C45.6909 1.15903 42.4055 0.345199 38.6905 0.054097C38.0415 0.00324159 35.5297 -0.0192287 34.8579 0.0197965ZM66.23 18.6436C62.5161 20.5134 53.8682 24.8642 47.0126 28.3121C40.1569 31.7599 34.1699 34.772 33.7081 35.0056C33.2464 35.2393 28.7623 37.4956 23.7435 40.0196C18.7247 42.5437 13.5508 45.1473 12.2459 45.8055C10.941 46.4637 7.65188 48.1204 4.93668 49.4872L0 51.9722V55.0847V58.1972L0.337629 58.0299C0.66084 57.8698 3.31413 56.5347 5.23781 55.5643C6.21566 55.071 6.74842 54.8029 11.1509 52.588C12.7168 51.8002 14.466 50.92 15.0382 50.6319C15.6103 50.3438 16.5137 49.8889 17.0457 49.6211C17.5777 49.3532 18.4072 48.9354 18.889 48.6926C19.3708 48.4498 20.2742 47.9953 20.8965 47.6828C21.5188 47.3702 22.4058 46.9237 22.8675 46.6908C24.6034 45.8149 25.9347 45.1447 34.4017 40.8839C39.1796 38.4796 43.5158 36.2967 44.0378 36.033C44.5597 35.7693 46.7525 34.6657 48.9106 33.5804C51.0687 32.4952 53.13 31.4571 53.4914 31.2735C55.6144 30.1954 61.5043 27.2438 61.5288 27.2457C61.5692 27.2488 61.6707 28.1723 61.7243 29.0252C61.7798 29.9064 61.7498 31.9423 61.6697 32.7327C61.4114 35.2842 60.8496 37.5749 59.9302 39.8264C58.1962 44.0725 55.3246 47.7517 51.5934 50.5079C48.068 53.1121 43.8172 54.7841 39.4387 55.2889C38.3219 55.4176 37.9216 55.4372 36.4457 55.4357C34.8451 55.434 34.2757 55.3982 32.9964 55.219C30.1656 54.8226 27.6482 54.0398 25.0383 52.7446L24.1066 52.2822L22.027 53.3307C20.8833 53.9074 19.5885 54.558 19.1497 54.7766L18.3519 55.1739L18.5292 55.3004C18.6267 55.3699 18.9992 55.6208 19.3569 55.858C25.1428 59.6939 32.2571 61.4967 39.1832 60.8819C49.4143 59.9738 58.4045 54.2385 63.4346 45.4106C65.6129 41.5877 66.9013 37.3917 67.2942 32.8409C67.375 31.9047 67.3857 29.3344 67.313 28.3266C67.2754 27.8055 67.2736 27.5613 67.3053 27.2446C67.4781 25.519 68.3736 24.0407 69.8112 23.1077C70.0142 22.976 70.8145 22.5516 71.5897 22.1648L72.9991 21.4615L72.9999 18.3507C73.0005 16.6397 72.9968 15.2408 72.9917 15.2419C72.9867 15.243 69.944 16.7738 66.23 18.6436Z" fill="#242259"/>
</svg>
