<svg width="49" height="61" viewBox="0 0 49 61" fill="none" xmlns="http://www.w3.org/2000/svg">
<path fill-rule="evenodd" clip-rule="evenodd" d="M16.1659 0.565918C16.0989 0.877113 14.4901 8.47686 12.5909 17.4541C10.6916 26.4313 9.07065 33.9035 8.98864 34.0588C8.90675 34.2142 7.21132 35.4473 5.22094 36.7991L1.60228 39.2568L0.770815 43.8225C0.313531 46.3338 -0.0322699 48.4164 0.00239482 48.4504C0.0370595 48.4846 1.60482 47.4682 3.48625 46.1917C5.36781 44.9152 6.91866 43.8806 6.93267 43.8924C6.94668 43.9042 6.14505 47.7435 5.15112 52.4241C4.1572 57.1048 3.34409 60.9491 3.34409 60.9672C3.34409 60.9852 13.1003 61 25.0246 61C36.9489 61 46.7051 60.9564 46.7051 60.9031C46.7051 60.85 47.2215 58.3511 47.8526 55.3502C48.4837 52.3493 49 49.8194 49 49.7282C49 49.5875 46.7526 49.5625 34.1437 49.5625C25.9728 49.5625 19.289 49.5224 19.2909 49.4731C19.2929 49.4239 20.0706 45.7381 21.0193 41.2822L22.7442 33.1807L31.5526 27.2203L40.361 21.2599L41.3695 16.5181C41.9243 13.91 42.3497 11.7481 42.3149 11.7137C42.28 11.6794 38.3483 14.3035 33.5777 17.5452C28.807 20.7869 24.8887 23.427 24.8704 23.412C24.8519 23.397 25.9525 18.145 27.3162 11.7408C28.6799 5.33667 29.7955 0.0750586 29.7955 0.0483711C29.7955 0.0218027 26.7563 0 23.0417 0H16.2879L16.1659 0.565918Z" fill="#242259"/>
</svg>
