<svg width="61" height="61" viewBox="0 0 61 61" fill="none" xmlns="http://www.w3.org/2000/svg">
<path fill-rule="evenodd" clip-rule="evenodd" d="M27.8792 0.0653076C25.4043 0.289182 22.3184 0.973567 20.0849 1.79368C18.2012 2.48546 15.4491 3.89037 13.6993 5.0534C3.43679 11.8747 -1.71898 24.0178 0.51448 36.1067C1.83396 43.2481 5.68707 49.7197 11.3633 54.3283C15.0437 57.3163 19.7515 59.5402 24.383 60.4789C26.7094 60.9504 28.0335 61.0453 31.4131 60.9828C34.1105 60.933 34.733 60.8845 36.1311 60.6159C39.1058 60.0444 41.7247 59.1596 44.3341 57.8448C50.2615 54.8578 55.1348 49.9362 58.0167 44.026C59.3347 41.3234 60.1597 38.8307 60.7237 35.8465C60.9849 34.4657 61.0051 34.0694 60.9992 30.4793C60.993 26.7795 60.9782 26.5296 60.6754 24.9928C59.8371 20.7394 58.3408 17.0571 56.0687 13.6558C51.1411 6.27964 43.5694 1.50516 34.7954 0.241592C33.2781 0.0230852 29.4306 -0.0749567 27.8792 0.0653076ZM34.9737 14.3583C41.8567 15.7933 45.8323 19.8464 47.0427 26.6626C47.4927 29.1964 47.4079 33.2515 46.8506 35.8465C45.5525 41.8921 41.4768 45.771 35.314 46.8263C34.0843 47.0368 33.3524 47.0581 27.3506 47.0581H20.7411V39.7229V32.3876H18.7726H16.8041V30.5389V28.6902H18.7726H20.7411V21.3476V14.0049L27.2133 14.0472C33.3757 14.0877 33.7471 14.1026 34.9737 14.3583ZM26.9448 24.3843V28.6902H30.4046H33.8644V30.5389V32.3876H30.4046H26.9448V36.695V41.0026L30.1958 40.9429C33.002 40.8914 33.5855 40.8481 34.4609 40.6263C37.7715 39.7873 39.92 37.6598 40.7938 34.3556C41.1147 33.1423 41.2347 30.2973 41.0304 28.7491C40.5639 25.2151 38.7603 22.5849 35.8328 21.1698C34.1377 20.3506 33.2632 20.198 29.8976 20.1343L26.9448 20.0785V24.3843Z" fill="#242259"/>
</svg>
