<svg width="61" height="61" viewBox="0 0 61 61" fill="none" xmlns="http://www.w3.org/2000/svg">
<path fill-rule="evenodd" clip-rule="evenodd" d="M25.8528 0.447694C19.2421 1.46044 13.295 4.59252 8.56646 9.55201C3.15456 15.2285 0.569422 21.0883 0.0703252 28.8127C-0.507491 37.7456 2.47835 45.5868 8.91687 52.0468C15.0421 58.192 21.8163 60.988 30.6076 61C48.2023 61.024 62.0322 46.3485 60.9394 28.8127C60.4294 20.6256 57.2561 14.0013 51.0827 8.23752C47.0002 4.42554 42.0683 1.9117 36.3989 0.753809C31.9021 -0.16508 30.1791 -0.215281 25.8528 0.447694ZM24.472 19.5414C27.9197 23.1776 29.4886 24.4572 30.4994 24.4583C31.5102 24.4589 33.0867 23.1782 36.5525 19.5425L41.239 14.6255H44.6666H48.0941L45.8982 17.2174C44.6901 18.6427 41.7764 21.819 39.4236 24.2755C34.5026 29.4134 32.2657 30.4207 28.2045 29.3294C25.8271 28.6904 23.482 26.5465 16.2437 18.3971L12.8938 14.6255H16.3525H19.8106L24.472 19.5414ZM34.1423 32.4386C35.1843 32.9318 38.7714 36.3084 42.1137 39.9414L48.1908 46.5466L44.6753 46.7135C41.3976 46.869 41.0717 46.7768 39.868 45.3494C39.1584 44.5074 37.0997 42.2839 35.2941 40.4079C32.7172 37.7309 31.6632 36.9975 30.3934 36.9975C28.6905 36.9975 28.315 37.3124 22.7385 43.4123L19.6242 46.8194H16.3153C14.4955 46.8194 13.0064 46.6672 13.0064 46.4811C13.0064 45.6326 25.4877 32.934 26.9461 32.2983C29.1978 31.3172 31.8852 31.3691 34.1423 32.4386Z" fill="#242259"/>
</svg>
