<svg width="66" height="61" viewBox="0 0 66 61" fill="none" xmlns="http://www.w3.org/2000/svg">
<path fill-rule="evenodd" clip-rule="evenodd" d="M31.7721 0.634144C31.0632 1.344 30.9449 2.22959 31.4603 2.96657C32.4901 4.43857 34.8219 3.65821 34.8219 1.84169C34.8219 1.08301 33.7389 0 32.9804 0C32.6337 0 32.1538 0.251879 31.7721 0.634144ZM47.9718 1.97663C47.4733 2.26691 47.1645 3.07288 47.3214 3.67361C47.4975 4.34854 48.5206 4.82583 49.2199 4.55963C50.3582 4.12617 50.5003 2.47301 49.4411 1.98965C48.7658 1.68158 48.4824 1.67919 47.9718 1.97663ZM16.1149 2.34935C15.6086 2.90951 15.6701 3.74824 16.2577 4.30124C17.2483 5.23283 18.5729 4.65162 18.5729 3.28527C18.5729 2.83857 18.4559 2.35607 18.3129 2.21289C17.9082 1.80763 16.527 1.89354 16.1149 2.34935ZM19.8895 8.80577C19.3164 9.28848 19.2228 9.51281 19.2228 10.4034C19.2228 11.827 19.9528 12.5831 21.3272 12.5831C22.6596 12.5831 23.5559 11.7107 23.5559 10.4136C23.5559 8.4862 21.3939 7.53813 19.8895 8.80577ZM43.0381 8.87823C41.7116 10.2068 42.4804 12.3056 44.3721 12.5193C45.2031 12.613 45.4512 12.5438 46.028 12.0581C47.1335 11.1265 47.1615 9.75297 46.0966 8.68667C45.3875 7.97659 43.8419 8.07335 43.0381 8.87823ZM31.6133 10.4064C30.9258 10.8382 30.2722 11.9594 30.2722 12.7061C30.2722 13.3676 30.9272 14.4449 31.5548 14.8164C32.9446 15.6384 34.7249 15.0858 35.3811 13.6288C36.4139 11.3354 33.7547 9.06112 31.6133 10.4064ZM7.54323 14.5571C6.80119 14.8513 6.45498 15.3945 6.44718 16.2771C6.43829 17.2525 6.91536 17.9339 7.7328 18.1136C9.0767 18.4093 10.3077 17.1716 10.0118 15.8224C9.7921 14.8207 8.52121 14.1694 7.54323 14.5571ZM56.5645 14.8329C55.3036 15.9189 56.108 18.0068 57.7873 18.0068C59.4451 18.0068 60.2552 15.9055 59.0105 14.8333C58.2483 14.1768 57.3265 14.1766 56.5645 14.8329ZM26.8183 17.1586C23.1189 17.8849 22.0827 23.1765 25.2463 25.1855C27.0709 26.3442 29.0975 26.2385 30.6134 24.9058C32.1762 23.5319 32.6498 21.4472 31.8113 19.6339C31.2482 18.416 30.3569 17.669 28.987 17.2672C28.3399 17.0774 27.8036 16.9327 27.7954 16.9459C27.7874 16.959 27.3476 17.0546 26.8183 17.1586ZM37.3135 17.146C35.731 17.4807 34.5104 18.5841 33.9852 20.1544C33.1721 22.5866 34.7021 25.2508 37.2385 25.8192C39.2291 26.2652 41.1639 25.3898 42.1958 23.5761C42.5858 22.8908 42.654 22.4877 42.5853 21.2717C42.4523 18.913 41.2306 17.5187 38.9906 17.1687C38.4258 17.0805 37.6709 17.0703 37.3135 17.146ZM16.6951 19.115C15.6292 19.4205 14.8898 20.4501 14.8898 21.6286C14.8898 22.4838 15.0009 22.725 15.7308 23.4562C16.673 24.3995 17.4617 24.5379 18.658 23.9695C20.1137 23.2776 20.5698 21.2151 19.5383 19.9876C19.0385 19.3927 18.676 19.1948 17.7063 18.9877C17.5275 18.9495 17.0725 19.0067 16.6951 19.115ZM47.3944 19.1521C46.6411 19.5339 45.8713 20.7643 45.8713 21.5865C45.8713 23.2535 47.7068 24.5847 49.286 24.0628C50.8745 23.5377 51.5364 22.003 50.8481 20.4401C50.2525 19.0872 48.68 18.5008 47.3944 19.1521ZM42.7298 26.168C42.4915 26.2229 42.0747 26.3153 41.8036 26.3733C40.8482 26.5779 39.6091 27.9566 39.241 29.2249C38.3991 32.1248 40.1872 34.6998 43.1753 34.8905C44.9286 35.0022 46.2028 34.4362 47.0928 33.1499C47.6513 32.3429 47.7129 32.0786 47.7129 30.4832C47.7129 28.8886 47.6539 28.6348 47.1216 27.936C46.7966 27.509 46.2117 26.9638 45.8217 26.7245C45.0944 26.2776 43.5002 25.9906 42.7298 26.168ZM20.6311 26.5484C16.9909 28.2455 17.5072 33.8316 21.3978 34.8421C26.1421 36.0744 29.067 30.092 25.2192 27.0263C24.4953 26.4496 24.1942 26.3585 22.836 26.3058C21.8409 26.267 21.0471 26.3544 20.6311 26.5484ZM55.2113 28.5063C54.5368 28.8806 54.1215 29.6527 54.1118 30.55C54.1018 31.4928 54.4077 32.0302 55.1831 32.4318C56.1656 32.9406 57.0023 32.8427 57.7643 32.13C58.3088 31.6209 58.4373 31.328 58.4373 30.5971C58.4373 29.4685 58.1662 28.9496 57.3583 28.5311C56.5883 28.1325 55.8992 28.1245 55.2113 28.5063ZM8.15679 29.0546C7.10364 30.1091 7.45223 31.9409 8.84293 32.6609C9.67684 33.0929 10.5569 32.9169 11.3035 32.1693C12.2953 31.1761 12.3049 30.0527 11.3306 29.0001C10.8981 28.5328 10.5998 28.4204 9.7921 28.4204C8.97358 28.4204 8.67416 28.5365 8.15679 29.0546ZM64.0763 29.1081C63.3943 29.365 63.211 29.6624 63.2069 30.5203C63.2028 31.3798 63.6924 31.8916 64.519 31.8916C65.6048 31.8916 66.2821 30.875 65.8856 29.8403C65.667 29.2702 64.6929 28.876 64.0763 29.1081ZM0.417902 29.5607C0.29376 29.7104 0.126282 30.0961 0.0456866 30.4174C-0.0689235 30.8741 0.01991 31.123 0.451702 31.5553C1.1385 32.2431 1.8879 32.2619 2.50276 31.6065C3.43958 30.6079 2.85245 29.2882 1.4715 29.2882C1.01609 29.2882 0.542045 29.4108 0.417902 29.5607ZM26.3369 35.4359C24.3705 36.1712 23.2156 37.9888 23.3884 40.0754C23.6874 43.685 28.1635 45.3566 30.889 42.8764C32.8742 41.0701 32.6002 37.5338 30.3521 35.9481C29.3072 35.2109 27.5406 34.9857 26.3369 35.4359ZM36.5617 35.4893C33.7822 36.6966 32.9221 40.2138 34.8646 42.4293C37.2142 45.1091 41.4234 44.289 42.5359 40.9349C43.698 37.4312 39.9521 34.0168 36.5617 35.4893ZM16.5147 37.1858C15.548 37.613 15.0663 38.2723 14.9606 39.3132C14.7728 41.1612 16.4492 42.6211 18.1673 42.1056C20.4443 41.4224 20.82 38.3526 18.7555 37.298C17.8055 36.8127 17.404 36.7925 16.5147 37.1858ZM46.8645 37.5792C45.5803 38.865 45.5717 40.096 46.8374 41.3634C47.7868 42.3141 49.1671 42.3865 50.1734 41.5387C52.0824 39.9302 51.2006 37.1722 48.7002 36.9318C47.6893 36.8344 47.564 36.8786 46.8645 37.5792ZM56.5859 43.4887C55.8235 44.2519 55.8426 45.5783 56.6249 46.1944C57.6159 46.9752 58.9044 46.7199 59.4852 45.628C59.8914 44.8639 59.7799 44.2671 59.1039 43.5902C58.2958 42.781 57.3312 42.7421 56.5859 43.4887ZM6.97212 43.7056C6.22662 44.4519 6.2654 45.4178 7.07352 46.227C8.3286 47.4838 10.1234 46.6323 10.1234 44.7799C10.1234 43.9653 9.21537 43.173 8.2818 43.173C7.74472 43.173 7.33914 43.3379 6.97212 43.7056ZM32.0776 46.0144C30.3688 46.5099 29.6881 48.736 30.8299 50.0948C31.5682 50.9736 32.8287 51.3607 33.7317 50.986C36.0183 50.0377 36.071 47.0182 33.8175 46.0756C33.0153 45.7399 33.0237 45.7402 32.0776 46.0144ZM20.6068 48.5924C19.8275 48.9076 19.2228 49.8796 19.2228 50.817C19.2228 52.6684 21.4284 53.605 22.8893 52.374C23.4617 51.8918 23.5559 51.6666 23.5559 50.7801C23.5559 49.6292 23.1382 48.9738 22.1696 48.605C21.4795 48.3425 21.2297 48.3403 20.6068 48.5924ZM43.8131 48.5748C42.9651 48.9421 42.5132 49.6804 42.5132 50.6983C42.5132 51.5212 42.6213 51.7664 43.2208 52.3027C45.3199 54.181 48.2406 51.3338 46.3588 49.2435C45.7225 48.5366 44.5887 48.2388 43.8131 48.5748ZM16.1931 56.9942C15.4596 57.928 15.8909 59.0457 17.0996 59.3422C17.5546 59.454 17.807 59.3631 18.2371 58.9324C18.9239 58.2447 18.9427 57.4943 18.2882 56.8786C17.5942 56.226 16.7606 56.272 16.1931 56.9942ZM47.834 56.828C46.9253 57.7379 47.5205 59.2273 48.7929 59.2273C50.0807 59.2273 50.764 58.057 50.0434 57.086C49.4879 56.3377 48.4452 56.216 47.834 56.828ZM32.1138 57.5164C31.4047 57.9193 31.1388 58.3948 31.1388 59.2602C31.1388 60.6008 32.4485 61.3618 33.8372 60.8281C34.3826 60.6186 34.8679 59.4969 34.7151 58.8001C34.4677 57.672 33.0612 56.9779 32.1138 57.5164Z" fill="#242259"/>
</svg>
