<svg width="37" height="61" viewBox="0 0 37 61" fill="none" xmlns="http://www.w3.org/2000/svg">
<path fill-rule="evenodd" clip-rule="evenodd" d="M9.24113 15.5451C4.15851 24.095 0 31.1023 0 31.1168C0 31.1314 2.53392 32.7072 5.63093 34.6184C8.72794 36.5297 12.8834 39.0942 14.8652 40.3172C16.8471 41.5402 18.4845 42.5409 18.504 42.5409C18.5346 42.5409 36.9234 31.2127 36.9999 31.1467C37.0155 31.1332 35.7396 28.9551 34.1646 26.3063C32.5896 23.6575 28.4266 16.655 24.9136 10.7452C21.4004 4.8353 18.5162 0 18.5042 0C18.4921 0 14.3237 6.99532 9.24113 15.5451ZM0.0185228 34.8587C0.0185228 34.8702 2.36354 38.1987 5.22969 42.2554C8.09583 46.312 11.5243 51.1645 12.8486 53.0387C14.1728 54.913 15.9814 57.4733 16.8677 58.7285C17.7539 59.9836 18.4934 61.0058 18.5109 61C18.548 60.9878 36.999 34.8796 36.9823 34.863C36.9761 34.8569 32.816 37.4163 27.7376 40.5505L18.5043 46.2491L9.34475 40.5968C4.30703 37.488 0.147738 34.9204 0.101875 34.8911C0.0560129 34.8618 0.0185228 34.8472 0.0185228 34.8587Z" fill="#242259"/>
</svg>
