<svg width="46" height="61" viewBox="0 0 46 61" fill="none" xmlns="http://www.w3.org/2000/svg">
<path fill-rule="evenodd" clip-rule="evenodd" d="M22.2979 0.0201491C18.4077 0.202914 14.6896 1.32115 11.3285 3.31918C10.7758 3.64773 9.93415 4.2106 9.39164 4.61445C8.42039 5.33746 7.77939 5.8915 6.86061 6.8022C5.94895 7.70585 5.35571 8.38023 4.65227 9.3126C3.409 10.9605 2.37674 12.7946 1.61644 14.7064C-0.148443 19.1445 -0.476579 24.0161 0.673715 28.7032C0.863019 29.4745 1.15725 30.4626 1.29405 30.7864C1.37087 30.9683 1.46466 31.1357 1.60708 31.3452C2.387 32.4927 3.8859 33.0367 5.24006 32.6636C5.58136 32.5696 6.07908 32.2714 6.40457 31.9659C6.72272 31.6674 6.95252 31.3534 7.13444 30.9687C7.37166 30.4672 7.43619 30.1702 7.43665 29.5776C7.43706 29.0381 7.42013 28.9478 7.18403 28.2319C6.65749 26.635 6.42864 25.314 6.39779 23.693C6.34287 20.8094 6.91868 18.22 8.16354 15.7521C9.34038 13.4191 11.0286 11.4173 13.1421 9.84876C16.9878 6.99468 21.8365 5.91739 26.5767 6.86385C30.48 7.6432 34.0197 9.82474 36.4892 12.973C38.4277 15.4444 39.6178 18.3855 39.9408 21.5034C40.0581 22.6358 40.0449 24.0717 39.907 25.1982C39.576 27.9004 38.5896 30.4681 37.0205 32.7116C34.8965 35.7483 31.7442 38.0396 28.2005 39.1224C26.8553 39.5335 25.6284 39.7508 24.0807 39.8523C21.653 40.0115 19.9439 40.1532 19.2454 40.2531C18.641 40.3396 17.6237 40.5491 17.5343 40.6054C17.444 40.6623 17.3218 40.657 17.2528 40.5932C17.1986 40.5432 17.1845 40.4197 17.2249 40.3486C17.2372 40.3268 17.3612 39.688 17.5005 38.9291C17.739 37.6285 17.8431 37.151 19.3105 30.6268L20.8674 23.7044L20.8695 23.2482C20.8712 22.8869 20.863 22.7532 20.8301 22.6051C20.5359 21.2803 19.5484 20.3339 18.2149 20.0986C17.9493 20.0518 17.4535 20.053 17.1668 20.1012C16.3705 20.2352 15.6251 20.6831 15.1425 21.3176C14.9616 21.5554 14.7166 22.0356 14.6402 22.3019C14.581 22.5085 14.3748 23.4512 12.268 33.1471C9.21835 47.182 7.76683 53.9131 7.31758 56.1039C7.20612 56.6473 7.18746 56.7759 7.17789 57.066C7.14888 57.9448 7.47603 58.7426 8.11413 59.3491C8.556 59.7691 9.12752 60.0653 9.59941 60.119C9.70063 60.1305 9.86627 60.1552 9.96749 60.1739C10.2152 60.2196 10.7199 60.219 10.9929 60.1726C11.9429 60.0112 12.7568 59.4198 13.1962 58.5716C13.3315 58.3105 13.4575 57.9561 13.4568 57.8386C13.4565 57.794 13.5273 57.4188 13.614 57.0048C13.7007 56.5909 13.9387 55.4474 14.1429 54.4638C14.347 53.4802 14.5439 52.5614 14.5804 52.422C15.1915 50.0886 16.8348 48.1169 19.0313 47.0817C19.8339 46.7034 20.6616 46.4589 21.4927 46.3547C21.9589 46.2963 22.9441 46.2133 24.3568 46.1137C25.3318 46.0448 26.0065 45.9636 26.8413 45.8146C31.0928 45.0557 34.9621 43.1843 38.2285 40.3073C38.6591 39.928 39.6559 38.9413 40.0307 38.5233C41.5249 36.8567 42.683 35.1502 43.6482 33.1927C45.7751 28.8793 46.4785 24.064 45.6803 19.2795C45.0177 15.3077 43.2811 11.5219 40.698 8.41846C40.1545 7.76547 39.8723 7.46034 39.1504 6.74488C38.2742 5.87661 37.6016 5.29398 36.6987 4.62141C33.3293 2.11135 29.3776 0.565661 25.1965 0.122309C24.0819 0.00413746 23.2574 -0.0249206 22.2979 0.0201491ZM23.5056 53.2328C22.5528 53.3414 21.6301 53.8166 21.0191 54.5136C20.4967 55.1096 20.1833 55.8054 20.0679 56.6251C19.9288 57.6141 20.19 58.6247 20.7952 59.4387C20.9684 59.6717 21.3426 60.0451 21.5733 60.2152C21.9948 60.526 22.5819 60.7966 22.9936 60.8697C23.0665 60.8827 23.2141 60.9094 23.3216 60.9291C24.1784 61.0862 24.9974 60.9818 25.7468 60.6198C26.3463 60.3302 26.8628 59.886 27.2328 59.3417C27.52 58.9191 27.7515 58.3563 27.7852 57.9987C27.8626 57.178 27.8625 57.1802 27.8347 56.8624C27.7737 56.1641 27.5525 55.5352 27.167 54.9635C26.3457 53.7455 24.92 53.0717 23.5056 53.2328Z" fill="#242259"/>
</svg>
