<svg width="53" height="61" viewBox="0 0 53 61" fill="none" xmlns="http://www.w3.org/2000/svg">
<path fill-rule="evenodd" clip-rule="evenodd" d="M0.00642835 0.0156687C0.0391734 0.0809849 1.03518 1.31019 2.40324 2.97369C8.32442 10.1735 17.4091 21.2901 19.6373 24.0623C20.4599 25.0858 20.5091 25.168 20.5085 25.5186C20.5082 25.715 20.4981 25.7642 20.4329 25.8885C20.2289 26.2777 19.7762 26.5807 19.06 26.8073C18.0561 27.125 17.4373 27.0719 16.7624 26.61C16.5665 26.476 16.4243 26.3346 16.2349 26.0855C15.6647 25.3355 14.1045 22.9764 11.736 19.2828C10.2973 17.0391 8.30885 13.9741 8.25357 13.9148C8.24083 13.9011 8.22341 13.8969 8.21491 13.9054C8.17723 13.9431 8.38562 14.3211 12.2296 21.1882C13.6917 23.8001 14.4062 25.1169 14.8589 26.0335C15.1022 26.5263 15.1477 26.6386 15.1572 26.7694C15.1792 27.0739 15.0329 27.3672 14.6233 27.8394C14.0972 28.4459 13.8944 28.7628 13.6608 29.3439C13.3967 30.0009 13.234 30.7154 13.0421 32.0609C12.8077 33.7044 12.5681 34.518 11.963 35.7251C11.4311 36.786 10.7188 37.82 9.28256 39.6158C8.00417 41.2144 7.83874 41.4521 7.44105 42.2622C6.96836 43.2251 6.85308 43.7442 6.8241 45.0407C6.80282 45.9914 6.86623 46.5172 7.10869 47.401C7.43023 48.5729 7.74573 49.2435 8.59902 50.5685C9.07156 51.3023 9.43072 51.9111 9.62865 52.314C9.8259 52.7154 9.88253 52.8705 9.90589 53.0731C9.93437 53.3202 9.99621 53.3246 10.854 53.14C11.7868 52.9394 12.9413 52.5923 13.7759 52.2617C14.6074 51.9323 15.6391 51.3881 16.2291 50.9677C17.0898 50.3545 17.7859 49.5889 18.031 48.9861C18.1733 48.6362 18.2115 48.3507 18.2113 47.6371C18.2111 46.8797 18.1887 46.7564 17.9667 46.2937C17.6636 45.6618 17.1362 45.1453 15.9358 44.3048C14.087 43.0104 13.4506 42.2269 13.1983 40.9349C13.1333 40.6016 13.1325 39.8766 13.1969 39.5576C13.3104 38.9955 13.5675 38.3315 14.1721 37.0387C15.1702 34.9046 15.3645 34.2147 15.536 32.1941C15.6514 30.8345 15.7513 30.4071 16.0525 29.9855C16.2687 29.683 16.5795 29.439 16.9038 29.3171C17.1171 29.237 17.4751 29.161 17.9757 29.0894C19.4524 28.8785 20.3897 28.5177 21.1772 27.8573C21.9183 27.2357 22.2865 26.627 22.3984 25.8384C22.4202 25.6845 22.4462 25.3581 22.4562 25.113L22.4744 24.6675L22.1172 24.2736C21.9207 24.0569 21.4369 23.5199 21.0419 23.0802C17.2638 18.8739 3.46546 3.71911 0.857347 0.911442C-0.0287163 -0.0424257 -0.0159706 -0.0290214 0.00642835 0.0156687ZM20.4022 13.7028C20.3582 13.7092 20.2924 13.7211 20.2559 13.7292C20.145 13.7539 20.2392 13.7831 20.6289 13.8445C22.9658 14.213 24.5922 14.9558 26.321 16.4439C27.4212 17.3911 28.3815 18.4837 30.081 20.7218C32.425 23.8089 33.678 25.0624 35.2451 25.888C36.0219 26.2972 37.1787 26.7063 38.2295 26.9435C39.3039 27.1859 40.6259 27.3395 42.7078 27.4638C45.8204 27.6495 46.7944 27.8515 47.8142 28.5223C48.4398 28.9339 48.8118 29.3202 49.3848 30.1536C49.5875 30.4485 49.6674 30.5465 49.667 30.5C49.6663 30.3833 49.5653 29.7214 49.5068 29.4493C49.4333 29.1079 49.1819 28.3447 49.002 27.9168C48.4719 26.6562 47.6085 25.2679 46.7175 24.2432C46.5727 24.0767 46.4169 23.8973 46.3712 23.8445C46.2965 23.7582 46.2866 23.7538 46.2727 23.8008C46.2642 23.8295 46.1968 24.1005 46.1229 24.4029C45.901 25.3111 45.6539 25.9335 45.3103 26.4493C44.8166 27.1903 44.3128 27.4279 43.7828 27.1696C43.5429 27.0526 43.3927 26.8748 43.3082 26.6073C43.2713 26.4907 43.2411 26.3595 43.2411 26.3158C43.2411 26.1992 43.3266 25.9667 43.4798 25.6669C43.799 25.0423 43.9317 24.3376 43.8992 23.44C43.8738 22.739 43.7311 21.7881 43.6066 21.4903C43.5587 21.3757 43.3937 21.2539 42.8278 20.9153C41.7509 20.271 40.8355 19.8479 39.6974 19.4684C37.3725 18.6931 34.7585 18.4296 32.1883 18.7115C31.983 18.7341 31.4987 18.8006 31.1121 18.8593C30.7255 18.918 30.406 18.9623 30.4021 18.9578C30.3982 18.9533 30.2721 18.8057 30.1221 18.6299C29.2068 17.5573 28.1111 16.5087 27.1752 15.8099C25.2748 14.391 23.3783 13.7313 21.1089 13.6998C20.7642 13.695 20.4462 13.6963 20.4022 13.7028ZM45.0238 14.7015C44.9525 14.8109 44.6894 15.3993 44.6049 15.6386C44.4252 16.1473 44.3043 16.8254 44.2544 17.6039C44.1705 18.9125 44.1379 19.0418 43.9018 19.0019C43.7448 18.9754 43.2703 18.811 42.6945 18.5835C41.781 18.2226 40.1425 17.7256 40.0109 17.7695C39.9944 17.775 40.1714 17.8687 40.4044 17.9778C42.2732 18.853 43.3773 19.4986 43.9102 20.0279C44.4605 20.5744 44.691 21.1494 44.7865 22.2141C44.833 22.7318 44.8497 23.9729 44.8177 24.5326C44.7848 25.1096 44.7593 25.2429 44.6024 25.6568C44.543 25.8134 44.4944 25.9543 44.4944 25.9699C44.4944 26.0981 44.7063 25.7408 44.8971 25.2909C45.2388 24.485 45.3583 23.7898 45.4007 22.3607C45.4138 21.921 45.438 21.5154 45.4545 21.4594C45.4946 21.3236 45.6547 21.1482 45.7385 21.1482C45.774 21.1482 45.8536 21.1736 45.9154 21.2046C46.3676 21.4319 47.8109 22.5737 48.6409 23.3606C49.0009 23.702 49.0068 23.6975 48.7077 23.3111C48.2968 22.7802 47.384 21.7629 46.481 20.8294C45.2123 19.518 45.0461 19.2275 44.856 17.9903C44.6628 16.7327 44.6987 15.8663 44.9781 15.0456C45.0877 14.7236 45.1078 14.5728 45.0238 14.7015ZM20.1379 15.212C20.0529 15.7568 20.0394 16.7349 20.1087 17.3241C20.3473 19.353 21.18 21.4699 22.2732 22.8268C23.1459 23.9101 24.364 24.7866 25.442 25.1069C25.633 25.1636 25.7527 25.1804 26.0286 25.189C26.4484 25.2022 26.6077 25.161 26.6905 25.0181C26.7725 24.8764 26.7215 24.7443 26.3895 24.2394C25.8699 23.4492 25.4508 22.6652 25.2996 22.2008C25.1993 21.8927 25.0098 21.1258 24.843 20.3533C24.471 18.6299 24.1678 17.7666 23.6856 17.0576C23.4751 16.7481 23.0555 16.3298 22.7406 16.1155C22.1921 15.7423 21.2299 15.3465 20.5251 15.2043C20.3842 15.1759 20.2425 15.1464 20.2102 15.1389C20.1605 15.1273 20.1493 15.1386 20.1379 15.212ZM34.2135 26.996C34.1791 27.1789 34.2194 28.7403 34.2658 29.0229C34.6194 31.1776 35.8347 32.7089 38.3995 34.2312C39.5252 34.8994 40.853 35.5248 42.9745 36.3862C44.9979 37.2077 45.8849 37.5933 46.9369 38.1086C48.6006 38.9236 49.6795 39.6631 50.358 40.4536C50.926 41.1156 51.286 41.7737 51.4826 42.51C51.566 42.8222 51.6393 43.2906 51.6402 43.5168C51.6408 43.6763 51.6909 43.853 51.7355 43.853C51.8439 43.853 52.3211 42.8318 52.6268 41.9458C52.8603 41.269 52.9996 40.1411 53 38.9229C53.0003 38.0666 52.9454 37.6115 52.7476 36.831C51.9713 33.7672 49.7196 31.5233 46.2452 30.351C45.0096 29.9341 43.8191 29.6862 41.1479 29.2893C37.7563 28.7855 36.3449 28.3927 35.2185 27.6393C35.0625 27.5349 34.7909 27.3353 34.6149 27.1956C34.2056 26.8707 34.2343 26.8849 34.2135 26.996ZM23.7354 29.4893C23.1414 29.5786 22.5779 29.9771 22.1453 30.6137C22.0091 30.8141 21.8476 31.1563 21.7892 31.368C21.722 31.6116 21.7058 32.2412 21.7589 32.5453C21.8246 32.9223 21.8873 33.0614 22.0791 33.256C22.2683 33.4479 22.4571 33.549 22.7446 33.6126C22.9811 33.6649 23.8656 33.671 24.202 33.6226C25.2335 33.4743 26.0391 33.1303 26.495 32.6432C26.9266 32.1821 26.9842 31.6404 26.6701 30.9949C26.4233 30.4879 25.979 30.0274 25.4733 29.7549C25.0597 29.5319 24.2625 29.4101 23.7354 29.4893ZM24.6765 29.8511C25.0553 29.9286 25.3977 30.1489 25.5543 30.4159C25.6486 30.5767 25.6528 30.8074 25.5648 30.9892C25.3952 31.3393 24.7262 31.6514 24.2292 31.6123C23.7488 31.5746 23.2573 31.2932 23.0814 30.9554C23.0261 30.8493 23.041 30.602 23.1113 30.4562C23.3404 29.9812 24.0228 29.7174 24.6765 29.8511ZM37.8711 35.865C38.3222 37.1995 38.4271 38.5697 38.1618 39.6614C37.7147 41.5007 36.3299 42.8752 34.1952 43.5989C33.6815 43.773 32.7695 43.9678 31.5617 44.1613C30.5229 44.3277 29.0946 44.6161 28.3885 44.8019C27.5604 45.0199 27.0078 45.2317 26.2019 45.64C25.3782 46.0574 24.7911 46.4225 24.8497 46.4811C24.8597 46.4911 25.117 46.4194 25.4216 46.3218C26.9409 45.8349 28.0237 45.6639 30.6817 45.4913C31.6422 45.4288 32.9019 45.3224 33.2283 45.2761C35.0714 45.0146 36.4929 44.3981 37.534 43.4088C38.2385 42.7393 38.7526 41.9481 39.0537 41.0696C39.2069 40.6229 39.2397 40.3956 39.2582 39.6563C39.2766 38.9142 39.2418 38.3338 39.1617 38.0486C39.0104 37.5103 38.6772 36.7536 38.4144 36.3513C38.2935 36.1663 37.7835 35.5119 37.7602 35.5119C37.7555 35.5119 37.8055 35.6708 37.8711 35.865ZM40.6026 37.0548C40.4735 37.3078 40.3508 37.9222 40.3036 38.5524C40.2257 39.5937 40.4392 40.7853 40.9119 41.9476C41.2279 42.7244 41.657 43.4657 42.6241 44.9056C44.424 47.5851 44.589 47.8386 45.1218 48.743C45.4494 49.2993 45.8741 50.143 46.0337 50.5551C46.2889 51.214 46.4606 51.9147 46.5235 52.5549C46.5648 52.975 46.54 53.6895 46.4703 54.0861C46.3671 54.6737 46.1349 55.392 45.8918 55.876C45.7643 56.1298 45.6083 56.514 45.6256 56.5313C45.6692 56.5748 46.5466 56.1067 47.0435 55.7748C47.9021 55.2012 48.7469 54.3669 49.364 53.4829C49.9913 52.5841 50.5178 51.4271 50.8235 50.2753C50.9706 49.721 51.0484 48.9985 51.0719 47.9702C51.0957 46.9228 51.047 46.4707 50.8121 45.5614C50.2685 43.4565 49.0484 41.9168 46.6809 40.348C45.8821 39.8186 45.4199 39.5501 43.4011 38.443C42.2733 37.8244 41.6391 37.4641 41.2545 37.2232C40.7526 36.9087 40.686 36.8916 40.6026 37.0548ZM9.8664 44.1988C10.3322 44.275 10.7321 44.6475 10.8552 45.1197C10.9428 45.456 10.8902 45.8158 10.7088 46.1218C10.3785 46.6788 9.77006 46.8439 9.364 46.4867C9.20347 46.3455 9.16278 46.2612 9.16278 46.0698C9.16278 45.9312 9.18046 45.8777 9.30944 45.6263C9.3901 45.4691 9.4561 45.3065 9.4561 45.265C9.4561 45.1693 9.34795 45.0394 9.20939 44.9688C9.03871 44.8818 8.9761 44.7976 8.97623 44.6552C8.97639 44.4347 9.12926 44.2792 9.41362 44.2102C9.58468 44.1687 9.6698 44.1666 9.8664 44.1988ZM26.316 48.1182C25.0345 48.191 23.3829 48.6411 21.8288 49.341C20.1827 50.0823 18.4459 51.2113 17.3242 52.2693L16.966 52.6071L17.0708 52.6273C17.1285 52.6385 17.5417 52.7073 17.989 52.7804C19.3783 53.0072 20.1577 53.2161 20.8461 53.5459C21.7257 53.9673 22.2947 54.4192 23.6587 55.7799C25.0218 57.1399 25.3496 57.3803 26.2151 57.6555C26.6746 57.8015 26.9443 57.8467 27.3619 57.8475C28.112 57.8489 28.77 57.6139 29.315 57.1502C29.6973 56.8248 30.0356 56.2991 30.1498 55.8529C30.2606 55.4198 30.2605 54.6707 30.1496 54.2372C30.0137 53.7064 29.6078 53.2404 29.0418 52.9656C28.3761 52.6424 27.6717 52.6146 27.0862 52.8883C26.481 53.1713 26.1114 53.8723 26.2649 54.4459C26.376 54.8608 26.7174 55.1823 27.0904 55.2231C27.1981 55.2349 27.1943 55.2312 26.9781 55.1154C26.5728 54.8983 26.4388 54.7081 26.4202 54.3233C26.385 53.5944 26.9246 53.0885 27.7352 53.0906C28.044 53.0913 28.2613 53.1403 28.5403 53.272C29.062 53.5182 29.3606 53.8413 29.4718 54.2799C29.5431 54.5607 29.5371 55.0182 29.4586 55.2974C29.1919 56.2459 28.2732 56.8506 27.3298 56.6986C26.6586 56.5904 25.8883 56.1657 25.5092 55.6947C25.192 55.3008 25.0348 54.8888 25.0096 54.3862C24.9525 53.2464 25.6277 52.298 26.7591 51.9285C27.4655 51.6978 28.3455 51.7168 29.1351 51.9799C29.4101 52.0715 29.8772 52.305 30.1504 52.4875C31.3555 53.2924 31.9095 54.0666 32.9346 56.3779C33.3243 57.2565 33.7456 58.1269 33.9458 58.4669C34.5037 59.4141 35.3561 60.2379 36.1842 60.6299C36.7835 60.9136 37.2179 61.0021 38.0014 61C38.8791 60.9975 39.3904 60.8754 40.1577 60.4847C40.7097 60.2037 41.3381 59.8018 41.493 59.6307C41.5418 59.5769 41.5417 59.5758 41.4868 59.5758C41.456 59.5758 41.2412 59.6422 41.0094 59.7233C40.5126 59.8973 40.1215 60.0044 39.6813 60.0873C39.2392 60.1705 38.2127 60.1765 37.8414 60.098C37.353 59.9948 36.9179 59.8084 36.6063 59.5689C36.0676 59.1548 35.5825 58.3318 35.3338 57.4098C35.2736 57.187 35.1577 56.5286 34.9223 55.0721C34.5932 53.037 34.2062 51.9256 33.4535 50.8542C33.2414 50.5522 32.7789 50.0697 32.4416 49.7984C31.3835 48.9474 29.9404 48.3516 28.5352 48.1856C27.824 48.1016 27.0309 48.0776 26.316 48.1182Z" fill="#242259"/>
</svg>
