<svg width="44" height="60" viewBox="0 0 44 60" fill="none" xmlns="http://www.w3.org/2000/svg">
<path d="M35.4874 28.3044C38.6198 26.6975 40.5797 23.8676 40.1219 19.1532C39.5053 12.7104 33.9808 10.55 27.0068 9.93472L27.0055 0.998047H21.602L21.6005 9.6997C20.1788 9.6997 18.7295 9.72783 17.2868 9.75697L17.2856 0.999233L11.887 0.998725L11.886 9.93319C10.716 9.95725 9.56701 9.98013 8.44509 9.98013V9.95369L0.991943 9.95064L0.992952 15.7595C0.992952 15.7595 4.98332 15.684 4.91758 15.7573C7.10544 15.7589 7.81982 17.0382 8.02527 18.1424L8.02695 28.3232V42.6238C7.93061 43.3168 7.52526 44.4241 5.99545 44.4261C6.06506 44.4878 2.06477 44.4255 2.06477 44.4255L0.992952 50.9211H8.02359C9.33365 50.9226 10.6208 50.9431 11.8837 50.9533L11.8884 59.9911L17.2856 59.9927L17.2841 51.0496C18.769 51.0801 20.2023 51.0933 21.6023 51.0914L21.6008 59.9927H27.0041L27.0072 50.9699C36.0898 50.4446 42.4484 48.1407 43.239 39.5519C43.8762 32.6371 40.6441 29.5505 35.4874 28.3044ZM17.4159 16.1516C20.4634 16.1516 30.0478 15.1744 30.0491 21.5847C30.0478 27.7303 20.4665 27.0123 17.4159 27.0123V16.1516ZM17.4136 44.4702L17.4159 32.4952C21.0774 32.4942 32.5618 31.4343 32.5633 38.48C32.5648 45.2368 21.0774 44.4675 17.4136 44.4702Z" fill="#242259"/>
</svg>
