<svg width="73" height="82" viewBox="0 0 73 82" fill="none" xmlns="http://www.w3.org/2000/svg">
<path d="M59.2245 49.6732C55.4754 64.9166 54.2085 71.75 32.0002 71.75C9.79192 71.75 8.52526 64.9166 4.77608 49.6732C-0.455861 28.401 8.08358 23.9166 32.0002 23.9166C55.9168 23.9166 64.4565 28.401 59.2245 49.6732Z" stroke="#00FF75" stroke-width="6" stroke-linecap="round" stroke-linejoin="round"/>
<path d="M15.705 24.6676C16.1197 26.1191 17.6326 26.9596 19.0841 26.5449C20.5356 26.1302 21.3761 24.6173 20.9613 23.1658L15.705 24.6676ZM43.0384 23.1658C42.6236 24.6173 43.4641 26.1302 44.9155 26.5449C46.3673 26.9596 47.8798 26.1191 48.2946 24.6676L43.0384 23.1658ZM20.9613 23.1658C20.1863 20.4532 20.178 18.6158 20.48 17.3903C20.7631 16.2412 21.3583 15.4553 22.238 14.8463C24.2411 13.4596 27.7054 12.9834 31.9998 12.9834V7.51672C27.7526 7.51672 22.6753 7.89471 19.1263 10.3517C17.2299 11.6646 15.7965 13.548 15.172 16.0825C14.5664 18.5405 14.7717 21.4011 15.705 24.6676L20.9613 23.1658ZM31.9998 12.9834C36.2942 12.9834 39.7587 13.4596 41.7616 14.8463C42.6414 15.4553 43.2366 16.2412 43.5198 17.3903C43.8215 18.6158 43.8133 20.4532 43.0384 23.1658L48.2946 24.6676C49.228 21.4011 49.4334 18.5405 48.8276 16.0825C48.203 13.548 46.7697 11.6646 44.8735 10.3517C41.3243 7.89471 36.2471 7.51672 31.9998 7.51672V12.9834Z" fill="#00FF75"/>
<path fill-rule="evenodd" clip-rule="evenodd" d="M23.4583 41.0034C21.5713 41.0034 20.0416 39.4721 20.0416 37.5851C20.0416 35.698 21.5713 34.1666 23.4583 34.1666C25.3453 34.1666 26.875 35.698 26.875 37.5851C26.875 39.4721 25.3453 41.0034 23.4583 41.0034Z" fill="#00FF75"/>
<path fill-rule="evenodd" clip-rule="evenodd" d="M40.5417 41.0034C38.6546 41.0034 37.125 39.4721 37.125 37.5851C37.125 35.698 38.6546 34.1666 40.5417 34.1666C42.4287 34.1666 43.9583 35.698 43.9583 37.5851C43.9583 39.4721 42.4287 41.0034 40.5417 41.0034Z" fill="#00FF75"/>
</svg>
