<svg width="42" height="42" viewBox="0 0 42 42" fill="none" xmlns="http://www.w3.org/2000/svg">
<rect width="42" height="42" rx="10" fill="#00FF75"/>
<path d="M24.2 13.4594V11C24.2 10.5582 24.5581 10.2 25 10.2C25.4418 10.2 25.8 10.5582 25.8 11V13.9697C26.3056 14.2076 26.7492 14.5112 27.13 14.8945C27.5034 15.2703 27.7996 15.7059 28.0322 16.2H31C31.4418 16.2 31.7999 16.5582 31.7999 17C31.7999 17.4418 31.4418 17.8 31 17.8H28.5422C28.6876 18.52 28.7621 19.3207 28.7885 20.2H31C31.4418 20.2 31.7999 20.5582 31.7999 21C31.7999 21.4418 31.4418 21.8 31 21.8H28.7885C28.7621 22.6793 28.6876 23.48 28.5422 24.2H31C31.4418 24.2 31.7999 24.5582 31.7999 25C31.7999 25.4418 31.4418 25.8 31 25.8H28.0322C27.7996 26.2941 27.5034 26.7297 27.13 27.1055C26.7492 27.4888 26.3056 27.7924 25.8 28.0303V31C25.8 31.4418 25.4418 31.8 25 31.8C24.5581 31.8 24.2 31.4418 24.2 31V28.5406C23.4811 28.6862 22.6807 28.7616 21.8 28.7884V31C21.8 31.4418 21.4418 31.8 21 31.8C20.5581 31.8 20.2 31.4418 20.2 31V28.7888C19.3197 28.7629 18.5191 28.6896 17.8 28.5466V31C17.8 31.4418 17.4418 31.8 17 31.8C16.5581 31.8 16.2 31.4418 16.2 31V28.0436C15.6955 27.8089 15.2525 27.5086 14.8721 27.1282C14.4916 26.7478 14.1912 26.3047 13.9564 25.8H11C10.5581 25.8 10.2 25.4418 10.2 25C10.2 24.5582 10.5581 24.2 11 24.2H13.4533C13.3103 23.4808 13.2371 22.6803 13.2111 21.8H11C10.5581 21.8 10.2 21.4418 10.2 21C10.2 20.5582 10.5581 20.2 11 20.2H13.2111C13.2371 19.3197 13.3103 18.5192 13.4533 17.8H11C10.5581 17.8 10.2 17.4418 10.2 17C10.2 16.5582 10.5581 16.2 11 16.2H13.9564C14.1912 15.6953 14.4916 15.2522 14.8721 14.8718C15.2525 14.4914 15.6955 14.1911 16.2 13.9564V11C16.2 10.5582 16.5581 10.2 17 10.2C17.4418 10.2 17.8 10.5582 17.8 11V13.4534C18.5191 13.3104 19.3197 13.2371 20.2 13.2112V11C20.2 10.5582 20.5581 10.2 21 10.2C21.4418 10.2 21.8 10.5582 21.8 11V13.2116C22.6807 13.2384 23.4811 13.3138 24.2 13.4594Z" fill="#1B1A43"/>
</svg>
