<svg width="53" height="53" viewBox="0 0 53 53" fill="none" xmlns="http://www.w3.org/2000/svg">
<circle cx="26.5" cy="26.5" r="26.5" fill="#00FF75"/>
<path fill-rule="evenodd" clip-rule="evenodd" d="M25.5002 17.7C22.9883 17.7 20.951 19.7358 20.9502 22.2485L20.9502 22.25L20.9502 22.2471V22.2485C20.942 24.753 22.9664 26.791 25.4709 26.8H25.4737H25.5002C28.0127 26.8 30.0502 24.7624 30.0502 22.25C30.0502 19.7365 28.0126 17.7 25.5002 17.7Z" fill="#1B1A43"/>
<path d="M20.5344 29.4045C21.8525 28.6597 23.616 28.2 25.4998 28.2C27.373 28.2 29.1356 28.6553 30.4554 29.3948C31.7321 30.1102 32.7998 31.2228 32.7998 32.6092C32.7998 33.323 32.5086 33.9157 32.027 34.3673C31.5684 34.7972 30.957 35.0833 30.3045 35.2818C29.0016 35.6783 27.278 35.8 25.4998 35.8C23.7324 35.8 22.0096 35.6829 20.7053 35.2917C20.0522 35.0958 19.4387 34.8126 18.978 34.3848C18.4937 33.935 18.1997 33.3424 18.1997 32.6265C18.1997 31.2431 19.258 30.1257 20.5344 29.4045Z" fill="#1B1A43"/>
<path d="M33.5002 23.7C33.942 23.7 34.3002 24.0581 34.3002 24.5V26.2H36.0002C36.442 26.2 36.8002 26.5582 36.8002 27C36.8002 27.4418 36.442 27.8 36.0002 27.8H34.3002V29.5C34.3002 29.9418 33.942 30.3 33.5002 30.3C33.0584 30.3 32.7002 29.9418 32.7002 29.5V27.8H31.0002C30.5584 27.8 30.2002 27.4418 30.2002 27C30.2002 26.5582 30.5584 26.2 31.0002 26.2H32.7002V24.5C32.7002 24.0581 33.0584 23.7 33.5002 23.7Z" fill="#1B1A43"/>
</svg>
