<svg width="20" height="18" viewBox="0 0 20 18" fill="none" xmlns="http://www.w3.org/2000/svg">
<path fill-rule="evenodd" clip-rule="evenodd" d="M10.0003 0.933258C8.45217 0.933258 7.12596 0.979073 6.0063 1.12915C4.88816 1.27902 3.92905 1.5384 3.14034 1.99562C1.48339 2.95615 0.81761 4.63819 0.623826 7.11036C0.608188 7.30987 0.674766 7.50713 0.808122 7.65637C0.941479 7.80551 1.13003 7.89378 1.33004 7.90057C1.91949 7.92055 2.39158 8.40528 2.39158 8.99992C2.39158 9.59457 1.91949 10.0793 1.33004 10.0993C1.13003 10.1061 0.941479 10.1943 0.808122 10.3435C0.674766 10.4927 0.608188 10.69 0.623826 10.8895C0.81761 13.3617 1.48339 15.0437 3.14034 16.0043C3.92905 16.4614 4.88816 16.7208 6.0063 16.8707C7.12596 17.0208 8.45217 17.0666 10.0003 17.0666C11.5485 17.0666 12.8746 17.0208 13.9942 16.8707C15.1123 16.7208 16.0713 16.4614 16.8599 16.0042C18.5167 15.0436 19.1822 13.3616 19.376 10.8895C19.3916 10.69 19.325 10.4927 19.1917 10.3435C19.0583 10.1943 18.8698 10.1061 18.6698 10.0993C18.0803 10.0792 17.6083 9.59457 17.6083 8.99992C17.6083 8.40528 18.0803 7.92064 18.6698 7.90057C18.8698 7.89378 19.0583 7.80551 19.1917 7.65637C19.325 7.50713 19.3916 7.30987 19.376 7.11038C19.1822 4.63828 18.5167 2.9562 16.8599 1.99564C16.0713 1.5384 15.1123 1.27902 13.9942 1.12915C12.8746 0.979073 11.5485 0.933258 10.0003 0.933258ZM9.99987 4.87242C10.2418 4.87242 10.468 4.99168 10.6048 5.19119L11.6468 6.71163L13.4148 7.23277C13.6468 7.30125 13.8302 7.47954 13.905 7.70962C13.9797 7.93962 13.9362 8.1917 13.7887 8.38337L12.6646 9.84427L12.7153 11.6869C12.722 11.9286 12.609 12.1581 12.4134 12.3003C12.2177 12.4425 11.9645 12.4789 11.7366 12.3979L9.99987 11.7804L8.26315 12.3979C8.03527 12.4789 7.78208 12.4425 7.58641 12.3003C7.39074 12.1581 7.27774 11.9286 7.2844 11.6869L7.33507 9.84427L6.21105 8.38337C6.06356 8.1917 6.02008 7.93962 6.09481 7.70962C6.16956 7.47954 6.35291 7.30125 6.5849 7.23277L8.35289 6.71163L9.39496 5.19119C9.53173 4.99168 9.75796 4.87242 9.99987 4.87242Z" fill="white"/>
</svg>
