<svg width="238" height="134" viewBox="0 0 238 134" fill="none" xmlns="http://www.w3.org/2000/svg">
<path fill-rule="evenodd" clip-rule="evenodd" d="M198.51 1.21541C196.149 4.67339 193.503 7.88727 190.35 11.1232C189.507 11.9884 188.732 12.793 188.628 12.9112L188.438 13.1262L188.607 13.577C189.042 14.7391 190.619 17.1075 194.408 22.2899C197.016 25.8577 198.09 27.4153 199.339 29.4447C200.151 30.7646 200.556 31.5158 200.513 31.626C200.446 31.8009 197.218 34.0203 197.146 33.9412C197.028 33.8116 196.111 32.7276 195.223 31.6654L194.347 30.6188L194.305 28.6049C194.266 26.6875 194.084 24.8786 193.913 24.7008C193.83 24.6144 193.355 24.9326 190.805 26.7831C188.716 28.2992 187.537 29.2089 187.218 29.5499L187.028 29.7538L187.493 30.401C188.674 32.0456 189.893 34.2105 191.402 37.344C193.046 40.7575 194.995 45.0244 195.484 46.2772C195.59 46.5502 195.704 46.8043 195.737 46.8419C195.77 46.8795 195.971 46.5904 196.185 46.1994C196.683 45.2865 197.866 43.5086 198.609 42.555C201.458 38.8997 205.948 34.9164 209.879 32.556C210.164 32.3849 210.397 32.1983 210.397 32.1411C210.397 31.9718 208.84 29.4442 208.058 28.3438C205.564 24.8348 200.616 19.4085 197.069 16.2938L195.799 15.1779L196.215 14.805C196.68 14.3892 198.165 13.0135 199.409 11.847L200.225 11.0812L201.901 12.7961L203.578 14.5109L203.417 15.0091C203.111 15.9558 203.14 18.3466 203.467 19.134L203.565 19.3695L203.852 18.9686C204.555 17.9887 206.704 16.0573 208.582 14.7173C209.102 14.3465 209.539 14.0108 209.554 13.9713C209.583 13.895 208.597 12.5871 206.972 10.5444C204.639 7.61109 202.528 4.72269 200.55 1.75595C199.905 0.789265 199.369 -0.000991644 199.358 9.34001e-07C199.347 0.000910797 198.965 0.547902 198.51 1.21541ZM88.1637 2.42578C88.54 3.27543 89.0296 5.09168 89.2373 6.40866C89.829 10.1611 89.8718 10.9039 89.9468 18.7332C89.998 24.0768 90.0429 25.9492 90.1414 26.8419C90.2119 27.4802 90.2977 28.0757 90.332 28.1653C90.4089 28.3656 91.3315 29.8758 91.7932 30.5567C92.7607 31.9841 97.8333 38.9521 97.9069 38.955C97.9634 38.9573 98.4845 38.23 99.8022 36.3101C100.874 34.748 103.276 31.5126 103.364 31.5126C103.459 31.5126 106.058 34.8902 107.343 36.6823C107.995 37.5921 108.595 38.422 108.676 38.5265L108.823 38.7164L109.222 38.0487C110.438 36.0154 111.271 34.8967 113.257 32.6302C115.08 30.5492 115.98 29.593 116.821 28.8432C117.235 28.4736 117.649 28.0719 117.741 27.9504L117.907 27.7295L117.729 25.2165C117.407 20.6649 117.354 19.3591 117.308 14.88C117.275 11.6397 117.289 10.2957 117.361 9.88202C117.525 8.94263 117.934 7.78529 118.455 6.788C118.829 6.07219 118.922 5.82768 118.841 5.77697C118.018 5.2634 109.588 2.44538 109.338 2.60005C109.297 2.62495 109.388 2.93812 109.539 3.29595C110.178 4.80938 110.714 6.82927 111.032 8.93147C111.248 10.3538 111.252 10.4511 111.248 14.5147C111.247 16.7894 111.219 19.4659 111.188 20.4624L111.131 22.2744L110.407 23.2334C109.54 24.381 108.209 25.9194 108.052 25.9546C107.989 25.9685 107.914 25.9403 107.884 25.8919C107.778 25.7195 107.591 23.0755 107.502 20.4751C107.411 17.8264 107.489 13.4087 107.677 10.503C107.719 9.84339 107.755 8.88498 107.756 8.37314C107.757 7.55219 107.741 7.4426 107.617 7.4426C107.441 7.4426 106.203 8.14137 105.269 8.76818C103.744 9.7917 102.183 11.1738 101.696 11.9308L101.437 12.3342L101.488 14.5411C101.516 15.7549 101.576 17.4366 101.62 18.2782C101.664 19.1199 101.741 20.739 101.791 21.8763C101.84 23.0137 101.898 24.082 101.92 24.2504C101.959 24.553 101.938 24.5788 100.116 26.4424C99.1014 27.4795 97.945 28.6779 97.5457 29.1055C97.1464 29.5331 96.8067 29.8681 96.7911 29.85C96.7166 29.7641 96.472 21.068 96.4352 17.2029L96.3939 12.8604L96.8548 10.1554C97.4138 6.87484 97.5378 5.73702 97.4133 5.03122C97.3641 4.7523 97.3135 4.5159 97.301 4.50589C97.2885 4.49588 96.2158 4.23608 94.9173 3.92854C92.3727 3.32596 89.9123 2.64712 88.792 2.23851C88.4073 2.09823 88.0645 1.98342 88.0302 1.98342C87.9959 1.98342 88.0559 2.18252 88.1637 2.42578ZM146.486 3.20346C146.453 3.51058 146.428 4.93427 146.431 6.3673C146.436 8.66305 146.472 9.35439 146.731 12.1818C146.892 13.9468 147.024 15.461 147.024 15.5467C147.024 15.695 147.001 15.6932 146.548 15.5093C145.699 15.1649 144.962 14.9557 144.79 15.0102C144.564 15.0819 144.578 15.262 144.862 15.9329C146.053 18.746 147.479 25.354 148.634 33.415C149.179 37.2176 149.686 41.6394 149.8 43.589C149.882 44.998 149.87 44.9888 150.386 44.0424C151.48 42.0319 152.703 36.8646 152.927 33.3042L152.947 32.9866L153.342 33.2879C153.558 33.4537 153.768 33.5695 153.807 33.5453C153.846 33.5212 153.905 33.1562 153.937 32.7345C153.998 31.9292 154.316 30.0768 154.501 29.4472L154.61 29.0775L154.923 29.5713C155.45 30.4012 156.361 32.3273 156.709 33.3504C157.084 34.4489 157.48 35.8711 158.458 39.624L159.138 42.2349L161.013 42.3349C163.929 42.4904 165.625 42.7641 167.61 43.3995C168.777 43.7729 170.43 44.4251 171.059 44.7593C171.328 44.9026 171.566 45.0017 171.588 44.9795C171.61 44.9573 171.595 44.8308 171.553 44.6983C171.512 44.5658 171.377 44.1225 171.255 43.7131C170.867 42.4176 170.145 41.1707 168.836 39.536C167.929 38.4034 166.476 36.9627 165.541 36.268C164.779 35.7021 164.666 35.5862 164.621 35.3254C164.359 33.8062 163.681 31.837 162.81 30.0651C161.346 27.0844 159.285 24.5146 157.319 23.2182C157.036 23.0312 156.818 22.8642 156.835 22.8471C156.887 22.7947 158.908 22.3415 159.89 22.162C160.4 22.0687 161.254 21.9639 161.789 21.929C162.323 21.8942 162.784 21.8422 162.813 21.8134C162.842 21.7847 162.806 19.9818 162.733 17.8071C162.66 15.6324 162.588 13.201 162.574 12.404L162.548 10.9549L162.157 10.3518C161.405 9.1912 158.822 5.86118 157.429 4.25808C157.113 3.89413 156.825 3.56302 156.79 3.52225C156.753 3.4799 156.537 3.52895 156.286 3.6364C155.747 3.86717 153.813 4.93767 153.048 5.4285L152.485 5.78905L151.805 5.23602C150.912 4.50978 150.053 3.95509 149.182 3.54177C148.471 3.20462 146.905 2.64514 146.671 2.64514C146.578 2.64514 146.531 2.78782 146.486 3.20346ZM181.9 2.94672C179.655 3.09089 177.667 3.26483 176.101 3.45392C173.668 3.74781 172.669 3.73565 168.235 3.35822C166.301 3.19353 164.692 3.08667 164.659 3.12083C164.551 3.23365 164.336 5.23403 164.265 6.78452C164.174 8.76165 164.321 12.441 164.501 12.7325C164.54 12.7953 164.912 12.5651 165.588 12.0604C166.885 11.0915 167.736 10.5781 168.59 10.2493C170.237 9.6151 171.496 9.60981 172.641 10.2322C173.435 10.6636 173.422 10.6327 173.339 11.9092C173.299 12.5234 173.261 15.304 173.255 18.0883L173.243 23.1507L172.964 22.8858C172.81 22.74 172.414 22.2858 172.083 21.8763C171.753 21.4669 171.389 21.046 171.275 20.9409L171.068 20.7498L171.012 21.1235C170.918 21.7487 171.258 24.3866 171.722 26.6324C172.845 32.0689 175.285 39.2956 177.517 43.7958C178.2 45.1722 178.382 45.475 178.473 45.384C178.503 45.3543 178.521 44.0729 178.514 42.5363C178.506 40.9998 178.538 38.5889 178.585 37.1786C178.67 34.6028 178.886 31.0515 178.966 30.9229C179.027 30.8247 179.387 31.2618 180.031 32.2157L180.59 33.0428L180.539 32.3811C180.271 28.9084 180.271 15.8085 180.54 11.2682L180.594 10.3376H180.907C181.4 10.3376 182.781 10.7292 183.538 11.0834C184.869 11.7059 186.207 12.7838 186.769 13.6847C186.973 14.0122 187.022 14.0506 187.072 13.9227C187.26 13.4392 187.389 10.7543 187.399 7.09429C187.408 3.48867 187.399 3.22075 187.261 3.08261C187.126 2.9477 186.903 2.9339 184.734 2.92604C183.426 2.92133 182.151 2.93059 181.9 2.94672ZM19.3984 3.37426C20.8668 5.69698 22.012 9.84504 22.7205 15.407C23.3458 20.3176 23.4802 22.6738 23.3676 26.7565L23.3015 29.1552L22.7216 29.1532C21.4049 29.1488 20.2241 28.1462 19.777 26.6531C19.7191 26.4597 19.6437 26.3016 19.6094 26.3016C19.4954 26.3016 19.1112 26.8161 18.8723 27.2887C18.39 28.2427 18.2482 28.8827 18.2482 30.1065C18.2483 31.4019 18.3661 31.8266 18.9601 32.672C19.8161 33.8907 21.5338 34.6786 22.7612 34.4157C23.0034 34.3639 23.221 34.341 23.245 34.365C23.2689 34.3889 23.2056 35.3476 23.1041 36.4954C22.9573 38.1567 22.8774 38.7092 22.7121 39.2039C22.4196 40.0798 21.8085 41.3282 21.1619 42.3712C20.8579 42.8614 20.6092 43.2801 20.6092 43.3017C20.6092 43.3232 20.7677 43.341 20.9612 43.3412C21.4854 43.3417 22.7945 43.5695 23.3075 43.7495C24.0137 43.9973 24.8391 44.5996 25.6703 45.4734C27.3853 47.2762 28.3016 48.8262 29.9786 52.7606L30.5915 54.1985L30.6631 52.1816C30.7237 50.473 30.7111 49.9057 30.581 48.4691C30.4502 47.0242 30.426 45.8929 30.4171 40.818C30.4102 36.9072 30.3738 34.5815 30.311 34.0438C30.2329 33.3765 30.2356 33.2006 30.3254 33.0926C30.8963 32.4062 31.6168 31.6974 33.2431 30.2223C35.405 28.2614 36.0895 27.6693 36.1383 27.7181C36.2673 27.8469 36.3872 30.6446 36.3842 33.4564C36.3796 37.7836 36.1991 39.9855 35.4354 45.0365C35.2978 45.9463 35.1613 46.8583 35.132 47.063L35.0786 47.4352L35.3319 47.2284C35.4711 47.1147 35.794 46.8524 36.0494 46.6455C37.9039 45.1429 41.139 44.0274 44.1183 43.863C44.6325 43.8347 45.0694 43.7854 45.0891 43.7536C45.1089 43.7216 45.0652 43.4576 44.9921 43.1667C44.8779 42.7119 44.6726 42.251 44.2447 41.4888C44.0874 41.2085 43.4905 35.7846 43.3926 33.7459C43.3435 32.7223 43.2504 30.8985 43.1856 29.6929C43.1209 28.4873 43.0432 26.6567 43.013 25.6248L42.9581 23.7487L43.3157 23.6525C43.9871 23.472 44.4692 23.6362 45.3037 24.3296L45.8178 24.7568L45.7583 23.7413C45.6545 21.9698 45.2404 20.2435 44.854 19.9713C44.5617 19.7655 43.6541 19.519 43.1891 19.519H42.7568L42.6119 17.5131C42.5322 16.4099 42.4142 14.949 42.3496 14.2666C42.2849 13.5842 42.1963 12.1846 42.1527 11.1565C42.0688 9.17879 42.08 9.02088 42.475 6.61545C42.6488 5.55737 42.6801 5.05976 42.5934 4.737L42.5444 4.55429L42.1183 4.80308C40.6117 5.68284 39.5426 6.08806 38.0891 6.33025C37.357 6.45217 36.8986 6.46739 35.1859 6.42653C34.0672 6.39981 33.1001 6.40999 33.0368 6.44911C32.9437 6.50652 32.9972 6.68072 33.3134 7.35195C34.4126 9.68534 34.9676 12.3262 35.3923 17.2443C35.5063 18.5636 35.6212 19.885 35.6477 20.1807L35.696 20.7183L35.1512 20.9969C33.6679 21.7554 31.4639 23.2927 30.2893 24.388L29.6641 24.9709L29.6114 22.0175C29.5825 20.3931 29.5035 18.0404 29.4358 16.7894C29.3681 15.5383 29.3116 14.0246 29.3101 13.4254C29.3074 12.3392 29.5919 7.18858 29.6877 6.58923C29.7446 6.23297 29.6901 6.16805 29.0545 5.83454C28.1425 5.35595 26.5858 4.91971 23.4475 4.26337C22.6621 4.0991 21.3958 3.76088 20.6334 3.51175C19.8711 3.26253 19.2365 3.05871 19.2232 3.05871C19.2097 3.05871 19.2886 3.20073 19.3984 3.37426ZM77.4379 3.58875C74.8611 4.35717 73.4456 4.9968 71.6158 6.21974C70.1573 7.19445 69.886 7.65137 69.4143 9.92752C68.3755 14.9396 68.2261 20.6833 68.9946 26.0534C69.2064 27.5332 69.7805 30.3408 69.9768 30.8564C70.3428 31.8185 72.3414 34.2312 73.6686 35.3134C75.0085 36.4059 77.6756 38.2827 78.7417 38.8833L79.0929 39.081L79.6405 38.7989C81.4156 37.8845 86.0799 34.3822 87.6191 32.8082L88.0666 32.3506L88.0099 31.0837C87.8203 26.8397 87.4434 21.198 87.293 20.3516C87.2491 20.1044 87.2131 19.7858 87.2131 19.6436C87.2131 19.5015 87.165 19.3194 87.1061 19.239C87.0057 19.102 86.9483 19.1133 86.1742 19.4233C83.5244 20.4844 78.5062 23.0361 78.3689 23.3921C78.3457 23.4524 78.3727 23.6554 78.4291 23.8431C78.6123 24.4539 79.9925 25.5942 81.3973 26.2955C81.6841 26.4387 81.9393 26.609 81.9642 26.6739C81.9892 26.7388 81.8234 27.2678 81.5958 27.8495C81.3683 28.4312 81.0972 29.1748 80.9934 29.502C80.8123 30.0734 80.7931 30.0989 80.509 30.1453C79.7521 30.2688 78.2511 29.8954 77.2571 29.3362C76.2839 28.7889 76.2232 28.706 75.988 27.6046C75.0804 23.3536 74.8992 18.8002 75.4468 14.0026C75.5308 13.266 75.6224 12.6264 75.6504 12.5813C75.7257 12.4595 77.808 11.073 78.4479 10.7186L79.0023 10.4115L79.1375 10.6177C79.359 10.9553 79.671 11.9261 79.6722 12.2814C79.6728 12.4634 79.6183 13.0217 79.5512 13.5221C79.4812 14.0452 79.4286 15.0956 79.4277 15.9933L79.4261 17.5547L80.6485 16.3242C81.9352 15.0291 83.5008 13.6791 85.432 12.1994C86.0699 11.7106 86.6032 11.2442 86.6172 11.1628C86.6312 11.0815 86.4742 10.6798 86.2681 10.2702C85.3563 8.45743 83.7386 6.50205 81.5932 4.61946C80.7021 3.83756 80.5001 3.70009 80.0192 3.54772C79.0874 3.2526 78.5359 3.26136 77.4379 3.58875ZM56.8012 5.26406C53.4731 7.24706 50.4638 9.729 48.8445 11.8265C48.0543 12.8502 48.0858 12.7443 48.1452 14.1754C48.1738 14.8624 48.2343 17.0623 48.2798 19.064C48.4139 24.9611 48.5231 28.4906 48.6137 29.8583C48.7122 31.3451 48.9787 34.2038 49.1175 35.2631L49.2132 35.9944L49.8361 36.4211C51.2003 37.3554 52.6979 38.4798 56.9961 41.7966C57.8677 42.4692 58.5267 42.9222 58.5953 42.8959C58.7372 42.8416 61.6065 40.8901 64.639 38.7854L66.8757 37.233L67.5177 35.7752C67.8709 34.9735 68.1597 34.2202 68.1597 34.1012C68.1597 33.9823 67.9926 32.8022 67.7883 31.4788C67.3218 28.4572 66.9864 25.8031 66.2976 19.6844C65.7851 15.1315 65.4378 12.5123 65.2537 11.8102C65.1092 11.2596 63.0534 8.94048 61.2157 7.25508C60.0568 6.1922 58.3724 4.75859 58.1267 4.62599C58.0286 4.57306 57.6763 4.74262 56.8012 5.26406ZM130.166 5.35033C129.797 5.4002 128.637 5.71609 128.599 5.77689C128.581 5.80592 128.487 6.29493 128.389 6.8636C128.118 8.44138 127.455 11.4772 126.69 14.6388C126.31 16.2083 125.916 17.8647 125.813 18.3196C125.711 18.7745 125.616 19.1602 125.602 19.1768C125.588 19.1932 125.321 19.0367 125.008 18.8289C124.409 18.4313 124.024 18.2504 123.916 18.3168C123.881 18.3386 123.788 18.5901 123.709 18.8757C123.599 19.2751 122.252 23.6625 121.662 25.542C121.614 25.6929 121.594 25.8352 121.617 25.8582C121.654 25.8947 122.458 24.9426 123.528 23.5966C123.716 23.3599 123.91 23.1645 123.958 23.1623C124.078 23.157 124.409 23.6153 124.409 23.7876C124.409 24.2278 123.169 27.9831 122.335 30.0702C121.931 31.0814 120.409 34.5603 119.779 35.9128C119.309 36.9218 118.887 38.1694 118.69 39.1362C118.506 40.0363 118.365 42.4493 118.504 42.3069C118.548 42.2614 118.819 41.8791 119.104 41.4573C119.766 40.4816 120.558 39.5804 121.821 38.3674C124.068 36.2081 126.954 34.2161 128.944 33.45C129.274 33.3228 129.545 33.1842 129.545 33.142C129.545 33.0997 129.263 32.7758 128.918 32.4222L128.291 31.7793L128.464 30.4259C128.684 28.7033 128.944 27.0391 129.002 26.9814C129.049 26.9342 130.616 28.4037 131.133 28.981L131.438 29.3207L132.417 29.3207C134.277 29.321 135.634 29.3648 135.733 29.4278C135.881 29.5218 136.402 31.66 136.517 32.6457L136.617 33.5051L137.492 34.2366C139.443 35.8675 141.008 37.8317 142.359 40.3474L142.833 41.2301L142.916 40.9C143.032 40.4319 143.019 36.8652 142.897 35.7311C142.522 32.2586 141.071 23.957 140.452 21.7523C140.343 21.3656 140.067 20.3606 139.837 19.519C139.268 17.4361 138.84 16.1419 138.061 14.1529C137.699 13.2261 137.271 12.0908 137.111 11.6301C136.629 10.2449 136.094 8.94164 135.62 7.99538L135.171 7.10065L135.389 6.55722C135.562 6.12363 135.584 6.00006 135.497 5.94621C135.314 5.83305 134.101 5.52775 133.356 5.40682C132.713 5.3026 130.774 5.26835 130.166 5.35033ZM155.414 12.9522C155.922 13.1565 156.498 13.3453 156.692 13.3718C157.019 13.4167 157.088 13.3892 157.628 12.9956C157.949 12.762 158.224 12.5709 158.24 12.5709C158.256 12.5709 158.295 12.8408 158.327 13.1706C158.384 13.7686 158.748 15.7631 158.846 16.0178C158.893 16.1392 158.77 16.1479 157.565 16.1095L156.233 16.0671L155.865 16.4489C155.416 16.9159 154.62 17.9675 154.084 18.8029L153.685 19.4249L153.165 15.8118C152.879 13.8246 152.624 12.0784 152.6 11.9313L152.556 11.6638L153.522 12.1224C154.053 12.3745 154.905 12.7479 155.414 12.9522ZM58.7096 15.5856C59.3723 16.6558 60.2278 17.9017 61.0595 19.0079L61.888 20.11L61.8412 22.027C61.8155 23.0815 61.6809 25.4145 61.5423 27.2114C61.4036 29.0084 61.2608 30.9013 61.2249 31.418L61.1597 32.3573L60.4141 32.549C59.529 32.7767 59.1113 32.9079 58.3725 33.1905L57.822 33.4011L56.7186 32.2382L55.6152 31.0753L55.3468 28.9987C54.8954 25.5051 54.7289 23.309 54.6801 20.2075C54.6556 18.6527 54.6584 17.2899 54.6864 17.179C54.7142 17.0681 55.1773 16.3674 55.7153 15.622C56.2534 14.8765 56.8549 14.0294 57.052 13.7395L57.4103 13.2125L57.882 14.1117C58.1415 14.6064 58.5138 15.2696 58.7096 15.5856ZM132.815 19.5193C133.164 20.5313 134.479 24.8379 134.577 25.2883C134.617 25.4737 134.613 25.4744 133.593 25.4688L132.568 25.4633L131.378 24.2274L130.187 22.9917L130.949 21.2381C131.628 19.676 132.327 18.2997 132.404 18.3756C132.419 18.3907 132.604 18.9053 132.815 19.5193ZM162.225 47.5698C160.334 48.0686 156.421 48.8194 153.361 49.2703C151.926 49.4818 148.125 49.4818 147.077 49.2702C146.673 49.1887 146.329 49.1361 146.311 49.1532C146.294 49.1703 146.486 50.1866 146.737 51.4116C147.642 55.8246 148.295 60.0774 148.76 64.5985C149.075 67.6687 149.107 68.5396 149.099 73.838L149.092 79.0659L149.57 78.8998C150.308 78.6434 151.869 78.2775 152.74 78.1566C153.729 78.0193 156.567 78.019 158 78.156C159.461 78.2955 161.238 78.5394 162.665 78.7961C163.317 78.9133 163.86 78.9957 163.873 78.9794C163.886 78.963 164.11 78.5401 164.372 78.0397C165.815 75.2847 167.549 72.9307 169.971 70.4389C171.291 69.0811 172.61 67.8631 173.747 66.9519L174.569 66.294L176.308 66.3528C178.751 66.4352 181.117 66.5739 181.742 66.6714C182.091 66.7257 182.387 66.8339 182.604 66.9866C182.786 67.1145 183.662 67.7353 184.551 68.3661C186.705 69.8957 190.412 72.3646 192.959 73.9663C194.098 74.6826 195.31 75.5133 195.652 75.8124C196.414 76.4795 199.515 78.8255 199.634 78.8255C199.682 78.8255 199.914 78.6461 200.151 78.4268C200.387 78.2075 200.859 77.7918 201.2 77.5029C201.54 77.214 202.547 76.234 203.436 75.3251C204.326 74.4161 205.632 73.1506 206.338 72.5127C207.854 71.1438 212.61 67.1689 213.931 66.1678L214.856 65.4671L215.327 64.1058C215.586 63.3572 216.043 62.1713 216.343 61.4706L216.889 60.1966L217.516 59.9079C218.742 59.3431 220.224 58.706 220.928 58.4412C221.336 58.2881 221.923 57.9761 222.295 57.7157C222.654 57.4644 223.388 56.9947 223.927 56.6719C224.901 56.0881 224.909 56.081 225.377 55.3403C225.635 54.9307 226.038 54.3225 226.271 53.989L226.695 53.3823L227.431 53.2814C228.618 53.1185 231.583 52.7827 232.39 52.7198C232.889 52.6809 233.08 52.64 232.97 52.5959C232.724 52.4974 228.338 52.0267 227.127 51.9689L226.072 51.9185L225.007 52.6482C224.421 53.0496 223.327 53.8234 222.575 54.368L221.209 55.358L219.8 55.7216C219.025 55.9216 218.242 56.1583 218.06 56.2477C217.733 56.4082 215.721 57.7989 213.743 59.232L212.726 59.9691L212.27 61.3532C212.02 62.1145 211.648 63.3102 211.443 64.0101C211.238 64.7101 211.04 65.312 211.003 65.3475C210.911 65.4354 208.881 66.0903 208.837 66.0461C208.818 66.0269 208.844 65.8442 208.895 65.6403C209.085 64.8871 209.117 64.8995 207.974 65.2757L206.959 65.6099L205.191 67.3582C202.961 69.5628 201.091 71.535 199.748 73.0982C199.171 73.7689 198.664 74.3308 198.619 74.3471C198.575 74.3634 197.936 73.7829 197.199 73.057C195.282 71.169 193.228 69.3947 192.845 69.2963C192.793 69.2829 192.622 69.5511 192.465 69.8923C192.308 70.2335 192.145 70.5127 192.103 70.5127C192.061 70.5127 191.141 69.6432 190.059 68.5806C188.977 67.518 188.162 66.6696 188.247 66.6954C188.624 66.8088 190.609 67.3495 192.123 67.7511L193.771 68.1885L194.276 67.9112C196.927 66.4567 200.244 64.2103 202.403 62.4073C203.381 61.591 204.804 60.2271 204.742 60.1654C204.722 60.1448 203.851 60.3533 202.808 60.6287C199.562 61.4862 191.617 63.4405 191.371 63.442C190.811 63.4457 181.985 62.0715 179.415 61.5806C178.617 61.4282 177.222 61.1853 176.314 61.0408L174.664 60.778L173.961 61.134C169.75 63.2659 163.153 69.0694 160.696 72.8044L160.331 73.3591L159.953 73.3045C159.745 73.2745 158.837 73.2482 157.936 73.2461L156.297 73.2422L156.351 71.7947C156.435 69.5398 156.173 66.6088 155.764 65.2354L155.642 64.8257L157.809 64.8618L159.977 64.898L160.344 65.3066C160.546 65.5313 161.047 66.1618 161.456 66.7078C161.866 67.2537 162.236 67.7376 162.28 67.7831C162.331 67.8358 162.343 66.325 162.316 63.6154C162.292 61.2777 162.253 59.3462 162.23 59.3232C162.207 59.3002 161.811 59.5658 161.35 59.9135L160.511 60.5455L158.179 60.5467C156.896 60.5472 155.763 60.5702 155.66 60.5976L155.474 60.6475L155.474 59.5419C155.474 58.9338 155.416 57.9338 155.344 57.3196C155.226 56.2951 154.869 54.2584 154.757 53.9676C154.718 53.8648 154.852 53.8452 155.61 53.8431C156.105 53.8416 156.957 53.7865 157.503 53.7207C158.05 53.6548 158.559 53.6001 158.634 53.5992C158.928 53.5955 161.334 55.5191 163.221 57.2662C164.734 58.6671 164.604 58.6237 164.324 57.6325C163.865 56.0077 163.359 52.6368 163.047 49.1309C162.968 48.2437 162.881 47.4952 162.854 47.4674C162.827 47.4396 162.544 47.4857 162.225 47.5698ZM114.261 48.7103C111.814 49.7081 108.564 51.6428 107.374 52.8096C106.899 53.2754 106.859 53.3431 106.772 53.8456C106.433 55.7959 106.14 62.146 106.213 65.9633C106.291 70.0363 106.645 74.1339 106.976 74.7808C107.111 75.0445 108.842 76.7097 109.911 77.6047C111.716 79.1148 113.766 80.5224 115.478 81.427L116.358 81.8923L116.966 81.5001C119.919 79.5952 124.288 76.2822 125.842 74.7683C126.301 74.3214 126.399 74.1821 126.365 74.0202C126.342 73.9107 126.301 73.449 126.274 72.9941C126.201 71.7713 125.799 68.2435 125.192 63.4819C124.343 56.8273 123.978 54.4138 123.66 53.3357L123.497 52.7843L122.399 52.0886C119.437 50.2104 117.46 49.2204 115.592 48.6799C115.191 48.5639 114.858 48.4702 114.852 48.4715C114.846 48.4727 114.58 48.5802 114.261 48.7103ZM137.22 48.7295C136.976 48.8562 133.328 50.9756 131.856 51.8457C131.646 51.97 131.628 51.9614 131.028 51.4566C130.691 51.1728 130.098 50.7563 129.71 50.5311C128.912 50.0667 127.469 49.4764 127.05 49.4428C126.777 49.4209 126.77 49.4284 126.786 49.7139C126.795 49.8753 126.989 50.8245 127.218 51.8232C128.015 55.3028 128.461 57.8188 129.299 63.5646C129.578 65.4753 129.911 67.6714 130.038 68.4448C130.166 69.2182 130.26 69.8628 130.247 69.8772C130.234 69.8916 130.04 69.8103 129.815 69.6964C129.265 69.4183 128.445 69.1479 128.151 69.1479H127.911L128.567 71.071C130.629 77.1178 132.162 83.5873 132.869 89.2263C132.973 90.0563 133.083 90.7076 133.114 90.6738C133.285 90.4838 133.85 87.7181 134.055 86.063C134.341 83.7653 134.482 80.4063 134.366 78.6601C134.328 78.0914 134.304 77.6157 134.312 77.6029C134.32 77.5901 134.558 77.9398 134.84 78.38C135.127 78.8276 135.383 79.1477 135.422 79.1063C135.531 78.9894 135.893 77.3373 136.164 75.7179C136.418 74.2005 136.614 72.5996 136.714 71.2318C136.745 70.8085 136.783 70.4746 136.798 70.4901C136.814 70.5055 136.975 71.0961 137.157 71.8026C137.782 74.2242 138.229 76.6522 138.673 80.0249C138.823 81.1712 138.858 81.843 138.861 83.6607L138.864 85.8903L140.148 86.0735C142.868 86.4615 146.601 87.3995 149.225 88.354C149.612 88.4944 149.95 88.5869 149.978 88.5594C150.057 88.4803 149.52 86.9561 149.157 86.2285C148.251 84.4132 146.296 82.0754 144.606 80.7874L144.051 80.3648L144.003 79.8226C143.681 76.2519 143.284 73.882 142.463 70.6367C141.877 68.3179 141.05 65.8862 140.436 64.6773C140.323 64.455 140.231 64.257 140.231 64.2373C140.231 64.2176 140.5 64.2705 140.828 64.3549C141.723 64.5847 142.251 64.6356 142.36 64.5027C142.411 64.4416 142.496 64.094 142.549 63.73C142.603 63.3661 142.885 61.84 143.177 60.3387C143.468 58.8374 143.759 57.2817 143.822 56.8815L143.937 56.1538L143.607 55.6433C143.425 55.3626 142.804 54.592 142.227 53.931C141.65 53.2698 140.522 51.9473 139.719 50.992C138.916 50.0366 138.097 49.0995 137.899 48.9096L137.539 48.5643L137.22 48.7295ZM102.746 49.1772C101.971 49.2832 100.536 49.4294 99.5564 49.5019C98.5768 49.5745 96.8806 49.7048 95.7871 49.7917C92.0158 50.0911 90.4431 50.1448 86.8817 50.0958C84.3328 50.0608 83.3487 50.0742 83.0759 50.148C82.7268 50.2424 82.7023 50.2688 82.6014 50.6611C82.543 50.8885 82.43 51.5958 82.3503 52.2327C82.1405 53.9106 82.1416 58.7685 82.3521 60.4578C82.4339 61.1147 82.5202 61.6835 82.5439 61.7217C82.5675 61.7599 82.792 61.4643 83.0426 61.065C84.1546 59.2933 86.9862 55.8639 87.4947 55.6729C87.8323 55.546 89.0542 55.5632 89.7204 55.704C90.3054 55.8279 91.2105 56.1944 91.3522 56.3649C91.4752 56.5128 91.5772 57.3662 91.7679 59.8424C91.952 62.2321 92.1609 64.6968 92.2395 65.4058L92.2876 65.8409L91.7178 65.5078C90.5803 64.8428 89.065 64.3824 87.7516 64.3026C86.7667 64.2428 86.6822 64.3005 86.9879 64.8242C87.2679 65.3037 88.5097 67.8317 88.9695 68.8584C90.1672 71.5325 91.0871 74.5963 92.049 79.115C93.194 84.4932 94.2277 90.1993 94.7577 94.066C94.9058 95.1467 95.0411 96.017 95.0582 95.9997C95.1122 95.9458 95.4829 93.0748 95.6363 91.5222C95.7556 90.316 95.7838 89.2326 95.785 85.8149C95.7865 81.9051 95.77 81.4028 95.5593 78.9496C95.292 75.8374 95.112 74.184 94.9627 73.4697C94.9033 73.1854 94.8855 72.9527 94.9232 72.9527C95.0541 72.9527 96.523 74.4051 97.1399 75.1447C98.3795 76.6308 98.5871 76.8486 98.6775 76.7584C99.048 76.3885 98.5885 64.1402 97.9805 58.1785C97.8882 57.274 97.7902 56.3075 97.7626 56.0309L97.7125 55.528L98.448 55.4265C98.8526 55.3705 99.5936 55.2327 100.095 55.1199C100.596 55.0072 101.086 54.9347 101.184 54.9589C101.466 55.0282 102.966 56.5537 103.426 57.2381C103.655 57.58 104.075 58.2967 104.358 58.8307C104.641 59.3647 104.905 59.7822 104.943 59.7586C105.51 59.4088 105.389 50.0757 104.806 49.1515C104.662 48.9229 104.597 48.9237 102.746 49.1772ZM70.3458 49.941C66.8701 52.876 63.7908 55.4375 62.4023 56.5486C61.4911 57.2779 60.6745 57.9545 60.5877 58.0521C60.4351 58.2236 60.4348 58.235 60.5802 58.3953C60.6629 58.4866 61.2931 58.9966 61.9806 59.5286C64.1165 61.1815 65.085 62.0194 66.5945 63.5204C68.5061 65.4214 69.7403 66.9939 70.7532 68.8192L71.0527 69.359L69.8256 70.9996C69.1507 71.9019 68.565 72.6351 68.5241 72.6289C68.4831 72.6226 68.2302 72.237 67.9621 71.7719C64.8819 66.4302 59.7913 61.602 54.2425 58.7595L53.6212 58.4412L51.7987 58.4492C48.3542 58.4641 45.8365 58.8477 39.6625 60.2984C35.4643 61.2848 33.8783 61.6273 33.2665 61.6795C32.7468 61.7239 32.7163 61.7375 32.7972 61.8885C32.92 62.1174 33.6558 62.432 34.4017 62.5745C35.308 62.7477 36.7688 62.7235 39.5797 62.4888C40.9238 62.3766 43.0114 62.241 44.2188 62.1875L46.4141 62.0902L47.1596 62.34C47.5697 62.4774 48.1941 62.6578 48.5472 62.7408C48.9004 62.8238 49.1892 62.9135 49.1892 62.9399C49.1892 62.9665 48.8444 63.0752 48.4229 63.1815C47.3246 63.4588 45.0261 64.2234 44.7522 64.4027C44.5285 64.549 43.8327 65.8857 43.305 67.1829C43.128 67.618 43.0626 67.687 42.5263 68.0033C41.7309 68.4722 39.4878 69.9368 38.3995 70.6978C37.3686 71.4186 37.4652 71.2187 37.131 73.325C37.0083 74.0983 36.8967 74.7439 36.883 74.7596C36.8692 74.7752 36.4354 74.4588 35.9188 74.0565C32.1727 71.1388 27.5028 68.6507 24.6891 68.0735C24.3711 68.0082 24.1713 67.9253 24.1713 67.8588C24.1713 67.571 23.7219 66.3907 23.3945 65.8186C23.1927 65.4661 23.0566 65.1775 23.092 65.1775C23.1275 65.1775 23.3345 65.2769 23.5521 65.3984L23.9478 65.6193L23.8881 65.3777C23.652 64.4227 22.0798 61.6771 20.9767 60.2932C19.2226 58.0925 16.3442 55.2817 14.3133 53.7861C12.7762 52.654 12.8574 52.6878 11.6669 52.6861C8.38578 52.6814 3.87511 52.2902 0.733126 51.7376C0.348911 51.67 0.0199498 51.6294 0.00197333 51.6474C-0.0510447 51.7003 0.976263 52.2495 1.63849 52.5221C2.77821 52.9913 4.48556 53.4936 7.2304 54.167C8.73396 54.5359 10.0939 54.8971 10.2525 54.9698C10.8264 55.2327 13.9063 57.6449 15.8715 59.3705L16.9741 60.3387L16.313 60.3801C15.9493 60.4028 15.6273 60.4461 15.5972 60.4763C15.5672 60.5065 15.7737 60.8043 16.056 61.138C16.742 61.9489 18.8342 64.8893 19.5984 66.1163C20.7189 67.9157 21.5391 69.6808 22.3907 72.1256C22.6046 72.7398 22.8163 73.2869 22.861 73.3416C22.9057 73.3962 23.1163 73.4634 23.329 73.491C26.4259 73.8921 30.0738 75.3846 33.4495 77.6319C35.5933 79.0592 37.2644 80.5945 38.7699 82.5202C39.1374 82.9902 39.4607 83.3748 39.4885 83.3748C39.5162 83.3748 39.6381 83.1236 39.7592 82.8165C39.8803 82.5094 40.3886 81.216 40.8887 79.9422C42.3227 76.2895 43.057 74.6973 44.3464 72.4447C45.4652 70.4902 47.3277 67.8324 48.0025 67.2273C48.2643 66.9926 51.8524 66.4738 54.5032 66.2876L55.3024 66.2314L56.16 67.0097C56.6317 67.4377 57.5791 68.2952 58.2653 68.9149L59.5129 70.0419L59.7419 70.8977C60.8423 75.0095 63.7575 80.0357 66.9975 83.4071C67.6507 84.0867 68.9298 85.1945 69.0614 85.1945C69.0926 85.1945 69.1831 85.0847 69.2625 84.9505C69.8373 83.9789 72.4525 80.663 74.0852 78.8358C75.3653 77.4032 77.8487 74.9151 79.4685 73.4425C80.1941 72.7828 80.6586 72.3014 80.6332 72.2354C80.5158 71.93 79.0684 69.4695 78.452 68.5275C76.7664 65.9515 75.3743 64.2692 72.7441 61.6295L70.8984 59.7771L71.5912 58.8585C71.9722 58.3533 72.5289 57.6545 72.8283 57.3054L73.3726 56.6708L74.05 57.1235C74.4227 57.3726 74.9999 57.7256 75.3328 57.908C76.0358 58.2933 75.9952 58.1746 76.0617 60.0366C76.0834 60.6439 76.1263 61.165 76.157 61.1947C76.2886 61.3216 78.6204 58.6525 79.7044 57.134L80.1026 56.5762L79.8259 55.2379L79.5493 53.8996L77.106 52.5835C75.7622 51.8596 74.1967 50.9856 73.6272 50.6412C72.4344 49.92 71.3036 49.3005 71.1834 49.3024C71.1379 49.3032 70.7609 49.5905 70.3458 49.941ZM137.779 54.6107C137.861 55.1346 138.719 58.8244 138.952 59.6519C139.063 60.0475 139.154 60.4027 139.154 60.4411C139.154 60.4797 138.912 60.6524 138.617 60.825C138.321 60.9975 137.533 61.5273 136.865 62.002C136.197 62.4768 135.634 62.8485 135.614 62.8281C135.586 62.8003 134.145 57.2845 134.001 56.6563C133.977 56.5516 134.819 55.9836 136.71 54.8275C137.212 54.5212 137.645 54.268 137.673 54.2649C137.702 54.2618 137.749 54.4173 137.779 54.6107ZM117.371 56.8703C118.121 57.3511 118.782 57.7914 118.841 57.8488C119.116 58.1161 119.771 63.2548 120.182 68.3621C120.273 69.4994 120.37 70.6381 120.397 70.8923L120.445 71.3548L118.654 72.9602C117.669 73.8433 116.826 74.5784 116.782 74.594C116.595 74.6586 113.591 72.468 113.472 72.1809C113.238 71.6161 112.743 64.5263 112.595 59.63L112.539 57.7633L112.861 57.5708C113.348 57.2806 115.856 55.9962 115.937 55.9962C115.976 55.9962 116.621 56.3895 117.371 56.8703Z" fill="white"/>
<g filter="url(#filter0_d)">
<rect x="160" y="84" width="55" height="23" rx="11.5" fill="#00FF75"/>
</g>
<path d="M171.726 101V91.872H175.282V90.248H166.182V91.872H169.738V101H171.726ZM183.805 101V99.39H178.471V96.38H183.035V94.784H178.471V91.858H183.707V90.248H176.497V101H183.805ZM192.694 101H194.794L190.748 90.248H188.354L184.308 101H186.338L187.276 98.368H191.756L192.694 101ZM187.85 96.772L189.502 92.152H189.53L191.182 96.772H187.85ZM204.354 90.248L201.498 98.55H201.47L198.614 90.248H195.856V101H197.774V93.174H197.802L200.574 101H202.31L205.082 93.132H205.11V101H207.07V90.248H204.354Z" fill="#1B1A43"/>
<defs>
<filter id="filter0_d" x="143" y="71" width="95" height="63" filterUnits="userSpaceOnUse" color-interpolation-filters="sRGB">
<feFlood flood-opacity="0" result="BackgroundImageFix"/>
<feColorMatrix in="SourceAlpha" type="matrix" values="0 0 0 0 0 0 0 0 0 0 0 0 0 0 0 0 0 0 127 0"/>
<feOffset dx="3" dy="7"/>
<feGaussianBlur stdDeviation="10"/>
<feColorMatrix type="matrix" values="0 0 0 0 0 0 0 0 0 1 0 0 0 0 0.458823 0 0 0 0.49 0"/>
<feBlend mode="normal" in2="BackgroundImageFix" result="effect1_dropShadow"/>
<feBlend mode="normal" in="SourceGraphic" in2="effect1_dropShadow" result="shape"/>
</filter>
</defs>
</svg>
