<svg width="143" height="96" viewBox="0 0 143 96" fill="none" xmlns="http://www.w3.org/2000/svg">
<circle cx="71.5" cy="24.5" r="71.5" fill="#131231"/>
<path fill-rule="evenodd" clip-rule="evenodd" d="M80.2123 11.3247C80.0989 11.5284 79.8303 11.8495 79.4857 12.1934C78.8431 12.8346 78.3363 13.1595 77.568 13.4229C76.5594 13.7686 76.5088 13.7733 73.6981 13.7805C71.2499 13.7869 70.8994 13.8043 70.0215 13.9632C69.149 14.1212 67.939 14.6623 67.1582 15.2438C66.9021 15.4345 66.3927 15.8889 66.0263 16.2537C65.6597 16.6184 65.3742 16.8794 65.3918 16.8336C65.5635 16.3856 65.6433 15.8974 65.667 15.1507C65.6894 14.4449 65.6786 14.2855 65.5832 13.9039C65.4616 13.4181 65.1737 12.7868 65.0032 12.6324C64.8932 12.5327 64.8917 12.5329 64.7931 12.6614C64.5586 12.9671 64.0193 13.5434 63.6829 13.8479C63.422 14.084 63.1587 14.255 62.7488 14.4546C62.0464 14.7966 61.581 14.9515 60.0358 15.3574C59.3712 15.5319 58.5512 15.7673 58.2134 15.8803C56.674 16.3955 55.4244 17.0948 54.5717 17.9181C54.0775 18.3952 53.7892 18.7808 53.4832 19.3736L53.2427 19.8396L53.0744 19.3285C52.6165 17.9379 51.4231 16.0824 50.5407 15.389C50.2304 15.1452 49.486 14.7391 49.3494 14.7391C49.2812 14.7391 49.2735 14.7903 49.3008 15.0638C49.3467 15.5244 49.2564 16.7043 49.1313 17.278C48.9801 17.9718 48.6973 18.8554 48.348 19.7266C47.7265 21.276 47.1869 22.2784 46.4389 23.2729C45.8867 24.0072 44.9179 25.4659 44.4456 26.2741C44.1839 26.722 43.7822 27.6295 43.7822 27.7727C43.7822 27.9047 43.6822 27.8135 43.4965 27.5124C43.0063 26.7171 42.082 25.7845 41.45 25.4472L41.1388 25.2811L41.1144 25.4002C41.101 25.4657 41.0756 25.6479 41.058 25.8051C41.0129 26.2077 40.8252 26.9315 40.3847 28.4027C40.1751 29.1028 39.9315 29.9696 39.8434 30.3289C39.2038 32.938 39.3143 35.4112 40.159 37.3906C40.2749 37.6621 40.3797 37.91 40.3921 37.9417C40.4085 37.9836 39.6811 37.9923 37.7264 37.9738C35.1956 37.9499 33.1853 38.0072 33.0087 38.1085C32.9666 38.1327 33.0762 38.3607 33.3548 38.8285C34.6212 40.9541 35.2682 42.5232 36.4967 46.4478C37.4364 49.4498 38.1378 51.3496 39.0362 53.3266C39.2776 53.8578 39.4751 54.2991 39.4751 54.3071C39.4751 54.3152 39.3291 54.2539 39.1508 54.1707C38.4763 53.8564 37.5757 53.7317 36.8797 53.8563C36.2681 53.9657 36.2664 53.9807 36.8043 54.5444C37.5663 55.3431 38.0146 56.0627 38.7243 57.6263C39.2574 58.8007 39.8922 60.0701 40.2184 60.6136C40.5694 61.1984 41.3144 62.1801 41.6759 62.5341C41.8354 62.6903 41.9659 62.8345 41.9659 62.8546C41.9659 62.8748 41.855 62.9285 41.7194 62.9741C41.3537 63.097 40.8279 63.5118 40.5257 63.9158C39.8743 64.7867 39.585 65.7826 39.6454 66.946C39.7788 69.5142 41.7212 71.7396 45.085 73.1781C46.1231 73.6221 46.8863 73.8444 47.6937 73.938C48.0898 73.9839 48.4252 74.0102 48.4391 73.9963C48.4529 73.9825 48.2923 73.8618 48.0821 73.7282C47.872 73.5946 47.6171 73.4325 47.5157 73.3679C47.4144 73.3033 47.0879 73.0561 46.7901 72.8187C44.8822 71.2969 43.5683 69.7024 42.9548 68.1643C42.4547 66.9104 42.4852 65.9082 43.0373 65.4526C43.2769 65.2549 43.5305 65.1855 44.0141 65.1855H44.4156L44.2479 65.3767C43.2283 66.5394 43.2947 67.8715 44.4288 69.0057C44.7093 69.2863 44.9077 69.4277 45.2837 69.6152C45.5529 69.7495 45.7839 69.8488 45.7968 69.8358C45.8098 69.8228 45.7575 69.7296 45.6806 69.6286C45.6037 69.5277 45.4662 69.2874 45.375 69.0947C45.224 68.7755 45.2094 68.7003 45.2112 68.2507C45.2136 67.6718 45.3315 67.3086 45.6303 66.959C45.8251 66.7312 46.1432 66.5363 46.3201 66.5363C46.4499 66.5363 47.2666 67.4789 48.7732 69.3677C49.3886 70.1392 49.9435 70.8166 50.0064 70.873L50.1208 70.9755L50.092 70.847C50.0647 70.7249 49.9977 69.4203 49.9255 67.6013C49.7747 63.8043 50.8039 56.8881 52.0342 53.4311C52.1536 53.0954 52.2697 52.8207 52.292 52.8207C52.3143 52.8207 52.3483 52.9318 52.3674 53.0675C52.4322 53.527 52.6568 54.2899 52.8897 54.8425C53.1159 55.3788 53.3657 55.8159 53.4169 55.7645C53.431 55.7505 53.4862 55.5384 53.5397 55.2933C53.8615 53.819 54.9137 51.2552 55.919 49.4957C56.6715 48.1786 58.7179 45.2054 58.9089 45.1516C59.0333 45.1165 60.2602 46.8144 61.6349 48.9242C62.6251 50.444 63.2859 51.3613 64.175 52.4506C64.6914 53.0834 64.7051 53.0883 64.7718 52.6648C64.7921 52.5362 64.9836 51.6712 65.1974 50.7426C65.7149 48.4957 66.2788 46.8104 67.3765 44.2299C67.7034 43.4614 68.7492 41.2635 68.8236 41.1886C68.8348 41.1773 69.0172 41.3326 69.2288 41.5339C69.9643 42.2334 70.9044 42.8557 72.3637 43.609C72.7836 43.8258 73.414 44.1668 73.7644 44.3668C74.1148 44.5668 74.4129 44.7191 74.4267 44.7052C74.4405 44.6913 74.4169 44.5962 74.3742 44.4938C74.1356 43.9223 73.914 42.8928 73.8488 42.0534C73.8069 41.5142 73.7718 41.5313 74.4657 41.7538C75.3872 42.0494 76.5528 42.7445 77.4603 43.5397C78.2174 44.2031 78.8575 45.0693 79.3791 46.1363C79.5445 46.4746 79.6933 46.7296 79.7097 46.7029C79.7684 46.6079 79.9985 45.3563 80.0512 44.8459C80.0835 44.5323 80.088 44.1204 80.0625 43.8068C80.0246 43.3409 80.0345 43.1415 80.0882 43.2873C80.137 43.4196 80.8216 44.4724 81.1174 44.8701C81.8932 45.9132 82.9939 47.0076 84.112 47.8474C85.5136 48.9002 87.0369 49.8542 88.7659 50.7618C90.1724 51.5001 91.5506 52.0831 91.6511 51.9824C91.6623 51.9712 91.589 51.8338 91.4882 51.677C91.1989 51.2271 90.5206 49.8197 90.3083 49.2289C90.1169 48.6964 89.7925 47.4703 89.8325 47.4303C89.8675 47.3953 90.5878 47.7294 90.9657 47.956C91.88 48.5042 92.7972 49.3369 93.466 50.2257C94.5847 51.7126 95.4392 53.9267 95.8512 56.4061C96.0177 57.408 96.2739 59.7278 96.3475 60.8994C96.378 61.3851 96.4377 62.18 96.4801 62.6658C96.6033 64.0752 96.6582 65.8164 96.6593 68.3503C96.6599 69.6481 96.6728 70.6975 96.688 70.6823C96.7031 70.6671 96.8511 70.2599 97.0168 69.7774C97.8477 67.3585 98.5682 66.2362 99.6059 65.7447C100.179 65.4733 100.609 65.5443 100.81 65.9435C100.92 66.1608 100.901 66.6564 100.766 67.1003C100.702 67.3104 100.661 67.4934 100.674 67.5067C100.731 67.5639 101.024 67.3501 101.305 67.0469C101.678 66.6435 101.867 66.247 102.009 65.5744C102.214 64.6013 102.081 63.906 101.606 63.4676C101.029 62.9348 100.28 62.8729 99.5179 63.2951C99.2989 63.4164 99.2926 63.4171 99.3881 63.3099C99.5669 63.1094 100.149 62.6926 100.471 62.5339C101.335 62.1092 102.459 62.1636 102.924 62.6527C103.328 63.0781 103.615 63.9225 103.651 64.7959C103.674 65.3376 103.66 65.4961 103.544 66.0059C103.471 66.3285 103.304 66.8428 103.173 67.1488C102.822 67.9681 102.186 69.1263 101.814 69.6229C101.396 70.1806 100.43 71.1431 99.4234 72.0055C98.988 72.3784 98.6401 72.6919 98.6504 72.7022C98.6754 72.7272 100.691 71.8712 101.149 71.6412C102.526 70.9492 104.261 69.4602 105.006 68.3313C105.599 67.4332 105.829 66.7256 105.878 65.6531C105.906 65.04 105.88 64.7504 105.71 63.7698L105.676 63.575L106.033 63.5769C106.23 63.5779 106.554 63.6107 106.753 63.6496C106.953 63.6885 107.126 63.7119 107.136 63.7015C107.147 63.6911 107.106 63.3604 107.045 62.9664C106.877 61.8772 106.832 61.3821 106.832 60.5973L106.831 59.8795L107.216 59.7016C107.428 59.6037 107.737 59.4856 107.904 59.439C108.275 59.3354 109.416 59.2857 109.736 59.3593C109.863 59.3888 109.979 59.4018 109.992 59.3884C110.041 59.3393 109.842 58.2909 109.707 57.8861C109.36 56.8472 108.609 55.7689 107.756 55.0854C107.444 54.8359 106.835 54.4734 106.427 54.2946C106.418 54.2909 106.573 53.9519 106.771 53.5413C107.624 51.7694 108.322 49.7003 108.722 47.7553C109.203 45.4151 109.291 42.893 108.932 41.7547C108.772 41.2494 108.409 40.5132 108.188 40.2487L108.038 40.0686L107.869 40.4051C107.581 40.979 106.801 42.1049 106.736 42.0402C106.725 42.0292 106.748 41.7325 106.786 41.3809C106.83 40.9883 106.856 40.1702 106.855 39.2609C106.853 37.6283 106.829 37.4574 106.471 36.6022C106.312 36.2242 105.84 35.5203 105.744 35.5203C105.717 35.5203 105.621 35.7599 105.531 36.0528C105.441 36.3457 105.274 36.8133 105.159 37.0919C104.953 37.5928 104.827 37.7566 104.9 37.4296C104.92 37.3367 104.935 36.5944 104.933 35.7801C104.928 34.2587 104.887 33.7522 104.647 32.2992C104.334 30.3999 103.567 28.2133 102.822 27.095C102.485 26.5892 102.214 26.3101 102.172 26.4259C102.101 26.6267 101.748 27.2414 101.396 27.7793C100.964 28.4396 100.296 29.3581 100.268 29.3299C100.258 29.32 100.153 29.0664 100.033 28.7664C99.2542 26.8048 97.9976 24.7446 96.405 22.8178C94.8093 20.8872 92.8074 19.0222 91.5294 18.2758C91.2212 18.0958 90.5748 17.8043 90.4839 17.8043C90.4644 17.8043 90.3972 18.079 90.3346 18.4148C90.1871 19.2047 89.8114 20.7782 89.756 20.8378C89.7007 20.8974 88.6463 19.2936 88.1203 18.3498C87.4195 17.0925 86.8074 15.7418 86.2778 14.2845C86.1818 14.0201 86.0832 13.8039 86.0586 13.8039C86.0341 13.8039 85.8233 13.9417 85.5902 14.1102C84.6104 14.818 83.6025 15.4083 82.8011 15.7436C82.2283 15.9832 81.2538 16.3209 81.2243 16.2901C81.2146 16.2799 81.2736 16.0718 81.3554 15.8276C81.4373 15.5833 81.5428 15.1625 81.5899 14.8924C81.7489 13.9814 81.6033 12.7975 81.2436 12.0766C81.0491 11.6868 80.5449 10.9978 80.4558 11C80.4208 11.0008 80.3112 11.147 80.2123 11.3247ZM74.1005 46.937C73.3901 48.4158 72.7855 49.9512 72.4228 51.1975C72.2501 51.7911 72.0635 52.681 72.0635 52.9113V53.0501L72.284 52.8407C72.5821 52.5577 72.8503 52.3443 72.8759 52.3698C72.8874 52.3814 72.8387 52.9142 72.7677 53.5539C72.6102 54.9713 72.5297 55.9848 72.5329 56.5068L72.5354 56.899L72.7161 56.2756C73.0964 54.9632 74.0379 52.4505 74.7826 50.7601C74.8854 50.5269 74.9694 50.3101 74.9694 50.2784C74.9694 50.2058 74.7884 50.3196 74.3365 50.6762C74.1454 50.827 73.9793 50.9504 73.9674 50.9504C73.9555 50.9504 73.9655 50.8393 73.9897 50.7036C74.0408 50.4173 74.4794 46.9125 74.5196 46.4694C74.5346 46.3051 74.5292 46.1707 74.5077 46.1707C74.4862 46.1707 74.303 46.5155 74.1005 46.937ZM60.4136 57.1656C57.338 57.4974 54.7453 59.6059 53.8076 62.5378C53.5306 63.4041 53.4634 63.8652 53.4634 64.8998C53.4634 65.9343 53.5306 66.3955 53.8076 67.2618C54.5688 69.6418 56.4556 71.5308 58.8328 72.2928C59.6883 72.5671 60.1579 72.6355 61.192 72.6368C62.2255 72.6381 62.6815 72.5716 63.5513 72.2928C65.9243 71.5322 67.8167 69.6379 68.5758 67.2636C68.7404 66.7486 68.898 66.0089 68.898 65.7513V65.6011H73.8537H78.8095V65.7513C78.8095 66.0089 78.9671 66.7486 79.1317 67.2636C79.8919 69.6414 81.7798 71.5311 84.1562 72.2928C85.0259 72.5716 85.482 72.6381 86.5155 72.6368C87.5496 72.6355 88.0191 72.5671 88.8747 72.2928C91.2519 71.5308 93.1387 69.6418 93.8998 67.2618C94.1769 66.3955 94.2441 65.9343 94.2441 64.8998C94.2441 63.8652 94.1769 63.4041 93.8998 62.5378C93.6715 61.8237 93.3886 61.2417 92.9527 60.5888C91.7802 58.8325 90.0303 57.6749 87.9147 57.256C87.5757 57.1889 87.1961 57.1636 86.5155 57.1628C85.482 57.1615 85.0259 57.228 84.1562 57.5067C81.7798 58.2685 79.8919 60.1582 79.1317 62.5359C78.9671 63.0509 78.8095 63.7907 78.8095 64.0483V64.1984H73.8537H68.898V64.0483C68.898 63.7907 68.7404 63.0509 68.5758 62.5359C67.817 60.1624 65.9239 58.2671 63.5531 57.5074C63.282 57.4205 62.8617 57.3105 62.6191 57.2629C62.19 57.1788 60.8425 57.1194 60.4136 57.1656ZM62.3111 58.6172C63.6321 58.8681 64.6802 59.4116 65.6364 60.3415C66.4109 61.0946 66.9511 61.9703 67.2787 63.0035C67.4831 63.6485 67.5664 64.1972 67.5664 64.8998C67.5664 65.6024 67.4831 66.1511 67.2787 66.7961C66.9511 67.8292 66.4109 68.7049 65.6364 69.4581C64.6711 70.3969 63.6273 70.9344 62.2752 71.1892C61.6463 71.3077 60.2796 71.2685 59.7131 71.1159C58.4197 70.7671 57.4406 70.1964 56.5727 69.2851C55.4247 68.0797 54.8352 66.592 54.8352 64.8998C54.8352 63.7988 55.0342 62.9608 55.5246 61.9969C55.9727 61.116 56.6575 60.3125 57.466 59.7192C58.1044 59.2507 59.1533 58.7909 59.9207 58.6434C60.0776 58.6132 60.2528 58.5793 60.3099 58.568C60.6038 58.5101 61.9171 58.5423 62.3111 58.6172ZM87.9944 58.6832C89.2653 59.0275 90.2461 59.5928 91.0865 60.4655C91.5786 60.9766 91.8737 61.389 92.1849 62.0006C92.6732 62.9607 92.8723 63.8002 92.8723 64.8998C92.8723 66.592 92.2828 68.0797 91.1348 69.2851C90.2668 70.1964 89.2878 70.7671 87.9944 71.1159C87.4279 71.2685 86.0612 71.3077 85.4323 71.1892C84.4851 71.0107 83.5682 70.6345 82.8571 70.1325C82.384 69.7986 81.6744 69.0944 81.3365 68.6233C80.4579 67.3987 80.0048 65.7556 80.1588 64.3523C80.3377 62.7199 80.9536 61.4281 82.071 60.3415C83.003 59.4351 83.9699 58.9217 85.2844 58.6353C85.9109 58.4988 87.4115 58.5253 87.9944 58.6832Z" fill="#00FF75"/>
</svg>
