<svg width="153" height="44" viewBox="0 0 153 44" fill="none" xmlns="http://www.w3.org/2000/svg">
<path fill-rule="evenodd" clip-rule="evenodd" d="M138.641 4.50642C137.659 5.94724 136.557 7.28636 135.244 8.63468C134.893 8.99515 134.571 9.33042 134.527 9.37967L134.448 9.46924L134.519 9.65707C134.7 10.1413 135.356 11.1281 136.934 13.2875C138.02 14.7741 138.467 15.4231 138.987 16.2686C139.325 16.8186 139.493 17.1316 139.476 17.1775C139.448 17.2504 138.104 18.1751 138.074 18.1422C138.024 18.0882 137.643 17.6365 137.273 17.1939L136.908 16.7578L136.891 15.9187C136.875 15.1198 136.799 14.3661 136.728 14.292C136.693 14.256 136.496 14.3886 135.434 15.1596C134.564 15.7913 134.073 16.1704 133.941 16.3124L133.861 16.3974L134.055 16.6671C134.547 17.3523 135.054 18.2544 135.682 19.56C136.367 20.9823 137.178 22.7602 137.382 23.2822C137.426 23.3959 137.473 23.5018 137.487 23.5175C137.501 23.5331 137.585 23.4127 137.674 23.2497C137.881 22.8694 138.373 22.1286 138.683 21.7313C139.869 20.2082 141.738 18.5485 143.375 17.565C143.493 17.4937 143.59 17.416 143.59 17.3921C143.59 17.3216 142.942 16.2684 142.617 15.8099C141.578 14.3478 139.518 12.0869 138.042 10.7891L137.513 10.3241L137.686 10.1687C137.88 9.99548 138.498 9.4223 139.016 8.93625L139.355 8.61717L140.053 9.3317L140.751 10.0462L140.684 10.2538C140.557 10.6482 140.569 11.6444 140.705 11.9725L140.746 12.0706L140.866 11.9036C141.158 11.4953 142.053 10.6906 142.835 10.1322C143.051 9.9777 143.233 9.83784 143.239 9.82137C143.251 9.78959 142.841 9.24464 142.164 8.3935C141.193 7.17129 140.314 5.96779 139.491 4.73165C139.222 4.32886 138.999 3.99959 138.994 4C138.99 4.00038 138.831 4.22829 138.641 4.50642ZM92.7033 5.01074C92.86 5.36476 93.0638 6.12153 93.1503 6.67028C93.3966 8.23379 93.4144 8.54328 93.4457 11.8055C93.467 14.032 93.4857 14.8122 93.5267 15.1841C93.556 15.4501 93.5917 15.6982 93.606 15.7355C93.638 15.819 94.0221 16.4482 94.2143 16.732C94.6171 17.3267 96.7289 20.2301 96.7595 20.2313C96.7831 20.2322 97 19.9291 97.5485 19.1292C97.9948 18.4783 98.9948 17.1303 99.0312 17.1303C99.0708 17.1303 100.153 18.5376 100.688 19.2843C100.959 19.6634 101.209 20.0092 101.243 20.0527L101.304 20.1318L101.47 19.8536C101.976 19.0064 102.323 18.5403 103.15 17.5959C103.909 16.7288 104.283 16.3304 104.633 16.018C104.806 15.864 104.978 15.6966 105.017 15.646L105.086 15.554L105.012 14.5069C104.878 12.6104 104.856 12.0663 104.836 10.2C104.823 8.84988 104.828 8.28987 104.859 8.11751C104.927 7.72609 105.097 7.24387 105.314 6.82833C105.47 6.53008 105.508 6.4282 105.475 6.40707C105.132 6.19308 101.623 5.01891 101.518 5.08336C101.501 5.09373 101.539 5.22422 101.602 5.37331C101.868 6.00391 102.091 6.84553 102.224 7.72145C102.314 8.31406 102.315 8.35462 102.314 10.0478C102.313 10.9956 102.302 12.1108 102.289 12.526L102.265 13.281L101.963 13.6806C101.603 14.1588 101.048 14.7997 100.983 14.8144C100.957 14.8202 100.926 14.8084 100.913 14.7883C100.869 14.7165 100.791 13.6148 100.754 12.5313C100.716 11.4277 100.749 9.58697 100.827 8.37627C100.845 8.10141 100.859 7.70207 100.86 7.48881C100.86 7.14675 100.854 7.10108 100.802 7.10108C100.729 7.10108 100.213 7.39224 99.8246 7.65341C99.1897 8.07987 98.5396 8.65574 98.3371 8.97116L98.2292 9.13924L98.2505 10.0588C98.2622 10.5646 98.2869 11.2653 98.3054 11.6159C98.3238 11.9666 98.3557 12.6413 98.3763 13.1151C98.3969 13.589 98.4211 14.0342 98.4302 14.1043C98.4464 14.2304 98.4376 14.2412 97.679 15.0177C97.2568 15.4498 96.7754 15.9491 96.6091 16.1273C96.4429 16.3055 96.3015 16.445 96.295 16.4375C96.264 16.4017 96.1621 12.7784 96.1469 11.1679L96.1297 9.35851L96.3215 8.23141C96.5542 6.86452 96.6059 6.39043 96.554 6.09634C96.5335 5.98013 96.5125 5.88162 96.5073 5.87745C96.5021 5.87328 96.0555 5.76503 95.5149 5.63689C94.4556 5.38582 93.4313 5.10297 92.9649 4.93271C92.8048 4.87426 92.6621 4.82643 92.6478 4.82643C92.6335 4.82643 92.6585 4.90938 92.7033 5.01074ZM116.983 5.33478C116.97 5.46274 116.959 6.05595 116.961 6.65304C116.963 7.60961 116.978 7.89766 117.085 9.07576C117.152 9.81117 117.207 10.4421 117.207 10.4778C117.207 10.5396 117.198 10.5388 117.009 10.4622C116.656 10.3187 116.349 10.2315 116.277 10.2542C116.183 10.2841 116.189 10.3592 116.307 10.6387C116.803 11.8108 117.397 14.5642 117.878 17.9229C118.105 19.5073 118.315 21.3497 118.363 22.1621C118.397 22.7492 118.392 22.7454 118.607 22.351C119.063 21.5133 119.572 19.3602 119.665 17.8768L119.673 17.7444L119.837 17.87C119.928 17.939 120.015 17.9873 120.031 17.9772C120.048 17.9672 120.072 17.8151 120.085 17.6394C120.111 17.3038 120.243 16.532 120.32 16.2697L120.365 16.1156L120.496 16.3214C120.715 16.6672 121.094 17.4697 121.24 17.896C121.395 18.3537 121.56 18.9463 121.967 20.51L122.25 21.5979L123.031 21.6395C124.245 21.7043 124.951 21.8184 125.778 22.0831C126.263 22.2387 126.952 22.5104 127.213 22.6497C127.325 22.7094 127.424 22.7507 127.434 22.7415C127.443 22.7322 127.436 22.6795 127.419 22.6243C127.402 22.5691 127.346 22.3844 127.295 22.2138C127.134 21.674 126.833 21.1545 126.288 20.4733C125.91 20.0014 125.305 19.4011 124.916 19.1116C124.599 18.8759 124.552 18.8276 124.533 18.7189C124.424 18.0859 124.142 17.2654 123.779 16.5271C123.17 15.2852 122.312 14.2144 121.493 13.6743C121.375 13.5963 121.285 13.5267 121.292 13.5196C121.314 13.4978 122.155 13.309 122.564 13.2341C122.776 13.1953 123.132 13.1516 123.354 13.1371C123.577 13.1226 123.769 13.1009 123.781 13.0889C123.792 13.077 123.777 12.3258 123.747 11.4196C123.717 10.5135 123.687 9.5004 123.681 9.16833L123.67 8.56455L123.508 8.31324C123.195 7.82967 122.119 6.44216 121.539 5.7742C121.407 5.62256 121.288 5.48459 121.273 5.4676C121.258 5.44996 121.168 5.4704 121.063 5.51517C120.839 5.61132 120.034 6.05736 119.715 6.26187L119.481 6.41211L119.198 6.18167C118.826 5.87908 118.468 5.64796 118.106 5.47574C117.81 5.33526 117.158 5.10214 117.061 5.10214C117.022 5.10214 117.002 5.16159 116.983 5.33478ZM131.727 5.2278C130.792 5.28787 129.964 5.36035 129.312 5.43913C128.3 5.56159 127.884 5.55652 126.038 5.39926C125.233 5.33064 124.563 5.28611 124.549 5.30035C124.504 5.34736 124.414 6.18085 124.385 6.82688C124.347 7.65069 124.408 9.18374 124.483 9.30522C124.499 9.33138 124.654 9.23547 124.936 9.02517C125.476 8.62145 125.83 8.40753 126.186 8.27053C126.871 8.00629 127.395 8.00409 127.872 8.2634C128.203 8.44317 128.197 8.43028 128.163 8.96217C128.146 9.21807 128.13 10.3767 128.128 11.5368L128.123 13.6461L128.006 13.5357C127.942 13.475 127.777 13.2857 127.64 13.1151C127.502 12.9445 127.351 12.7692 127.303 12.7254L127.217 12.6458L127.194 12.8014C127.155 13.062 127.296 14.1611 127.489 15.0969C127.957 17.362 128.973 20.3732 129.902 22.2482C130.186 22.8218 130.262 22.9479 130.3 22.91C130.312 22.8976 130.32 22.3637 130.317 21.7235C130.314 21.0833 130.327 20.0787 130.346 19.4911C130.382 18.4178 130.472 16.9381 130.505 16.8846C130.53 16.8436 130.68 17.0258 130.949 17.4232L131.181 17.7678L131.16 17.4921C131.048 16.0452 131.049 10.5869 131.16 8.69506L131.183 8.30734H131.313C131.518 8.30734 132.093 8.4705 132.409 8.61807C132.962 8.87745 133.52 9.32659 133.754 9.70198C133.839 9.83842 133.859 9.85442 133.88 9.80114C133.958 9.59966 134.012 8.48097 134.016 6.95595C134.02 5.45361 134.016 5.34198 133.958 5.28442C133.902 5.22821 133.809 5.22246 132.907 5.21918C132.362 5.21722 131.831 5.22108 131.727 5.2278ZM64.0757 5.40594C64.687 6.37374 65.1638 8.1021 65.4587 10.4196C65.7191 12.4657 65.775 13.4474 65.7281 15.1485L65.7006 16.148L65.4592 16.1472C64.9111 16.1453 64.4195 15.7276 64.2333 15.1055C64.2092 15.0249 64.1778 14.959 64.1636 14.959C64.1161 14.959 63.9562 15.1734 63.8567 15.3703C63.6559 15.7678 63.5969 16.0345 63.5969 16.5444C63.5969 17.0841 63.646 17.2611 63.8932 17.6133C64.2496 18.1211 64.9647 18.4494 65.4757 18.3399C65.5765 18.3183 65.6671 18.3088 65.6771 18.3187C65.6871 18.3287 65.6607 18.7282 65.6184 19.2064C65.5573 19.8986 65.524 20.1288 65.4552 20.335C65.3335 20.6999 65.0791 21.2201 64.8099 21.6547C64.6833 21.8589 64.5798 22.0334 64.5798 22.0424C64.5798 22.0513 64.6458 22.0587 64.7264 22.0588C64.9446 22.059 65.4896 22.154 65.7031 22.229C65.9971 22.3322 66.3407 22.5832 66.6868 22.9472C67.4007 23.6984 67.7822 24.3442 68.4804 25.9836L68.7355 26.5827L68.7653 25.7424C68.7906 25.0304 68.7853 24.794 68.7312 24.1955C68.6767 23.5934 68.6666 23.122 68.6629 21.0075C68.6601 19.378 68.6449 18.409 68.6187 18.1849C68.5862 17.9069 68.5874 17.8336 68.6247 17.7886C68.8624 17.5026 69.1624 17.2073 69.8394 16.5926C70.7394 15.7756 71.0244 15.5289 71.0447 15.5492C71.0984 15.6029 71.1483 16.7686 71.1471 17.9402C71.1451 19.7431 71.07 20.6606 70.7521 22.7652C70.6948 23.1443 70.638 23.5243 70.6258 23.6096L70.6035 23.7647L70.709 23.6785C70.767 23.6311 70.9014 23.5218 71.0077 23.4356C71.7797 22.8096 73.1265 22.3447 74.3668 22.2763C74.5809 22.2645 74.7628 22.2439 74.771 22.2307C74.7792 22.2174 74.7611 22.1073 74.7306 21.9861C74.6831 21.7966 74.5976 21.6046 74.4195 21.287C74.354 21.1702 74.1055 18.9102 74.0647 18.0608C74.0443 17.6343 74.0055 16.8744 73.9785 16.372C73.9516 15.8697 73.9193 15.1069 73.9067 14.677L73.8838 13.8953L74.0327 13.8552C74.3122 13.78 74.5129 13.8484 74.8603 14.1373L75.0743 14.3153L75.0496 13.8922C75.0064 13.1541 74.834 12.4348 74.6731 12.3214C74.5514 12.2356 74.1736 12.1329 73.98 12.1329H73.8L73.7397 11.2971C73.7065 10.8374 73.6574 10.2287 73.6305 9.9444C73.6036 9.66007 73.5667 9.07693 73.5486 8.64854C73.5136 7.82449 73.5183 7.7587 73.6827 6.75644C73.7551 6.31557 73.7681 6.10823 73.732 5.97375L73.7116 5.89762L73.5342 6.00128C72.907 6.36785 72.4619 6.53669 71.8568 6.6376C71.5521 6.6884 71.3612 6.69474 70.6482 6.67772C70.1825 6.66659 69.7799 6.67083 69.7535 6.68713C69.7148 6.71105 69.737 6.78363 69.8687 7.06331C70.3263 8.03556 70.5573 9.13593 70.7341 11.1851C70.7816 11.7348 70.8294 12.2854 70.8405 12.4086L70.8605 12.6326L70.6338 12.7487C70.0163 13.0648 69.0987 13.7053 68.6097 14.1617L68.3494 14.4046L68.3275 13.1739C68.3155 12.4971 68.2826 11.5168 68.2544 10.9956C68.2262 10.4743 68.2027 9.84356 68.2021 9.59394C68.201 9.14131 68.3194 6.99524 68.3593 6.74551C68.3829 6.59707 68.3603 6.57002 68.0957 6.43106C67.716 6.23165 67.0679 6.04988 65.7614 5.7764C65.4344 5.70796 64.9072 5.56704 64.5899 5.46323C64.2725 5.35939 64.0083 5.27446 64.0028 5.27446C63.9972 5.27446 64.03 5.33364 64.0757 5.40594ZM88.2381 5.49531C87.1654 5.81549 86.5761 6.082 85.8143 6.59156C85.2071 6.99769 85.0942 7.18807 84.8978 8.13647C84.4654 10.2248 84.4031 12.618 84.7231 14.8556C84.8113 15.4722 85.0503 16.642 85.132 16.8568C85.2844 17.2577 86.1164 18.263 86.6689 18.7139C87.2267 19.1691 88.337 19.9511 88.7809 20.2014L88.9271 20.2838L89.1551 20.1662C89.894 19.7852 91.8358 18.3259 92.4766 17.6701L92.6629 17.4794L92.6393 16.9516C92.5604 15.1832 92.4035 12.8325 92.3408 12.4798C92.3226 12.3768 92.3076 12.2441 92.3076 12.1848C92.3076 12.1256 92.2876 12.0497 92.2631 12.0163C92.2213 11.9592 92.1973 11.9639 91.8751 12.0931C90.7719 12.5352 88.6828 13.5984 88.6257 13.7467C88.616 13.7718 88.6273 13.8564 88.6507 13.9346C88.727 14.1891 89.3016 14.6643 89.8865 14.9565C90.0058 15.0161 90.1121 15.0871 90.1224 15.1141C90.1328 15.1412 90.0638 15.3616 89.9691 15.604C89.8743 15.8463 89.7615 16.1561 89.7183 16.2925C89.6429 16.5306 89.6349 16.5412 89.5166 16.5605C89.2015 16.612 88.5767 16.4564 88.1628 16.2234C87.7577 15.9954 87.7324 15.9608 87.6345 15.5019C87.2567 13.7307 87.1812 11.8334 87.4092 9.83443C87.4442 9.52748 87.4823 9.261 87.4939 9.24222C87.5253 9.19146 88.3922 8.61377 88.6586 8.46608L88.8894 8.33812L88.9457 8.42404C89.0379 8.56469 89.1678 8.9692 89.1683 9.11726C89.1685 9.19308 89.1458 9.42571 89.1179 9.63422C89.0887 9.85218 89.0669 10.2898 89.0665 10.6639L89.0658 11.3144L89.5747 10.8017C90.1103 10.2621 90.7622 9.69961 91.5661 9.08307C91.8317 8.87942 92.0537 8.68507 92.0595 8.65116C92.0654 8.61728 92 8.44992 91.9142 8.27925C91.5346 7.52393 90.8611 6.70919 89.968 5.92477C89.597 5.59898 89.5129 5.5417 89.3127 5.47822C88.9248 5.35525 88.6952 5.3589 88.2381 5.49531ZM79.6469 6.19336C78.2613 7.01961 77.0085 8.05375 76.3344 8.9277C76.0054 9.35424 76.0185 9.31012 76.0433 9.90642C76.0552 10.1927 76.0804 11.1093 76.0993 11.9433C76.1551 14.4005 76.2006 15.8711 76.2383 16.441C76.2793 17.0605 76.3903 18.2516 76.448 18.6929L76.4879 18.9976L76.7472 19.1754C77.3151 19.5648 77.9386 20.0332 79.728 21.4153C80.0908 21.6955 80.3652 21.8843 80.3937 21.8733C80.4528 21.8507 81.6474 21.0375 82.9098 20.1606L83.841 19.5137L84.1082 18.9064C84.2553 18.5723 84.3755 18.2584 84.3755 18.2089C84.3755 18.1593 84.3059 17.6676 84.2209 17.1162C84.0267 15.8572 83.887 14.7513 83.6003 12.2018C83.3869 10.3048 83.2424 9.21345 83.1657 8.92091C83.1056 8.69148 82.2497 7.7252 81.4846 7.02295C81.0022 6.58008 80.3009 5.98274 80.1987 5.9275C80.1578 5.90544 80.0112 5.97609 79.6469 6.19336ZM110.189 6.2293C110.036 6.25008 109.553 6.38171 109.537 6.40704C109.53 6.41913 109.49 6.62289 109.45 6.85983C109.337 7.51724 109.061 8.78216 108.742 10.0995C108.584 10.7535 108.42 11.4436 108.377 11.6332C108.334 11.8227 108.295 11.9834 108.289 11.9903C108.284 11.9972 108.172 11.932 108.042 11.8454C107.793 11.6797 107.632 11.6044 107.587 11.632C107.573 11.6411 107.534 11.7459 107.501 11.8649C107.456 12.0313 106.895 13.8594 106.649 14.6425C106.629 14.7054 106.621 14.7646 106.63 14.7742C106.646 14.7895 106.981 14.3927 107.426 13.8319C107.504 13.7333 107.585 13.6519 107.605 13.651C107.655 13.6488 107.792 13.8397 107.792 13.9115C107.792 14.0949 107.277 15.6596 106.929 16.5293C106.761 16.9506 106.127 18.4001 105.865 18.9637C105.669 19.3841 105.494 19.9039 105.412 20.3067C105.335 20.6818 105.276 21.6872 105.334 21.6279C105.353 21.6089 105.465 21.4496 105.584 21.2739C105.86 20.8673 106.189 20.4918 106.715 19.9864C107.651 19.0867 108.852 18.2567 109.681 17.9375C109.818 17.8845 109.931 17.8267 109.931 17.8092C109.931 17.7916 109.813 17.6566 109.67 17.5093L109.409 17.2414L109.481 16.6775C109.572 15.9597 109.681 15.2663 109.705 15.2423C109.724 15.2226 110.376 15.8349 110.592 16.0754L110.719 16.2169L111.127 16.217C111.901 16.2171 112.466 16.2353 112.507 16.2616C112.569 16.3008 112.785 17.1917 112.833 17.6024L112.875 17.9605L113.239 18.2652C114.052 18.9448 114.703 19.7632 115.265 20.8114L115.463 21.1792L115.497 21.0417C115.545 20.8466 115.54 19.3605 115.489 18.8879C115.333 17.4411 114.729 13.9821 114.471 13.0634C114.426 12.9023 114.311 12.4836 114.215 12.1329C113.979 11.2651 113.8 10.7258 113.476 9.89705C113.325 9.51088 113.147 9.03785 113.08 8.84589C112.88 8.26871 112.657 7.72568 112.46 7.33141L112.273 6.9586L112.364 6.73218C112.436 6.55151 112.445 6.50002 112.409 6.47759C112.332 6.43044 111.828 6.30323 111.517 6.25284C111.25 6.20942 110.442 6.19515 110.189 6.2293ZM120.7 9.39673C120.912 9.48186 121.151 9.56054 121.232 9.5716C121.369 9.59028 121.397 9.57884 121.622 9.41482C121.756 9.3175 121.87 9.23788 121.877 9.23788C121.883 9.23788 121.9 9.35034 121.913 9.48775C121.937 9.73693 122.088 10.568 122.129 10.6741C122.148 10.7247 122.098 10.7283 121.596 10.7123L121.041 10.6946L120.888 10.8537C120.701 11.0483 120.37 11.4865 120.147 11.8345L119.981 12.0937L119.764 10.5882C119.645 9.76026 119.539 9.03265 119.529 8.97137L119.51 8.85991L119.913 9.05098C120.134 9.15603 120.488 9.31164 120.7 9.39673ZM80.4413 10.494C80.7172 10.9399 81.0734 11.4591 81.4196 11.92L81.7645 12.3792L81.7451 13.1779C81.7343 13.6173 81.6783 14.5894 81.6206 15.3381C81.5629 16.0868 81.5034 16.8756 81.4885 17.0908L81.4613 17.4822L81.1509 17.5621C80.7824 17.6569 80.6086 17.7116 80.301 17.8294L80.0718 17.9171L79.6125 17.4326L79.1531 16.948L79.0414 16.0828C78.8534 14.6271 78.7841 13.7121 78.7638 12.4198C78.7536 11.772 78.7548 11.2041 78.7664 11.1579C78.778 11.1117 78.9708 10.8198 79.1948 10.5092C79.4188 10.1985 79.6692 9.84559 79.7512 9.7248L79.9004 9.50519L80.0968 9.87989C80.2048 10.086 80.3598 10.3623 80.4413 10.494ZM111.292 12.133C111.437 12.5547 111.985 14.3491 112.026 14.5368C112.042 14.614 112.041 14.6143 111.616 14.612L111.189 14.6097L110.694 14.0948L110.198 13.5799L110.515 12.8492C110.798 12.1984 111.089 11.6249 111.121 11.6565C111.127 11.6628 111.204 11.8772 111.292 12.133ZM123.536 23.8207C122.748 24.0286 121.119 24.3414 119.846 24.5293C119.248 24.6174 117.666 24.6174 117.229 24.5293C117.061 24.4953 116.918 24.4734 116.911 24.4805C116.904 24.4876 116.983 24.9111 117.088 25.4215C117.465 27.2603 117.736 29.0323 117.93 30.9161C118.061 32.1953 118.075 32.5582 118.071 34.7658L118.068 36.9441L118.267 36.8749C118.574 36.7681 119.224 36.6156 119.587 36.5652C119.999 36.508 121.18 36.5079 121.777 36.565C122.385 36.6231 123.125 36.7247 123.719 36.8317C123.99 36.8805 124.217 36.9149 124.222 36.9081C124.227 36.9012 124.321 36.7251 124.43 36.5165C125.03 35.3686 125.752 34.3878 126.76 33.3496C127.31 32.7838 127.859 32.2763 128.333 31.8966L128.674 31.6225L129.399 31.647C130.416 31.6813 131.4 31.7391 131.661 31.7797C131.806 31.8024 131.929 31.8475 132.02 31.9111C132.096 31.9644 132.46 32.223 132.83 32.4859C133.727 33.1232 135.27 34.1519 136.331 34.8193C136.805 35.1178 137.309 35.4639 137.452 35.5885C137.769 35.8665 139.06 36.844 139.109 36.844C139.129 36.844 139.226 36.7692 139.325 36.6778C139.423 36.5865 139.619 36.4132 139.761 36.2929C139.903 36.1725 140.322 35.7642 140.692 35.3855C141.063 35.0067 141.606 34.4794 141.9 34.2136C142.531 33.6432 144.512 31.987 145.062 31.5699L145.446 31.2779L145.642 30.7108C145.75 30.3988 145.941 29.9047 146.066 29.6128L146.293 29.0819L146.554 28.9616C147.064 28.7263 147.681 28.4608 147.975 28.3505C148.144 28.2867 148.389 28.1567 148.544 28.0482C148.693 27.9435 148.999 27.7478 149.223 27.6133C149.628 27.37 149.632 27.3671 149.826 27.0585C149.934 26.8878 150.102 26.6344 150.199 26.4954L150.375 26.2426L150.682 26.2006C151.176 26.1327 152.41 25.9928 152.746 25.9666C152.954 25.9504 153.033 25.9334 152.987 25.9149C152.885 25.8739 151.059 25.6778 150.555 25.6537L150.116 25.6327L149.672 25.9368C149.429 26.104 148.973 26.4264 148.66 26.6533L148.091 27.0659L147.505 27.2173C147.182 27.3007 146.856 27.3993 146.78 27.4366C146.644 27.5034 145.807 28.0829 144.983 28.68L144.56 28.9871L144.37 29.5638C144.266 29.8811 144.111 30.3792 144.026 30.6709C143.94 30.9626 143.858 31.2133 143.842 31.2281C143.804 31.2648 142.959 31.5376 142.941 31.5192C142.933 31.5112 142.944 31.4351 142.965 31.3501C143.044 31.0363 143.057 31.0414 142.581 31.1982L142.159 31.3375L141.423 32.0659C140.495 32.9845 139.716 33.8063 139.157 34.4576C138.917 34.737 138.705 34.9712 138.687 34.978C138.669 34.9847 138.402 34.7429 138.096 34.4404C137.297 33.6537 136.442 32.9145 136.283 32.8735C136.262 32.8679 136.19 32.9796 136.125 33.1218C136.059 33.264 135.992 33.3803 135.974 33.3803C135.957 33.3803 135.574 33.018 135.123 32.5753C134.673 32.1325 134.333 31.779 134.369 31.7897C134.526 31.837 135.352 32.0623 135.982 32.2296L136.669 32.4119L136.879 32.2963C137.982 31.6903 139.363 30.7543 140.262 30.0031C140.669 29.6629 141.262 29.0946 141.236 29.0689C141.227 29.0603 140.865 29.1472 140.431 29.262C139.079 29.6193 135.772 30.4335 135.669 30.4342C135.436 30.4357 131.762 29.8631 130.692 29.6586C130.36 29.5951 129.779 29.4939 129.401 29.4337L128.714 29.3241L128.421 29.4725C126.668 30.3608 123.922 32.7789 122.899 34.3352L122.747 34.5663L122.59 34.5436C122.503 34.531 122.125 34.5201 121.75 34.5192L121.068 34.5176L121.09 33.9145C121.125 32.9749 121.016 31.7537 120.846 31.1814L120.795 31.0107L121.697 31.0258L122.6 31.0408L122.753 31.2111C122.837 31.3047 123.045 31.5674 123.216 31.7949C123.386 32.0224 123.54 32.224 123.559 32.2429C123.58 32.2649 123.585 31.6354 123.573 30.5064C123.563 29.5324 123.547 28.7276 123.538 28.718C123.528 28.7084 123.363 28.8191 123.171 28.964L122.822 29.2273L121.851 29.2278C121.317 29.228 120.845 29.2376 120.803 29.249L120.725 29.2698L120.725 28.8091C120.725 28.5558 120.701 28.1391 120.671 27.8832C120.622 27.4563 120.473 26.6077 120.427 26.4865C120.41 26.4437 120.466 26.4355 120.782 26.4346C120.988 26.434 121.342 26.4111 121.57 26.3836C121.798 26.3562 122.009 26.3334 122.041 26.333C122.163 26.3314 123.165 27.133 123.95 27.8609C124.58 28.4446 124.526 28.4265 124.41 28.0136C124.219 27.3365 124.008 25.932 123.878 24.4712C123.845 24.1016 123.809 23.7897 123.798 23.7781C123.786 23.7665 123.669 23.7857 123.536 23.8207ZM103.568 24.2959C102.549 24.7117 101.196 25.5178 100.701 26.004C100.503 26.1981 100.487 26.2263 100.45 26.4357C100.309 27.2483 100.187 29.8942 100.217 31.4847C100.25 33.1818 100.397 34.8891 100.535 35.1586C100.591 35.2686 101.312 35.9624 101.757 36.3353C102.508 36.9645 103.362 37.551 104.074 37.9279L104.441 38.1218L104.694 37.9584C105.924 37.1646 107.742 35.7842 108.389 35.1535C108.58 34.9673 108.621 34.9092 108.607 34.8417C108.597 34.7961 108.58 34.6038 108.569 34.4142C108.538 33.9047 108.371 32.4348 108.118 30.4508C107.765 27.6781 107.613 26.6724 107.481 26.2232L107.413 25.9935L106.956 25.7036C105.723 24.921 104.9 24.5085 104.122 24.2833C103.955 24.235 103.817 24.1959 103.814 24.1964C103.811 24.197 103.7 24.2417 103.568 24.2959ZM113.126 24.304C113.024 24.3567 111.506 25.2398 110.893 25.6024C110.806 25.6542 110.798 25.6506 110.548 25.4403C110.408 25.322 110.161 25.1485 110 25.0546C109.667 24.8611 109.066 24.6152 108.892 24.6012C108.778 24.5921 108.775 24.5952 108.782 24.7141C108.786 24.7814 108.867 25.1769 108.962 25.593C109.294 27.0428 109.479 28.0912 109.828 30.4853C109.944 31.2814 110.083 32.1964 110.136 32.5187C110.189 32.8409 110.228 33.1095 110.223 33.1155C110.218 33.1215 110.137 33.0876 110.043 33.0402C109.814 32.9243 109.473 32.8116 109.35 32.8116H109.25L109.524 33.6129C110.382 36.1324 111.02 38.828 111.315 41.1776C111.358 41.5234 111.404 41.7948 111.416 41.7808C111.488 41.7016 111.723 40.5492 111.808 39.8596C111.927 38.9022 111.986 37.5026 111.938 36.775C111.922 36.5381 111.912 36.3399 111.915 36.3345C111.919 36.3292 112.018 36.4749 112.135 36.6583C112.254 36.8449 112.361 36.9782 112.377 36.961C112.423 36.9123 112.573 36.2239 112.686 35.5491C112.792 34.9169 112.874 34.2498 112.915 33.6799C112.928 33.5035 112.944 33.3644 112.95 33.3709C112.957 33.3773 113.024 33.6234 113.1 33.9177C113.36 34.9268 113.546 35.9384 113.731 37.3437C113.793 37.8213 113.808 38.1013 113.809 38.8586L113.81 39.7876L114.345 39.8639C115.477 40.0256 117.031 40.4164 118.124 40.8142C118.285 40.8727 118.426 40.9112 118.437 40.8997C118.47 40.8668 118.247 40.2317 118.095 39.9285C117.718 39.1722 116.904 38.1981 116.201 37.6614L115.97 37.4853L115.95 37.2594C115.816 35.7716 115.65 34.7841 115.309 33.432C115.065 32.4658 114.72 31.4526 114.465 30.9489C114.418 30.8563 114.379 30.7738 114.379 30.7656C114.379 30.7574 114.491 30.7794 114.628 30.8145C115.001 30.9103 115.22 30.9315 115.266 30.8761C115.287 30.8507 115.322 30.7058 115.345 30.5542C115.367 30.4025 115.484 29.7667 115.606 29.1411C115.727 28.5156 115.848 27.8674 115.874 27.7006L115.922 27.3974L115.785 27.1847C115.709 27.0677 115.451 26.7467 115.211 26.4712C114.97 26.1958 114.5 25.6447 114.166 25.2466C113.832 24.8486 113.491 24.4581 113.409 24.379L113.259 24.2351L113.126 24.304ZM98.774 24.4905C98.4515 24.5347 97.854 24.5956 97.4462 24.6258C97.0384 24.656 96.3323 24.7103 95.877 24.7465C94.307 24.8713 93.6523 24.8937 92.1697 24.8733C91.1085 24.8586 90.6988 24.8643 90.5852 24.895C90.4399 24.9343 90.4297 24.9453 90.3877 25.1088C90.3634 25.2036 90.3163 25.4982 90.2832 25.7636C90.1958 26.4628 90.1963 28.4869 90.2839 29.1908C90.318 29.4645 90.3539 29.7015 90.3638 29.7174C90.3736 29.7333 90.467 29.6101 90.5714 29.4437C91.0343 28.7055 92.2131 27.2766 92.4248 27.197C92.5654 27.1442 93.0741 27.1513 93.3514 27.21C93.5949 27.2616 93.9718 27.4143 94.0308 27.4854C94.0819 27.547 94.1244 27.9026 94.2038 28.9343C94.2804 29.9301 94.3674 30.957 94.4001 31.2524L94.4202 31.4337L94.183 31.2949C93.7094 31.0178 93.0786 30.826 92.5318 30.7928C92.1217 30.7678 92.0866 30.7919 92.2139 31.0101C92.3304 31.2099 92.8474 32.2632 93.0388 32.691C93.5374 33.8052 93.9204 35.0818 94.3208 36.9646C94.7975 39.2055 95.2278 41.583 95.4485 43.1942C95.5102 43.6445 95.5664 44.0071 95.5736 43.9999C95.5961 43.9774 95.7504 42.7812 95.8143 42.1343C95.8639 41.6317 95.8757 41.1802 95.8762 39.7562C95.8768 38.1271 95.8699 37.9178 95.7822 36.8957C95.6709 35.5989 95.596 34.91 95.5338 34.6124C95.5091 34.4939 95.5017 34.397 95.5174 34.397C95.5719 34.397 96.1834 35.0021 96.4402 35.3103C96.9563 35.9295 97.0427 36.0203 97.0803 35.9827C97.2346 35.8285 97.0433 30.7251 96.7902 28.2411C96.7517 27.8642 96.7109 27.4615 96.6995 27.3462L96.6786 27.1366L96.9848 27.0944C97.1532 27.0711 97.4617 27.0136 97.6704 26.9666C97.879 26.9197 98.0832 26.8895 98.124 26.8995C98.2413 26.9284 98.8658 27.564 99.057 27.8492C99.1525 27.9917 99.3272 28.2903 99.4452 28.5128C99.5631 28.7353 99.6727 28.9093 99.6887 28.8994C99.9246 28.7537 99.8745 24.8649 99.6317 24.4798C99.5717 24.3846 99.5446 24.3849 98.774 24.4905ZM85.2856 24.8088C83.8386 26.0317 82.5567 27.0989 81.9786 27.5619C81.5993 27.8658 81.2593 28.1477 81.2232 28.1884C81.1597 28.2598 81.1596 28.2646 81.2201 28.3314C81.2545 28.3694 81.5169 28.5819 81.8031 28.8036C82.6923 29.4923 83.0955 29.8414 83.7239 30.4669C84.5197 31.2589 85.0335 31.9141 85.4552 32.6746L85.5799 32.8996L85.069 33.5832C84.7881 33.9591 84.5442 34.2646 84.5272 34.262C84.5102 34.2594 84.4049 34.0988 84.2932 33.905C83.0109 31.6792 80.8917 29.6675 78.5816 28.4831L78.323 28.3505L77.5643 28.3538C76.1303 28.36 75.0821 28.5199 72.5119 29.1243C70.7641 29.5353 70.1038 29.6781 69.8491 29.6998C69.6328 29.7183 69.6201 29.724 69.6538 29.7869C69.7049 29.8823 70.0112 30.0133 70.3217 30.0727C70.699 30.1449 71.3072 30.1348 72.4774 30.037C73.0369 29.9902 73.906 29.9338 74.4087 29.9115L75.3226 29.8709L75.633 29.975C75.8037 30.0323 76.0636 30.1074 76.2106 30.142C76.3577 30.1766 76.4779 30.2139 76.4779 30.225C76.4779 30.236 76.3343 30.2813 76.1589 30.3256C75.7017 30.4412 74.7448 30.7598 74.6307 30.8345C74.5376 30.8954 74.248 31.4524 74.0283 31.9929C73.9546 32.1742 73.9273 32.2029 73.7041 32.3347C73.3729 32.5301 72.4391 33.1403 71.986 33.4574C71.5569 33.7577 71.5971 33.6745 71.458 34.5521C71.4069 34.8743 71.3604 35.1433 71.3547 35.1498C71.349 35.1563 71.1684 35.0245 70.9533 34.8569C69.3938 33.6412 67.4496 32.6045 66.2783 32.364C66.1459 32.3368 66.0627 32.3022 66.0627 32.2745C66.0627 32.1546 65.8756 31.6628 65.7394 31.4244C65.6553 31.2775 65.5987 31.1573 65.6134 31.1573C65.6282 31.1573 65.7143 31.1987 65.8049 31.2493L65.9697 31.3414L65.9448 31.2407C65.8465 30.8428 65.192 29.6988 64.7328 29.1221C64.0025 28.2052 62.8042 27.034 61.9587 26.4109C61.3188 25.9392 61.3527 25.9533 60.857 25.9525C59.4911 25.9506 57.6132 25.7876 56.3052 25.5573C56.1453 25.5292 56.0083 25.5123 56.0008 25.5197C55.9787 25.5418 56.4064 25.7706 56.6821 25.8842C57.1566 26.0797 57.8674 26.289 59.0101 26.5696C59.636 26.7233 60.2022 26.8738 60.2682 26.9041C60.5071 27.0136 61.7893 28.0187 62.6075 28.7377L63.0665 29.1411L62.7912 29.1584C62.6398 29.1678 62.5058 29.1859 62.4933 29.1985C62.4808 29.211 62.5667 29.3351 62.6843 29.4742C62.9698 29.8121 63.8409 31.0372 64.159 31.5485C64.6255 32.2982 64.9669 33.0337 65.3215 34.0523C65.4105 34.3082 65.4986 34.5362 65.5172 34.559C65.5358 34.5818 65.6235 34.6098 65.7121 34.6212C67.0013 34.7884 68.52 35.4103 69.9253 36.3466C70.8178 36.9413 71.5135 37.5811 72.1403 38.3834C72.2933 38.5792 72.4279 38.7395 72.4394 38.7395C72.451 38.7395 72.5017 38.6348 72.5521 38.5069C72.6025 38.3789 72.8141 37.84 73.0223 37.3092C73.6193 35.7873 73.925 35.1239 74.4618 34.1853C74.9276 33.3709 75.7029 32.2635 75.9839 32.0114C76.0929 31.9136 77.5866 31.6974 78.6902 31.6198L79.0229 31.5964L79.3799 31.9207C79.5763 32.0991 79.9707 32.4563 80.2564 32.7146L80.7758 33.1841L80.8711 33.5407C81.3292 35.2539 82.5428 37.3482 83.8917 38.7529C84.1636 39.0361 84.6961 39.4977 84.7509 39.4977C84.7639 39.4977 84.8015 39.452 84.8346 39.3961C85.0739 38.9912 86.1626 37.6096 86.8423 36.8483C87.3753 36.2513 88.4091 35.2146 89.0834 34.601C89.3855 34.3262 89.5789 34.1256 89.5683 34.0981C89.5195 33.9708 88.9169 32.9456 88.6603 32.5531C87.9585 31.4798 87.379 30.7788 86.284 29.679L85.5156 28.9071L85.804 28.5244C85.9627 28.3139 86.1944 28.0227 86.3191 27.8773L86.5457 27.6128L86.8277 27.8015C86.9828 27.9052 87.2231 28.0523 87.3617 28.1283C87.6544 28.2889 87.6375 28.2394 87.6652 29.0153C87.6742 29.2683 87.6921 29.4854 87.7048 29.4978C87.7596 29.5507 88.7304 28.4385 89.1817 27.8058L89.3474 27.5734L89.2323 27.0158L89.1171 26.4582L88.0999 25.9098C87.5405 25.6082 86.8888 25.244 86.6517 25.1005C86.1551 24.8 85.6843 24.5419 85.6343 24.5427C85.6153 24.543 85.4584 24.6627 85.2856 24.8088ZM113.359 26.7545C113.393 26.9727 113.75 28.5102 113.847 28.8549C113.893 29.0198 113.931 29.1678 113.931 29.1838C113.931 29.1999 113.83 29.2718 113.707 29.3438C113.584 29.4156 113.256 29.6364 112.978 29.8342C112.7 30.032 112.466 30.1869 112.457 30.1784C112.446 30.1668 111.846 27.8685 111.786 27.6068C111.776 27.5632 112.126 27.3265 112.914 26.8448C113.122 26.7172 113.303 26.6117 113.315 26.6104C113.326 26.6091 113.346 26.6739 113.359 26.7545ZM104.863 27.696C105.175 27.8963 105.45 28.0797 105.475 28.1036C105.589 28.215 105.862 30.3561 106.033 32.4842C106.071 32.9581 106.111 33.4325 106.122 33.5385L106.143 33.7312L105.397 34.4001C104.987 34.768 104.636 35.0743 104.617 35.0808C104.54 35.1077 103.289 34.195 103.24 34.0754C103.142 33.84 102.936 30.886 102.874 28.8458L102.851 28.0681L102.985 27.9879C103.188 27.8669 104.232 27.3317 104.266 27.3317C104.282 27.3317 104.55 27.4956 104.863 27.696Z" fill="white"/>
<path fill-rule="evenodd" clip-rule="evenodd" d="M30.6573 0.21132C30.5837 0.343859 30.4093 0.552877 30.1855 0.776636C29.7682 1.19393 29.4391 1.40541 28.9402 1.5768C28.2853 1.80178 28.2524 1.80482 26.4273 1.80955C24.8376 1.81368 24.61 1.82501 24.0399 1.92843C23.4734 2.03125 22.6877 2.38342 22.1807 2.76183C22.0144 2.88595 21.6836 3.1817 21.4456 3.41908C21.2076 3.65643 21.0222 3.82626 21.0336 3.79644C21.1451 3.50493 21.197 3.18721 21.2123 2.70128C21.2269 2.24193 21.2199 2.13819 21.1579 1.88982C21.079 1.57366 20.892 1.16286 20.7813 1.06234C20.7099 0.997488 20.7089 0.997623 20.6449 1.08124C20.4926 1.28018 20.1424 1.65521 19.924 1.85337C19.7545 2.00704 19.5836 2.11831 19.3174 2.24821C18.8613 2.47079 18.5591 2.57158 17.5557 2.83574C17.1242 2.94935 16.5917 3.10251 16.3723 3.17608C15.3727 3.51138 14.5613 3.96644 14.0076 4.50224C13.6867 4.81276 13.4995 5.0637 13.3008 5.44952L13.1446 5.75277L13.0353 5.42014C12.738 4.51516 11.963 3.30757 11.3901 2.85633C11.1886 2.69766 10.7052 2.43336 10.6165 2.43336C10.5722 2.43336 10.5672 2.46673 10.5849 2.64468C10.6148 2.94445 10.5561 3.71235 10.4749 4.08569C10.3767 4.5372 10.1931 5.11226 9.9662 5.67919C9.56266 6.68753 9.21228 7.33991 8.72659 7.98715C8.36799 8.46503 7.73891 9.4143 7.43221 9.94029C7.26228 10.2318 7.0014 10.8223 7.0014 10.9156C7.0014 11.0014 6.9365 10.9421 6.81594 10.7461C6.49757 10.2286 5.89741 9.62163 5.48702 9.40216L5.28491 9.29403L5.26908 9.37156C5.26038 9.4142 5.2439 9.53277 5.23245 9.63505C5.20316 9.89705 5.08132 10.3681 4.79527 11.3256C4.65914 11.7812 4.50097 12.3453 4.44375 12.5791C4.02841 14.2771 4.10019 15.8867 4.64869 17.1748C4.72394 17.3515 4.79204 17.5129 4.80009 17.5335C4.81071 17.5607 4.33838 17.5664 3.06911 17.5544C1.42571 17.5388 0.120316 17.5761 0.00568106 17.642C-0.021714 17.6578 0.0494525 17.8062 0.230402 18.1106C1.05273 19.494 1.47289 20.5151 2.27061 23.0692C2.88078 25.0229 3.33622 26.2592 3.91961 27.5459C4.07636 27.8916 4.20461 28.1788 4.20461 28.184C4.20461 28.1893 4.10982 28.1493 3.99401 28.0952C3.55602 27.8907 2.97126 27.8095 2.51929 27.8906C2.12211 27.9618 2.12103 27.9716 2.47033 28.3384C2.96516 28.8582 3.25626 29.3265 3.71709 30.3441C4.06322 31.1084 4.47543 31.9345 4.68727 32.2882C4.91516 32.6688 5.39894 33.3077 5.6337 33.5381C5.73729 33.6397 5.82203 33.7336 5.82203 33.7467C5.82203 33.7598 5.74999 33.7947 5.66197 33.8244C5.42445 33.9044 5.08307 34.1743 4.88682 34.4373C4.4638 35.0041 4.27594 35.6522 4.3152 36.4093C4.40183 38.0807 5.66312 39.5289 7.84738 40.4651C8.52148 40.7541 9.01705 40.8987 9.54136 40.9597C9.7986 40.9895 10.0164 41.0066 10.0254 40.9976C10.0344 40.9886 9.93005 40.9101 9.79358 40.8231C9.65714 40.7362 9.49163 40.6307 9.42578 40.5886C9.35997 40.5466 9.14796 40.3857 8.95461 40.2312C7.71573 39.2408 6.86254 38.2032 6.46418 37.2022C6.13942 36.3861 6.1592 35.7339 6.51773 35.4374C6.6733 35.3087 6.83801 35.2636 7.15202 35.2636H7.41273L7.30386 35.388C6.64176 36.1447 6.68486 37.0116 7.42129 37.7498C7.60345 37.9324 7.73224 38.0244 7.97641 38.1464C8.15126 38.2338 8.30124 38.2984 8.30963 38.29C8.31805 38.2815 8.28409 38.2208 8.23415 38.1552C8.18421 38.0895 8.09491 37.9331 8.03571 37.8076C7.93765 37.5999 7.92815 37.551 7.92936 37.2584C7.93091 36.8816 8.00744 36.6453 8.2015 36.4178C8.32796 36.2695 8.53452 36.1427 8.64939 36.1427C8.73373 36.1427 9.26404 36.7561 10.2423 37.9854C10.6419 38.4874 11.0023 38.9283 11.0431 38.965L11.1174 39.0317L11.0987 38.948C11.0809 38.8686 11.0375 38.0195 10.9906 36.8358C10.8927 34.3647 11.561 29.8637 12.3599 27.6139C12.4374 27.3954 12.5128 27.2166 12.5273 27.2166C12.5418 27.2166 12.5638 27.2889 12.5763 27.3772C12.6183 27.6763 12.7641 28.1728 12.9154 28.5324C13.0623 28.8815 13.2245 29.1659 13.2578 29.1325C13.2669 29.1234 13.3027 28.9853 13.3375 28.8258C13.5464 27.8663 14.2297 26.1978 14.8825 25.0527C15.3711 24.1956 16.6999 22.2607 16.824 22.2256C16.9047 22.2028 17.7014 23.3078 18.5941 24.6808C19.2371 25.6699 19.6662 26.2669 20.2435 26.9758C20.5788 27.3876 20.5877 27.3908 20.631 27.1152C20.6442 27.0315 20.7686 26.4686 20.9074 25.8642C21.2434 24.402 21.6096 23.3052 22.3224 21.6258C22.5347 21.1257 23.2138 19.6953 23.2621 19.6465C23.2694 19.6392 23.3878 19.7403 23.5252 19.8713C24.0028 20.3265 24.6133 20.7315 25.5608 21.2217C25.8335 21.3628 26.2428 21.5847 26.4704 21.7149C26.6979 21.8451 26.8915 21.9442 26.9004 21.9351C26.9094 21.9261 26.8941 21.8642 26.8663 21.7976C26.7114 21.4256 26.5676 20.7556 26.5252 20.2094C26.498 19.8584 26.4752 19.8696 26.9258 20.0144C27.5241 20.2067 28.281 20.6591 28.8703 21.1766C29.3619 21.6083 29.7776 22.1721 30.1163 22.8665C30.2237 23.0867 30.3203 23.2526 30.331 23.2353C30.3691 23.1734 30.5185 22.3589 30.5527 22.0267C30.5737 21.8226 30.5766 21.5546 30.5601 21.3505C30.5354 21.0473 30.5419 20.9175 30.5768 21.0124C30.6084 21.0984 31.053 21.7837 31.245 22.0424C31.7488 22.7213 32.4636 23.4335 33.1896 23.9801C34.0997 24.6652 35.0889 25.286 36.2116 25.8767C37.1249 26.3572 38.0199 26.7366 38.0852 26.6711C38.0924 26.6638 38.0448 26.5744 37.9794 26.4724C37.7915 26.1795 37.351 25.2636 37.2132 24.8791C37.0889 24.5326 36.8783 23.7346 36.9042 23.7086C36.9269 23.6858 37.3947 23.9032 37.6401 24.0507C38.2338 24.4075 38.8294 24.9494 39.2636 25.5279C39.9901 26.4955 40.5449 27.9364 40.8125 29.55C40.9206 30.2021 41.087 31.7117 41.1347 32.4742C41.1545 32.7903 41.1933 33.3076 41.2209 33.6238C41.3008 34.541 41.3365 35.6742 41.3372 37.3232C41.3376 38.1678 41.346 38.8507 41.3558 38.8409C41.3656 38.831 41.4617 38.566 41.5694 38.252C42.1089 36.6777 42.5768 35.9473 43.2506 35.6275C43.6226 35.4509 43.9018 35.4971 44.0326 35.7569C44.1037 35.8983 44.0914 36.2208 44.0038 36.5097C43.9624 36.6465 43.9355 36.7655 43.9442 36.7742C43.9813 36.8114 44.1716 36.6723 44.3537 36.475C44.596 36.2124 44.7191 35.9544 44.8112 35.5167C44.9444 34.8834 44.858 34.4309 44.5496 34.1456C44.1747 33.7988 43.6883 33.7586 43.1934 34.0333C43.0512 34.1122 43.0471 34.1127 43.1092 34.0429C43.2253 33.9124 43.6031 33.6412 43.8126 33.538C44.3734 33.2616 45.1031 33.297 45.405 33.6152C45.6676 33.8921 45.8536 34.4416 45.8773 35.01C45.892 35.3626 45.8829 35.4657 45.8078 35.7975C45.7604 36.0074 45.652 36.3422 45.5669 36.5413C45.3393 37.0745 44.9261 37.8282 44.6844 38.1514C44.4129 38.5144 43.7858 39.1408 43.1321 39.702C42.8493 39.9447 42.6235 40.1487 42.6301 40.1554C42.6463 40.1717 43.9554 39.6146 44.2527 39.4649C45.147 39.0146 46.2737 38.0455 46.7572 37.3109C47.1419 36.7264 47.2915 36.2658 47.3233 35.5679C47.3415 35.1689 47.3247 34.9804 47.2142 34.3422L47.1922 34.2155L47.4241 34.2167C47.5517 34.2174 47.7621 34.2387 47.8918 34.264C48.0216 34.2893 48.1335 34.3046 48.1405 34.2978C48.1476 34.2911 48.121 34.0758 48.0814 33.8194C47.9719 33.1106 47.943 32.7884 47.9427 32.2776L47.9424 31.8105L48.1922 31.6947C48.3296 31.631 48.5305 31.5541 48.6387 31.5238C48.8796 31.4564 49.6211 31.424 49.8285 31.472C49.9114 31.4911 49.9863 31.4996 49.9951 31.4909C50.0269 31.4589 49.8977 30.7766 49.8099 30.5132C49.5846 29.8371 49.0967 29.1353 48.5427 28.6905C48.3404 28.5281 47.9448 28.2922 47.6797 28.1758C47.6742 28.1734 47.7748 27.9528 47.9032 27.6856C48.4574 26.5324 48.9104 25.1859 49.17 23.9201C49.4823 22.3972 49.5396 20.7557 49.3064 20.0149C49.2028 19.6861 48.9668 19.207 48.8236 19.0348L48.7261 18.9177L48.6164 19.1366C48.4292 19.5101 47.9225 20.2429 47.8805 20.2008C47.8734 20.1936 47.8881 20.0005 47.9132 19.7717C47.9413 19.5162 47.9585 18.9838 47.9579 18.392C47.9567 17.3295 47.9407 17.2183 47.7082 16.6618C47.6054 16.4158 47.2985 15.9577 47.2364 15.9577C47.2186 15.9577 47.1563 16.1136 47.0981 16.3042C47.0398 16.4948 46.9312 16.7991 46.8566 16.9804C46.7225 17.3064 46.6407 17.413 46.688 17.2002C46.7015 17.1397 46.7112 16.6567 46.7096 16.1267C46.7066 15.1366 46.6796 14.807 46.5241 13.8614C46.3207 12.6253 45.8227 11.2023 45.3387 10.4745C45.1199 10.1454 44.944 9.96369 44.9171 10.0391C44.8705 10.1697 44.6415 10.5698 44.4129 10.9199C44.1323 11.3496 43.6984 11.9473 43.6805 11.929C43.6741 11.9225 43.6056 11.7575 43.5282 11.5623C43.0222 10.2857 42.2062 8.94491 41.1721 7.69093C40.1359 6.43453 38.836 5.22082 38.0061 4.73506C37.8059 4.61787 37.3863 4.4282 37.3272 4.4282C37.3145 4.4282 37.2709 4.60699 37.2302 4.82547C37.1345 5.3396 36.8905 6.36359 36.8545 6.40241C36.8186 6.44115 36.134 5.39745 35.7924 4.78321C35.3374 3.96496 34.9398 3.08591 34.596 2.13752C34.5336 1.96549 34.4696 1.82477 34.4536 1.82477C34.4377 1.82477 34.3009 1.91447 34.1495 2.02408C33.5132 2.48475 32.8588 2.86888 32.3384 3.08709C31.9664 3.24303 31.3337 3.46283 31.3145 3.44275C31.3082 3.43616 31.3465 3.30071 31.3996 3.14176C31.4528 2.98279 31.5213 2.70892 31.5519 2.53317C31.6552 1.94027 31.5606 1.16979 31.327 0.700664C31.2007 0.446982 30.8733 -0.00141669 30.8154 3.3648e-06C30.7927 0.000544337 30.7216 0.0956539 30.6573 0.21132ZM26.6886 23.3876C26.2273 24.35 25.8347 25.3492 25.5992 26.1602C25.4871 26.5466 25.3659 27.1257 25.3659 27.2756V27.3659L25.5091 27.2297C25.7026 27.0455 25.8768 26.9066 25.8934 26.9232C25.9009 26.9308 25.8693 27.2775 25.8232 27.6938C25.7209 28.6162 25.6686 29.2758 25.6707 29.6155L25.6723 29.8708L25.7896 29.465C26.0366 28.611 26.648 26.9757 27.1316 25.8756C27.1983 25.7239 27.2529 25.5828 27.2529 25.5621C27.2529 25.5149 27.1353 25.5889 26.8419 25.821C26.7178 25.9191 26.6099 25.9994 26.6022 25.9994C26.5945 25.9994 26.601 25.9272 26.6167 25.8388C26.6498 25.6525 26.9346 23.3716 26.9608 23.0833C26.9705 22.9763 26.967 22.8889 26.953 22.8889C26.9391 22.8889 26.8201 23.1133 26.6886 23.3876ZM17.8011 30.0443C15.8039 30.2602 14.1203 31.6324 13.5115 33.5405C13.3316 34.1043 13.2879 34.4044 13.2879 35.0776C13.2879 35.7509 13.3316 36.051 13.5115 36.6148C14.0057 38.1637 15.2309 39.3931 16.7745 39.889C17.3301 40.0675 17.635 40.112 18.3065 40.1128C18.9776 40.1137 19.2737 40.0704 19.8385 39.889C21.3794 39.3939 22.6082 38.1612 23.1012 36.616C23.208 36.2809 23.3104 35.7994 23.3104 35.6318V35.5341H26.5284H29.7464V35.6318C29.7464 35.7994 29.8488 36.2809 29.9557 36.616C30.4493 38.1634 31.6752 39.3932 33.2183 39.889C33.7831 40.0704 34.0792 40.1137 34.7503 40.1128C35.4218 40.112 35.7267 40.0675 36.2823 39.889C37.8259 39.3931 39.0511 38.1637 39.5453 36.6148C39.7253 36.051 39.7689 35.7509 39.7689 35.0776C39.7689 34.4044 39.7253 34.1043 39.5453 33.5405C39.3971 33.0758 39.2134 32.6969 38.9304 32.272C38.169 31.1291 37.0326 30.3757 35.6589 30.1031C35.4388 30.0594 35.1923 30.043 34.7503 30.0424C34.0792 30.0416 33.7831 30.0849 33.2183 30.2663C31.6752 30.762 30.4493 31.9918 29.9557 33.5392C29.8488 33.8744 29.7464 34.3558 29.7464 34.5235V34.6212H26.5284H23.3104V34.5235C23.3104 34.3558 23.208 33.8744 23.1012 33.5392C22.6084 31.9946 21.3791 30.7611 19.8397 30.2667C19.6636 30.2102 19.3907 30.1386 19.2332 30.1076C18.9546 30.0529 18.0796 30.0142 17.8011 30.0443ZM19.0332 30.989C19.8909 31.1522 20.5716 31.5059 21.1925 32.1111C21.6954 32.6013 22.0462 33.1712 22.2589 33.8435C22.3916 34.2633 22.4457 34.6204 22.4457 35.0776C22.4457 35.5349 22.3916 35.892 22.2589 36.3117C22.0462 36.9841 21.6954 37.554 21.1925 38.0442C20.5656 38.6551 19.8879 39.0049 19.0099 39.1707C18.6015 39.2478 17.714 39.2224 17.3462 39.123C16.5063 38.8961 15.8705 38.5246 15.3069 37.9316C14.5615 37.1471 14.1787 36.1789 14.1787 35.0776C14.1787 34.3611 14.3079 33.8158 14.6264 33.1885C14.9173 32.6152 15.362 32.0923 15.887 31.7061C16.3015 31.4012 16.9827 31.102 17.481 31.006C17.5829 30.9864 17.6966 30.9643 17.7337 30.957C17.9245 30.9193 18.7773 30.9402 19.0332 30.989ZM35.7106 31.0319C36.5359 31.256 37.1728 31.6239 37.7185 32.1919C38.0381 32.5244 38.2297 32.7928 38.4317 33.1909C38.7488 33.8157 38.8781 34.3621 38.8781 35.0776C38.8781 36.1789 38.4953 37.1471 37.7499 37.9316C37.1863 38.5246 36.5505 38.8961 35.7106 39.123C35.3428 39.2224 34.4553 39.2478 34.0469 39.1707C33.4319 39.0546 32.8365 38.8098 32.3747 38.4831C32.0675 38.2658 31.6068 37.8074 31.3873 37.5008C30.8168 36.7039 30.5226 35.6346 30.6226 34.7213C30.7388 33.659 31.1387 32.8183 31.8643 32.1111C32.4695 31.5213 33.0974 31.1872 33.9509 31.0008C34.3577 30.9119 35.3322 30.9292 35.7106 31.0319Z" fill="#00FF75"/>
</svg>
