<svg width="19" height="19" viewBox="0 0 19 19" fill="none" xmlns="http://www.w3.org/2000/svg">
<path fill-rule="evenodd" clip-rule="evenodd" d="M9.50043 1.7417C5.2155 1.74148 1.7417 5.21511 1.7417 9.50003C1.7417 10.6359 1.98621 11.7164 2.42606 12.6903C2.58615 13.0448 2.69978 13.2965 2.77827 13.4863C2.86112 13.6866 2.8821 13.7659 2.88593 13.7899C2.90237 13.8932 2.90429 13.932 2.90378 13.9581C2.90326 13.9842 2.8998 14.023 2.87932 14.1255C2.85871 14.2286 2.79264 14.3738 2.53253 14.8939L2.25697 15.445C2.18975 15.5794 2.12139 15.716 2.07498 15.8349C2.0266 15.9587 1.96392 16.153 1.9974 16.3796C2.03877 16.6596 2.19368 16.9103 2.42565 17.0726C2.61336 17.2038 2.81518 17.2347 2.94757 17.2468C3.07463 17.2584 3.22742 17.2584 3.37768 17.2584H9.50043C13.7851 17.2581 17.2584 13.7847 17.2584 9.50003C17.2584 5.21533 13.7851 1.74192 9.50043 1.7417ZM7.12503 11.7167C6.77525 11.7167 6.4917 11.4331 6.4917 11.0834C6.4917 10.7336 6.77525 10.45 7.12503 10.45H10.2917C10.6415 10.45 10.925 10.7336 10.925 11.0834C10.925 11.4331 10.6415 11.7167 10.2917 11.7167H7.12503ZM6.4917 7.9167C6.4917 8.26646 6.77525 8.55003 7.12503 8.55003H11.875C12.2248 8.55003 12.5084 8.26646 12.5084 7.9167C12.5084 7.56692 12.2248 7.28337 11.875 7.28337H7.12503C6.77525 7.28337 6.4917 7.56692 6.4917 7.9167Z" fill="#1B1A43"/>
</svg>
