<svg width="22" height="22" viewBox="0 0 22 22" fill="none" xmlns="http://www.w3.org/2000/svg">
<path fill-rule="evenodd" clip-rule="evenodd" d="M12.1438 2.13719C11.3893 1.97641 10.6104 1.97641 9.8559 2.13719C9.30333 2.25494 8.62012 2.57024 7.93835 2.95596C7.24039 3.35082 6.48538 3.85338 5.77561 4.39301C5.06704 4.93173 4.38884 5.51857 3.85109 6.08546C3.33749 6.62688 2.86684 7.23669 2.69981 7.82073C2.47458 8.60831 2.47469 9.46809 2.47486 10.8779V11.1219C2.47469 12.5318 2.47458 13.3915 2.69981 14.1791C2.86684 14.7632 3.33749 15.373 3.85109 15.9145C4.38884 16.4813 5.06704 17.0682 5.77561 17.6069C6.48538 18.1465 7.24039 18.6491 7.93835 19.044C8.62012 19.4296 9.30333 19.7449 9.8559 19.8627C10.6104 20.0234 11.3893 20.0234 12.1438 19.8627C12.6965 19.7449 13.3797 19.4296 14.0614 19.044C14.7593 18.6491 15.5144 18.1465 16.2242 17.6069C16.9327 17.0682 17.6109 16.4813 18.1486 15.9145C18.6622 15.373 19.1329 14.7632 19.2999 14.1791C19.5252 13.3916 19.5251 12.5319 19.5249 11.122V10.8779C19.5251 9.46809 19.5252 8.60831 19.2999 7.82073C19.1329 7.23669 18.6622 6.62688 18.1486 6.08546C17.6109 5.51857 16.9327 4.93173 16.2242 4.39301C15.5144 3.85338 14.7593 3.35082 14.0614 2.95596C13.3797 2.57024 12.6965 2.25494 12.1438 2.13719ZM10.8919 8.93744C12.0312 8.93744 12.9544 9.8607 12.9544 10.9999C12.9544 12.1392 12.0312 13.0624 10.8919 13.0624C9.75268 13.0624 8.8294 12.1392 8.8294 10.9999C8.8294 9.8607 9.75268 8.93744 10.8919 8.93744Z" fill="white"/>
</svg>
