<svg width="53" height="53" viewBox="0 0 53 53" fill="none" xmlns="http://www.w3.org/2000/svg">
<circle cx="26.5" cy="26.5" r="26.5" fill="#00FF75"/>
<path fill-rule="evenodd" clip-rule="evenodd" d="M26.9998 37.7999C26.7325 37.7999 26.411 37.7152 26.1132 37.6133C25.7896 37.5023 25.4063 37.3401 24.9868 37.1263C24.1477 36.6984 23.1357 36.0495 22.1391 35.1536C20.1411 33.3574 18.1849 30.5463 17.8559 26.5346C17.5681 23.0252 17.9543 20.5581 19.5744 19.0377C21.1575 17.5522 23.6974 17.2 26.9998 17.2C30.3021 17.2 32.8421 17.5522 34.4251 19.0377C36.0453 20.5581 36.4314 23.0252 36.1436 26.5346C35.8147 30.5463 33.8585 33.3574 31.8605 35.1536C30.8638 36.0495 29.8518 36.6984 29.0127 37.1263C28.5933 37.3401 28.21 37.5023 27.8863 37.6133C27.5886 37.7152 27.2671 37.7999 26.9998 37.7999ZM30.5654 23.6342C30.8779 23.9466 30.8779 24.4532 30.5654 24.7656L26.5654 28.7656C26.253 29.0781 25.7465 29.0781 25.4341 28.7656L23.434 26.7656C23.1216 26.4532 23.1216 25.9467 23.434 25.6343C23.7465 25.3218 24.253 25.3218 24.5654 25.6343L25.9998 27.0686L29.4341 23.6342C29.7465 23.3218 30.253 23.3218 30.5654 23.6342Z" fill="#1B1A43"/>
</svg>
