<svg width="42" height="42" viewBox="0 0 42 42" fill="none" xmlns="http://www.w3.org/2000/svg">
<rect width="42" height="42" rx="10" fill="#00FF75"/>
<path d="M26.5726 11.5144C27.3461 11.6492 28.0825 11.9365 28.6071 12.4886C29.1267 13.0356 29.3925 13.7953 29.5176 14.591C29.6446 15.3983 29.6405 16.3302 29.5466 17.3152C29.3586 19.2871 28.7989 21.5871 28.0649 23.7664C27.3306 25.9462 26.4073 28.0485 25.4699 29.6216C25.003 30.4051 24.515 31.0875 24.0243 31.5847C23.5659 32.0492 22.9619 32.4997 22.2643 32.4997C21.258 32.4997 20.53 32.0355 20.0092 31.3631C18.8375 29.8505 18.6461 27.8203 17.8332 26.1088C17.6482 25.7193 17.6773 25.2507 17.9546 24.9206L21.8657 20.2654C22.1782 19.953 22.1782 19.4464 21.8657 19.134C21.5533 18.8216 21.0468 18.8216 20.7344 19.134L15.894 23.2007C15.588 23.4578 15.1593 23.5047 14.7899 23.352C13.3615 22.7614 11.7453 22.4346 10.5641 21.4208C9.91871 20.8669 9.5 20.1171 9.5 19.1057C9.5 18.4203 9.90339 17.8039 10.3528 17.3125C10.8254 16.7957 11.4754 16.2804 12.2225 15.7872C13.7214 14.7975 15.7237 13.8232 17.7995 13.0484C19.874 12.2742 22.0678 11.6821 23.9534 11.4829C24.8953 11.3834 25.792 11.3783 26.5726 11.5144Z" fill="#1B1A43"/>
</svg>
