<svg width="19" height="19" viewBox="0 0 19 19" fill="none" xmlns="http://www.w3.org/2000/svg">
<path fill-rule="evenodd" clip-rule="evenodd" d="M5.60076 3.72642C5.49222 4.16695 5.49609 4.66328 5.60349 5.21578C4.72849 5.4055 3.97902 5.70773 3.40431 6.19369C2.06558 7.32569 1.96385 9.16813 2.57695 11.6609L2.62588 11.8602C2.82013 12.6519 2.99911 13.3814 3.22392 14.0117C3.47045 14.703 3.78883 15.3268 4.29096 15.8363C5.30818 16.8686 6.90196 17.2583 9.49997 17.2583C12.0981 17.2583 13.6918 16.8686 14.7091 15.8363C15.2112 15.3268 15.5295 14.703 15.7761 14.0117C16.0009 13.3814 16.1799 12.6519 16.3741 11.8602L16.423 11.6609C17.0362 9.16813 16.9344 7.32569 15.5956 6.19369C15.0209 5.70769 14.2713 5.40545 13.3963 5.21574C13.5037 4.66325 13.5075 4.16694 13.399 3.72642C13.2543 3.13915 12.9222 2.70275 12.4828 2.39854C11.6604 1.82925 10.484 1.74166 9.49989 1.74166C8.51577 1.74166 7.33932 1.82925 6.51699 2.39854C6.07759 2.70275 5.74545 3.13915 5.60076 3.72642ZM6.83065 4.02943C6.77437 4.25789 6.76461 4.57811 6.85645 5.02186C7.64139 4.93997 8.52416 4.90833 9.49997 4.90833C10.4757 4.90833 11.3584 4.93997 12.1433 5.02184C12.2352 4.5781 12.2254 4.25789 12.1692 4.02943C12.1035 3.76319 11.9656 3.58109 11.7618 3.43999C11.2976 3.11867 10.4949 3.00833 9.49989 3.00833C8.50485 3.00833 7.70212 3.11867 7.23799 3.43999C7.03417 3.58109 6.89624 3.76319 6.83065 4.02943ZM6.7291 8.70873C6.7291 9.14596 7.08354 9.50079 7.52077 9.50079C7.95796 9.50079 8.31247 9.14596 8.31247 8.70873C8.31247 8.27149 7.95796 7.91666 7.52077 7.91666C7.08354 7.91666 6.7291 8.27149 6.7291 8.70873ZM11.4791 9.50079C11.0419 9.50079 10.6875 9.14596 10.6875 8.70873C10.6875 8.27149 11.0419 7.91666 11.4791 7.91666C11.9163 7.91666 12.2708 8.27149 12.2708 8.70873C12.2708 9.14596 11.9163 9.50079 11.4791 9.50079Z" fill="#1B1A43"/>
</svg>
