<svg width="82" height="82" viewBox="0 0 82 82" fill="none" xmlns="http://www.w3.org/2000/svg">
<path d="M68.2245 49.6732C64.4754 64.9167 63.2085 71.75 41.0002 71.75C18.7919 71.75 17.5253 64.9167 13.7761 49.6732C8.54414 28.401 17.0836 23.9167 41.0002 23.9167C64.9168 23.9167 73.4565 28.401 68.2245 49.6732Z" stroke="#00FF75" stroke-width="6" stroke-linecap="round" stroke-linejoin="round"/>
<path d="M24.705 24.6676C25.1197 26.1191 26.6326 26.9595 28.0841 26.5448C29.5356 26.1301 30.3761 24.6173 29.9613 23.1658L24.705 24.6676ZM52.0384 23.1658C51.6236 24.6173 52.4641 26.1301 53.9155 26.5448C55.3673 26.9595 56.8798 26.1191 57.2946 24.6676L52.0384 23.1658ZM29.9613 23.1658C29.1863 20.4532 29.178 18.6158 29.48 17.3902C29.7631 16.2412 30.3583 15.4553 31.238 14.8463C33.2411 13.4595 36.7054 12.9833 40.9998 12.9833V7.51667C36.7526 7.51667 31.6753 7.89465 28.1263 10.3516C26.2299 11.6645 24.7965 13.5479 24.172 16.0825C23.5664 18.5405 23.7717 21.401 24.705 24.6676L29.9613 23.1658ZM40.9998 12.9833C45.2942 12.9833 48.7587 13.4595 50.7616 14.8463C51.6414 15.4553 52.2366 16.2412 52.5198 17.3902C52.8215 18.6158 52.8133 20.4532 52.0384 23.1658L57.2946 24.6676C58.228 21.401 58.4334 18.5405 57.8276 16.0825C57.203 13.5479 55.7697 11.6645 53.8735 10.3516C50.3243 7.89465 45.2471 7.51667 40.9998 7.51667V12.9833Z" fill="#00FF75"/>
<path fill-rule="evenodd" clip-rule="evenodd" d="M32.4584 41.0034C30.5715 41.0034 29.0417 39.4721 29.0417 37.585C29.0417 35.698 30.5715 34.1666 32.4584 34.1666C34.3454 34.1666 35.8751 35.698 35.8751 37.585C35.8751 39.4721 34.3454 41.0034 32.4584 41.0034Z" fill="#00FF75"/>
<path fill-rule="evenodd" clip-rule="evenodd" d="M49.5417 41.0034C47.6546 41.0034 46.125 39.4721 46.125 37.585C46.125 35.698 47.6546 34.1666 49.5417 34.1666C51.4287 34.1666 52.9583 35.698 52.9583 37.585C52.9583 39.4721 51.4287 41.0034 49.5417 41.0034Z" fill="#00FF75"/>
</svg>
