<svg width="22" height="22" viewBox="0 0 22 22" fill="none" xmlns="http://www.w3.org/2000/svg">
<path d="M11.849 2.33571C11.308 2.09769 10.6919 2.09769 10.151 2.33571C9.81448 2.48372 9.56377 2.73424 9.34762 2.99768C9.13723 3.254 8.90435 3.59382 8.62938 3.99506L8.61131 4.02144C8.07393 4.80554 7.85812 5.1147 7.59987 5.36729C7.33152 5.62975 7.02622 5.85156 6.69368 6.02567C6.37366 6.19323 6.01293 6.30294 5.10115 6.57171L5.07045 6.58076C4.6039 6.71828 4.20876 6.83475 3.89998 6.95559C3.58264 7.07979 3.26688 7.24085 3.02215 7.51507C2.62861 7.95605 2.43823 8.54195 2.49742 9.13002C2.53423 9.4957 2.69501 9.81167 2.87875 10.0986C3.05753 10.3779 3.30874 10.7044 3.60536 11.0899L3.62487 11.1153C4.20454 11.8686 4.43188 12.1694 4.5923 12.493C4.759 12.8293 4.87561 13.1883 4.93844 13.5584C4.9989 13.9145 4.99177 14.2914 4.96563 15.2416L4.96475 15.2736C4.95137 15.7598 4.94003 16.1717 4.95954 16.5027C4.97959 16.8429 5.0352 17.1929 5.22038 17.5104C5.51815 18.021 6.01656 18.3831 6.59414 18.5085C6.95332 18.5866 7.30343 18.5312 7.63318 18.4452C7.954 18.3614 8.34213 18.2234 8.80041 18.0605L8.83057 18.0497C9.7262 17.7312 10.0825 17.6079 10.4399 17.5554C10.8113 17.5008 11.1887 17.5008 11.56 17.5554C11.9174 17.6079 12.2737 17.7312 13.1694 18.0497L13.1995 18.0604C13.6578 18.2234 14.0459 18.3614 14.3667 18.4452C14.6966 18.5312 15.0466 18.5866 15.4058 18.5085C15.9834 18.3831 16.4818 18.021 16.7796 17.5104C16.9648 17.1929 17.0204 16.8429 17.0404 16.5027C17.0599 16.1717 17.0485 15.7599 17.0352 15.2737L17.0343 15.2416C17.0082 14.2914 17.0011 13.9145 17.0616 13.5584C17.1243 13.1883 17.2409 12.8293 17.4077 12.493C17.5681 12.1694 17.7954 11.8686 18.375 11.1153L18.3946 11.0899C18.6912 10.7044 18.9425 10.3779 19.1212 10.0986C19.3049 9.81167 19.4657 9.4957 19.5025 9.13002C19.5617 8.54195 19.3714 7.95605 18.9778 7.51507C18.7331 7.24085 18.4173 7.07979 18.1 6.95559C17.7912 6.83474 17.396 6.71827 16.9295 6.58074L16.8988 6.57171C15.987 6.30294 15.6263 6.19323 15.3062 6.02567C14.9738 5.85156 14.6684 5.62975 14.4001 5.36729C14.1418 5.1147 13.926 4.80554 13.3887 4.02144L13.3706 3.99505C13.0956 3.59382 12.8628 3.254 12.6524 2.99768C12.4361 2.73424 12.1854 2.48372 11.849 2.33571Z" fill="white"/>
</svg>
