<svg width="53" height="53" viewBox="0 0 53 53" fill="none" xmlns="http://www.w3.org/2000/svg">
<circle cx="26.5" cy="26.5" r="26.5" fill="#00FF75"/>
<path d="M27.9262 17.5481C27.336 17.2885 26.6639 17.2885 26.0738 17.5481C25.7067 17.7096 25.4332 17.9829 25.1974 18.2703C24.9679 18.5499 24.7138 18.9206 24.4139 19.3583L24.3942 19.3871C23.8079 20.2425 23.5725 20.5798 23.2908 20.8553C22.998 21.1416 22.665 21.3836 22.3022 21.5736C21.9531 21.7563 21.5596 21.876 20.5649 22.1692L20.5314 22.1791C20.0224 22.3291 19.5914 22.4562 19.2545 22.588C18.9083 22.7235 18.5639 22.8992 18.2969 23.1984C17.8676 23.6794 17.6599 24.3186 17.7245 24.9601C17.7646 25.359 17.94 25.7037 18.1405 26.0167C18.3355 26.3214 18.6095 26.6776 18.9331 27.0981L18.9544 27.1258C19.5868 27.9476 19.8348 28.2758 20.0098 28.6288C20.1916 28.9957 20.3188 29.3873 20.3874 29.791C20.4533 30.1795 20.4456 30.5907 20.4171 31.6273L20.4161 31.6622C20.4015 32.1926 20.3891 32.6419 20.4104 33.003C20.4323 33.3741 20.4929 33.756 20.695 34.1023C21.0198 34.6593 21.5635 35.0543 22.1936 35.1912C22.5854 35.2763 22.9674 35.2159 23.3271 35.1221C23.6771 35.0307 24.1005 34.8801 24.6004 34.7024L24.6334 34.6906C25.6104 34.3432 25.9991 34.2087 26.389 34.1514C26.7941 34.0918 27.2058 34.0918 27.6109 34.1514C28.0008 34.2087 28.3895 34.3432 29.3666 34.6906L29.3994 34.7023C29.8994 34.8801 30.3228 35.0307 30.6728 35.1221C31.0326 35.2159 31.4145 35.2763 31.8063 35.1912C32.4364 35.0543 32.9801 34.6593 33.305 34.1023C33.507 33.756 33.5677 33.3741 33.5895 33.003C33.6108 32.6419 33.5984 32.1927 33.5838 31.6623L33.5829 31.6273C33.5544 30.5907 33.5466 30.1795 33.6126 29.791C33.6811 29.3873 33.8083 28.9957 33.9902 28.6288C34.1652 28.2758 34.4132 27.9476 35.0455 27.1258L35.0668 27.0981C35.3904 26.6776 35.6645 26.3214 35.8595 26.0167C36.0599 25.7037 36.2353 25.359 36.2755 24.9601C36.34 24.3186 36.1324 23.6794 35.703 23.1984C35.4361 22.8992 35.0916 22.7235 34.7454 22.588C34.4086 22.4562 33.9775 22.3291 33.4685 22.1791L33.4351 22.1692C32.4404 21.876 32.0469 21.7563 31.6977 21.5736C31.335 21.3836 31.0019 21.1416 30.7092 20.8553C30.4274 20.5798 30.192 20.2425 29.6058 19.3871L29.5861 19.3583C29.2861 18.9206 29.0321 18.5499 28.8026 18.2703C28.5667 17.9829 28.2932 17.7096 27.9262 17.5481Z" fill="#1B1A43"/>
</svg>
