<svg width="64" height="63" viewBox="0 0 64 63" fill="none" xmlns="http://www.w3.org/2000/svg">
<path d="M25.3515 9.53435C27.5163 6.37567 28.5987 4.79632 29.9363 4.20786C31.2514 3.62932 32.7489 3.62932 34.064 4.20786C35.4013 4.79632 36.4837 6.37567 38.6485 9.53435C40.5916 12.3696 41.5633 13.7872 42.7618 14.9596C43.9525 16.1242 45.3072 17.1084 46.7829 17.881C48.2685 18.6587 49.9167 19.1446 53.2138 20.1165C56.8867 21.1993 58.7231 21.7406 59.6962 22.8309C60.6529 23.9028 61.1158 25.327 60.9716 26.7565C60.8254 28.2105 59.6579 29.7278 57.3226 32.7628C55.2269 35.4869 54.1786 36.8492 53.4341 38.3515C52.6944 39.8435 52.1771 41.436 51.8983 43.0784C51.6175 44.7314 51.665 46.4493 51.7593 49.8851C51.8645 53.7131 51.9175 55.6268 51.1812 56.8893C50.4572 58.1302 49.2456 59.0103 47.8417 59.3155C46.4139 59.6253 44.6099 58.984 41.0019 57.7011C37.7632 56.5493 36.1441 55.9736 34.4853 55.7297C32.8374 55.4874 31.1629 55.4874 29.5151 55.7297C27.8559 55.9736 26.2368 56.5493 22.9983 57.7011C19.3904 58.984 17.5864 59.6253 16.1584 59.3155C14.7544 59.0103 13.5429 58.1302 12.819 56.8893C12.0828 55.6268 12.1354 53.7131 12.2407 49.8851C12.3352 46.4493 12.3825 44.7314 12.1018 43.0784C11.8231 41.436 11.3056 39.8435 10.566 38.3515C9.82136 36.8492 8.77337 35.4869 6.67735 32.7628C4.34223 29.7278 3.17465 28.2105 3.02835 26.7565C2.88447 25.327 3.34723 23.9028 4.30386 22.8309C5.27682 21.7406 7.11335 21.1993 10.7864 20.1165C14.0833 19.1446 15.7318 18.6587 17.2171 17.881C18.6927 17.1084 20.0474 16.1242 21.2382 14.9596C22.4368 13.7872 23.4084 12.3696 25.3515 9.53435Z" stroke="#00FF75" stroke-width="6"/>
</svg>
